<?xml version="1.0" encoding="UTF-8"?>
<svg version="1.1" xmlns="http://www.w3.org/2000/svg" width="200" height="200">
<path d="M0 0 C66 0 132 0 200 0 C200 66 200 132 200 200 C134 200 68 200 0 200 C0 134 0 68 0 0 Z " fill="#FEFEFE" transform="translate(0,0)"/>
<path d="M0 0 C5.21065981 1.7368866 7.06154763 7.18252177 9.75 11.75 C10.67232422 13.25433594 10.67232422 13.25433594 11.61328125 14.7890625 C12.18949219 15.76101562 12.76570313 16.73296875 13.359375 17.734375 C13.89014648 18.62350586 14.42091797 19.51263672 14.96777344 20.42871094 C16.22434194 23.55883854 16.06999444 24.82879128 15 28 C14.08593562 29.87372098 13.09836967 31.71254203 12.05859375 33.51953125 C11.27053345 34.90168823 11.27053345 34.90168823 10.46655273 36.31176758 C9.46217163 38.04463013 9.46217163 38.04463013 8.4375 39.8125 C6.313125 43.504375 4.18875 47.19625 2 51 C11.9 51 21.8 51 32 51 C39.375 63.8125 39.375 63.8125 41.69287109 67.84301758 C42.29695801 68.89126709 42.90104492 69.9395166 43.5234375 71.01953125 C44.14138184 72.09307861 44.75932617 73.16662598 45.39599609 74.27270508 C46.53949316 76.21699819 47.74880227 78.1232034 49 80 C49 80.99 49 81.98 49 83 C39.1 83 29.2 83 19 83 C17.30875 79.90625 15.6175 76.8125 13.875 73.625 C8.43479518 61.38496593 8.43479518 61.38496593 0 52 C-0.26876953 52.88083252 -0.53753906 53.76166504 -0.81445312 54.66918945 C-1.93896532 57.82852223 -3.25095964 60.42299546 -4.96875 63.29296875 C-5.53980469 64.25267578 -6.11085937 65.21238281 -6.69921875 66.20117188 C-7.29347656 67.18666016 -7.88773438 68.17214844 -8.5 69.1875 C-9.09425781 70.18458984 -9.68851563 71.18167969 -10.30078125 72.20898438 C-12.47640798 75.85058082 -14.64666489 79.46999734 -17 83 C-19.98095703 83.34057617 -19.98095703 83.34057617 -23.7578125 83.29296875 C-24.42086395 83.28872391 -25.08391541 83.28447906 -25.76705933 83.28010559 C-27.88678441 83.26329971 -30.00556188 83.22564701 -32.125 83.1875 C-33.56118419 83.17245549 -34.99738328 83.15876668 -36.43359375 83.14648438 C-39.95603764 83.1133909 -43.47792636 83.0615968 -47 83 C-45.54731989 79.09928489 -43.72731915 75.5925133 -41.65625 71.984375 C-41.33124008 71.41635162 -41.00623016 70.84832825 -40.67137146 70.26309204 C-39.61752195 68.42349361 -38.55890894 66.58669002 -37.5 64.75 C-36.76487823 63.46966547 -36.02993471 62.18922859 -35.29516602 60.90869141 C-31.17648703 53.73885397 -27.02473863 46.58915184 -22.81201172 39.47412109 C-18.86681856 32.80309811 -14.99564774 26.08943891 -11.125 19.375 C-10.48167725 18.25915527 -9.83835449 17.14331055 -9.17553711 15.99365234 C-6.10730378 10.66795191 -3.04448102 5.33931597 0 0 Z " fill="#AD2D63" transform="translate(99,38)"/>
<path d="M0 0 C3.3 0 6.6 0 10 0 C9.67 0.99 9.34 1.98 9 3 C7.02 3 5.04 3 3 3 C3 4.32 3 5.64 3 7 C6.37400578 7.41725678 6.37400578 7.41725678 10 7 C11.82605543 4.67881567 11.82605543 4.67881567 13 2 C16.68087353 -0.45391569 19.44355588 -0.22802759 23.6875 -0.125 C24.38939453 -0.11597656 25.09128906 -0.10695312 25.81445312 -0.09765625 C27.54311525 -0.07413704 29.27160145 -0.03826713 31 0 C31.06058594 0.92683594 31.12117188 1.85367188 31.18359375 2.80859375 C31.30927734 4.60490234 31.30927734 4.60490234 31.4375 6.4375 C31.51871094 7.63246094 31.59992188 8.82742187 31.68359375 10.05859375 C31.67656114 12.88570244 31.67656114 12.88570244 33 14 C35.5 14.16666667 35.5 14.16666667 38 14 C39.87824891 12.12175109 39.39102397 8.96064724 39.5625 6.4375 C39.64628906 5.23996094 39.73007813 4.04242188 39.81640625 2.80859375 C39.90728516 1.41833984 39.90728516 1.41833984 40 0 C40.99 0 41.98 0 43 0 C43.10832169 2.08218362 43.18573541 4.16599129 43.25 6.25 C43.29640625 7.41015625 43.3428125 8.5703125 43.390625 9.765625 C43 13 43 13 41.23828125 15.40234375 C37.65013418 17.96351679 35.33605893 17.34413166 31 17 C30.01 16.67 29.02 16.34 28 16 C27.01 16.33 26.02 16.66 25 17 C21.93609438 17.40163557 19.05627566 17.4924297 16 17 C12.9375 14.625 12.9375 14.625 11 12 C11 11.34 11 10.68 11 10 C8.36 10 5.72 10 3 10 C3 11.32 3 12.64 3 14 C4.98 14 6.96 14 9 14 C9 14.99 9 15.98 9 17 C6.03 17 3.06 17 0 17 C0 11.39 0 5.78 0 0 Z " fill="#F5F7FA" transform="translate(86,146)"/>
<path d="M0 0 C3.3 0 6.6 0 10 0 C9.67 0.99 9.34 1.98 9 3 C7.02 3 5.04 3 3 3 C3 4.32 3 5.64 3 7 C6.37400578 7.41725678 6.37400578 7.41725678 10 7 C11.82605543 4.67881567 11.82605543 4.67881567 13 2 C16.157776 -0.105184 16.95397134 -0.25289344 20.5625 -0.1875 C21.34753906 -0.18105469 22.13257812 -0.17460937 22.94140625 -0.16796875 C25 0 25 0 27 1 C26.67 1.99 26.34 2.98 26 4 C24.741875 3.773125 23.48375 3.54625 22.1875 3.3125 C18.95280536 2.90681782 18.95280536 2.90681782 15.9375 4 C14.44486878 7.18427995 15.19853974 9.67085738 16 13 C18.7238399 14.36191995 20.98096827 14.06161289 24 14 C24.99 14 25.98 14 27 14 C27 14.66 27 15.32 27 16 C23.52683143 17.73658429 19.78858864 17.60094854 16 17 C12.9375 14.625 12.9375 14.625 11 12 C11 11.34 11 10.68 11 10 C8.36 10 5.72 10 3 10 C3 11.32 3 12.64 3 14 C4.98 14 6.96 14 9 14 C9 14.99 9 15.98 9 17 C6.03 17 3.06 17 0 17 C0 11.39 0 5.78 0 0 Z " fill="#2261A5" transform="translate(86,146)"/>
<path d="M0 0 C8 0 8 0 11 2 C11.1875 5.125 11.1875 5.125 11 8 C9.02 8.99 9.02 8.99 7 10 C9.475 13.465 9.475 13.465 12 17 C8.31245243 16.50168276 6.39509338 15.89932357 4 13 C3.67 14.32 3.34 15.64 3 17 C2.01 17 1.02 17 0 17 C0 11.39 0 5.78 0 0 Z " fill="#2D67A8" transform="translate(131,146)"/>
<path d="M0 0 C3.18678372 2.92352767 5.21723295 5.81612841 7.25 9.625 C7.77078125 10.58664063 8.2915625 11.54828125 8.828125 12.5390625 C10 15 10 15 10 17 C8.0625 16.625 8.0625 16.625 6 16 C5.67 15.34 5.34 14.68 5 14 C3.54257537 13.91903197 2.08387193 13.86082226 0.625 13.8125 C-0.59316406 13.76029297 -0.59316406 13.76029297 -1.8359375 13.70703125 C-2.55007812 13.80371094 -3.26421875 13.90039062 -4 14 C-4.99 15.485 -4.99 15.485 -6 17 C-6.99 17 -7.98 17 -9 17 C-7.46933687 11.18348012 -4.32262613 4.32262613 0 0 Z " fill="#B43C6C" transform="translate(15,146)"/>
<path d="M0 0 C1.32 0 2.64 0 4 0 C4.66 1.65 5.32 3.3 6 5 C6.763125 4.175 7.52625 3.35 8.3125 2.5 C11 0 11 0 14 0 C12.80100302 3.0831351 11.52299523 6.06279492 10 9 C12.475 12.465 12.475 12.465 15 16 C13.68 16.33 12.36 16.66 11 17 C8 13.25 8 13.25 8 11 C7.34 11 6.68 11 6 11 C5.690625 11.61875 5.38125 12.2375 5.0625 12.875 C4.375 14.25 3.6875 15.625 3 17 C1.68 16.67 0.36 16.34 -1 16 C-0.61585937 15.55269531 -0.23171875 15.10539063 0.1640625 14.64453125 C1.62585774 12.81142438 2.90600906 11.07555593 4 9 C3.58612501 6.25696427 3.58612501 6.25696427 2 4 C1.443125 2.8553125 1.443125 2.8553125 0.875 1.6875 C0.58625 1.130625 0.2975 0.57375 0 0 Z " fill="#B74470" transform="translate(27,146)"/>
<path d="M0 0 C3.0625 0.3125 3.0625 0.3125 4.9375 1.8125 C5.30875 2.3075 5.68 2.8025 6.0625 3.3125 C2.77273192 4.40908936 1.34946233 4.11203138 -1.9375 3.3125 C-1.9375 4.3025 -1.9375 5.2925 -1.9375 6.3125 C-0.82375 6.60125 0.29 6.89 1.4375 7.1875 C5.0625 8.3125 5.0625 8.3125 7.0625 10.3125 C6.73278521 13.60964793 6.4398161 14.9351839 4.0625 17.3125 C-3.10955692 17.88171087 -3.10955692 17.88171087 -5.9375 15.9375 C-6.9375 14.3125 -6.9375 14.3125 -6.9375 12.3125 C-5.6175 12.3125 -4.2975 12.3125 -2.9375 12.3125 C-2.6075 12.9725 -2.2775 13.6325 -1.9375 14.3125 C-0.6175 14.3125 0.7025 14.3125 2.0625 14.3125 C1.94943303 12.35355639 1.94943303 12.35355639 1.0625 10.3125 C-1.36133077 9.14296584 -1.36133077 9.14296584 -3.9375 8.3125 C-4.5975 7.6525 -5.2575 6.9925 -5.9375 6.3125 C-5.42715039 2.2297031 -4.25353963 0.45250422 0 0 Z " fill="#2F69A9" transform="translate(187.9375,145.6875)"/>
<path d="M0 0 C0.99 0 1.98 0 3 0 C3.06058594 0.92683594 3.12117188 1.85367188 3.18359375 2.80859375 C3.26738281 4.00613281 3.35117188 5.20367187 3.4375 6.4375 C3.51871094 7.63246094 3.59992188 8.82742187 3.68359375 10.05859375 C3.67656114 12.88570244 3.67656114 12.88570244 5 14 C7.5 14.16666667 7.5 14.16666667 10 14 C11.87824891 12.12175109 11.39102397 8.96064724 11.5625 6.4375 C11.64628906 5.23996094 11.73007813 4.04242188 11.81640625 2.80859375 C11.87699219 1.88175781 11.93757813 0.95492187 12 0 C12.99 0 13.98 0 15 0 C15.10832169 2.08218362 15.18573541 4.16599129 15.25 6.25 C15.29640625 7.41015625 15.3428125 8.5703125 15.390625 9.765625 C15 13 15 13 13.23828125 15.390625 C9.57383868 18.02544235 7.43656387 17.56337319 3 17 C0.44308044 14.62736293 0.02387407 13.26356972 -0.29296875 9.765625 C-0.24076172 8.02539062 -0.24076172 8.02539062 -0.1875 6.25 C-0.16042969 5.07953125 -0.13335937 3.9090625 -0.10546875 2.703125 C-0.07066406 1.81109375 -0.03585938 0.9190625 0 0 Z " fill="#346CAB" transform="translate(114,146)"/>
<path d="M0 0 C0.66 0.99 1.32 1.98 2 3 C-1.28976808 4.09658936 -2.71303767 3.79953138 -6 3 C-6 3.99 -6 4.98 -6 6 C-4.88625 6.28875 -3.7725 6.5775 -2.625 6.875 C1 8 1 8 3 10 C3.3125 12.5 3.3125 12.5 3 15 C-1.06849409 17.71232939 -3.16476784 17.30699887 -8 17 C-8.66 16.34 -9.32 15.68 -10 15 C-10 14.01 -10 13.02 -10 12 C-9.1646875 12.2165625 -9.1646875 12.2165625 -8.3125 12.4375 C-5.88615805 13.02769128 -3.45093655 13.523429 -1 14 C-1 13.01 -1 12.02 -1 11 C-3.64 9.68 -6.28 8.36 -9 7 C-9.1875 4.625 -9.1875 4.625 -9 2 C-5.54970958 -0.30019361 -4.05445642 -0.43132515 0 0 Z " fill="#2D68A9" transform="translate(80,146)"/>
<path d="M0 0 C3.5625 0.125 3.5625 0.125 5.5625 1.125 C5.5625 1.785 5.5625 2.445 5.5625 3.125 C3.2525 3.125 0.9425 3.125 -1.4375 3.125 C-1.4375 3.785 -1.4375 4.445 -1.4375 5.125 C1.2025 6.445 3.8425 7.765 6.5625 9.125 C6.78167317 11.82813576 6.89101983 13.56458382 5.5 15.9375 C2.46874457 17.79536623 0.02827141 17.49633265 -3.4375 17.125 C-5.375 15.75 -5.375 15.75 -6.4375 14.125 C-6.4375 13.465 -6.4375 12.805 -6.4375 12.125 C-5.1175 12.125 -3.7975 12.125 -2.4375 12.125 C-2.1075 12.785 -1.7775 13.445 -1.4375 14.125 C-0.1175 13.795 1.2025 13.465 2.5625 13.125 C2.2325 12.135 1.9025 11.145 1.5625 10.125 C-0.08301962 9.40772222 -1.75172289 8.74174772 -3.4375 8.125 C-4.0975 7.465 -4.7575 6.805 -5.4375 6.125 C-4.71144209 0.17132517 -4.71144209 0.17132517 0 0 Z " fill="#B53E6C" transform="translate(57.4375,145.875)"/>
<path d="M0 0 C3.3 0 6.6 0 10 0 C9.67 0.99 9.34 1.98 9 3 C7.02 3 5.04 3 3 3 C3 4.32 3 5.64 3 7 C5.31 7 7.62 7 10 7 C10 7.99 10 8.98 10 10 C7.69 10 5.38 10 3 10 C3 11.65 3 13.3 3 15 C4.98 15 6.96 15 9 15 C9 15.66 9 16.32 9 17 C6.03 17 3.06 17 0 17 C0 11.39 0 5.78 0 0 Z " fill="#1A5CA2" transform="translate(170,146)"/>
<path d="M0 0 C3.96 0 7.92 0 12 0 C12 0.66 12 1.32 12 2 C10.35 2 8.7 2 7 2 C7 6.95 7 11.9 7 17 C6.01 17 5.02 17 4 17 C4 12.38 4 7.76 4 3 C2.68 3 1.36 3 0 3 C0 2.01 0 1.02 0 0 Z " fill="#3B6EAD" transform="translate(150,146)"/>
<path d="M0 0 C0.99 0.99 1.98 1.98 3 3 C3.66 2.34 4.32 1.68 5 1 C5.83848804 2.45537568 6.67063934 3.91440373 7.5 5.375 C7.9640625 6.18710938 8.428125 6.99921875 8.90625 7.8359375 C10 10 10 10 10 12 C8.0625 11.625 8.0625 11.625 6 11 C5.67 10.34 5.34 9.68 5 9 C2.87423218 8.53348793 2.87423218 8.53348793 0.4375 8.375 C-0.38878906 8.30023438 -1.21507812 8.22546875 -2.06640625 8.1484375 C-2.70449219 8.09945312 -3.34257812 8.05046875 -4 8 C-3.34 7.34 -2.68 6.68 -2 6 C-1.63557767 4.33985384 -1.30027117 2.67293936 -1 1 C-0.67 0.67 -0.34 0.34 0 0 Z " fill="#B74471" transform="translate(15,151)"/>
<path d="M0 0 C3.3 0 6.6 0 10 0 C10 0.66 10 1.32 10 2 C7.36 2 4.72 2 2 2 C2 6.29 2 10.58 2 15 C4.31 15 6.62 15 9 15 C9 15.66 9 16.32 9 17 C6.03 17 3.06 17 0 17 C0 11.39 0 5.78 0 0 Z " fill="#1F5FA4" transform="translate(86,146)"/>
<path d="M0 0 C2.31 0 4.62 0 7 0 C7 0.33 7 0.66 7 1 C5.02 1 3.04 1 1 1 C1 2.32 1 3.64 1 5 C4.41656024 5.16677282 4.41656024 5.16677282 8 5 C8.66 4.34 9.32 3.68 10 3 C10 5.31 10 7.62 10 10 C9.67 9.34 9.34 8.68 9 8 C6.36 8 3.72 8 1 8 C1 9.32 1 10.64 1 12 C2.98 12 4.96 12 7 12 C7 12.33 7 12.66 7 13 C4.69 13 2.38 13 0 13 C0 8.71 0 4.42 0 0 Z " fill="#7D9AC6" transform="translate(88,148)"/>
<path d="M0 0 C0.99 0 1.98 0 3 0 C3 5.61 3 11.22 3 17 C2.01 17 1.02 17 0 17 C0 11.39 0 5.78 0 0 Z " fill="#3A6EAC" transform="translate(145,146)"/>
<path d="M0 0 C0.99 0 1.98 0 3 0 C3 5.61 3 11.22 3 17 C2.01 17 1.02 17 0 17 C0 11.39 0 5.78 0 0 Z " fill="#366AAA" transform="translate(164,146)"/>
<path d="M0 0 C0.99 0 1.98 0 3 0 C3 5.61 3 11.22 3 17 C2.01 17 1.02 17 0 17 C0 11.39 0 5.78 0 0 Z " fill="#B33868" transform="translate(45,146)"/>
<path d="M0 0 C2.375 -0.125 2.375 -0.125 5 0 C5.66 0.66 6.32 1.32 7 2 C6.46428571 5.53571429 6.46428571 5.53571429 5 7 C3.33382885 7.04063832 1.66611905 7.042721 0 7 C0 4.69 0 2.38 0 0 Z " fill="#DDE2EF" transform="translate(133,148)"/>
<path d="M0 0 C2.31 0 4.62 0 7 0 C7 0.33 7 0.66 7 1 C5.02 1 3.04 1 1 1 C1 2.32 1 3.64 1 5 C3.31 5 5.62 5 8 5 C8 5.99 8 6.98 8 8 C5.69 8 3.38 8 1 8 C1 9.65 1 11.3 1 13 C0.67 13 0.34 13 0 13 C0 8.71 0 4.42 0 0 Z " fill="#6F90C0" transform="translate(172,148)"/>
<path d="M0 0 C0.78503906 0.00644531 1.57007812 0.01289063 2.37890625 0.01953125 C4.4375 0.1875 4.4375 0.1875 6.4375 1.1875 C6.1075 2.1775 5.7775 3.1675 5.4375 4.1875 C3.58125 3.8471875 3.58125 3.8471875 1.6875 3.5 C-1.43103111 3.09083102 -2.24377899 3.00423542 -5.0625 4.625 C-5.5575 5.140625 -6.0525 5.65625 -6.5625 6.1875 C-6.8925 4.8675 -7.2225 3.5475 -7.5625 2.1875 C-4.404724 0.082316 -3.60852866 -0.06539344 0 0 Z " fill="#2F68A9" transform="translate(106.5625,145.8125)"/>
<path d="M0 0 C0.99 0.99 1.98 1.98 3 3 C3.66 2.34 4.32 1.68 5 1 C5.66 2.65 6.32 4.3 7 6 C4.03 6 1.06 6 -2 6 C-1.125 1.125 -1.125 1.125 0 0 Z " fill="#D89DB1" transform="translate(15,151)"/>
<path d="M0 0 C3.3 0 6.6 0 10 0 C10 0.66 10 1.32 10 2 C7.36 2 4.72 2 2 2 C2 4.31 2 6.62 2 9 C0 7 0 7 -0.125 3.375 C-0.08375 2.26125 -0.0425 1.1475 0 0 Z " fill="#2562A5" transform="translate(170,146)"/>
<path d="M0 0 C4.875 0.875 4.875 0.875 6 2 C6.04063832 3.66617115 6.042721 5.33388095 6 7 C5.01 7 4.02 7 3 7 C2.87625 6.360625 2.7525 5.72125 2.625 5.0625 C2.315625 4.0415625 2.315625 4.0415625 2 3 C1.34 2.67 0.68 2.34 0 2 C0 1.34 0 0.68 0 0 Z " fill="#2262A5" transform="translate(77,154)"/>
<path d="M0 0 C0.99 0.103125 1.98 0.20625 3 0.3125 C3.66 1.3025 4.32 2.2925 5 3.3125 C1.06329512 4.62473496 -1.12488144 3.55546256 -5 2.3125 C-3 0.3125 -3 0.3125 0 0 Z " fill="#3D6FAD" transform="translate(77,145.6875)"/>
<path d="M0 0 C4.875 4.75 4.875 4.75 6 7 C1.25 6.25 1.25 6.25 -1 4 C-0.625 1.875 -0.625 1.875 0 0 Z " fill="#3D70AE" transform="translate(137,156)"/>
<path d="M0 0 C0.33 0.66 0.66 1.32 1 2 C1.99 1.67 2.98 1.34 4 1 C4 1.66 4 2.32 4 3 C5.65 3.33 7.3 3.66 9 4 C6 6 6 6 3.9375 5.75 C2 5 2 5 0 3 C0 2.01 0 1.02 0 0 Z " fill="#3F72AF" transform="translate(182,149)"/>
<path d="M0 0 C1.32 0 2.64 0 4 0 C4.33 1.65 4.66 3.3 5 5 C3.0625 4.1875 3.0625 4.1875 1 3 C0.67 2.01 0.34 1.02 0 0 Z " fill="#3B6FAD" transform="translate(181,158)"/>
</svg>
