<?xml version="1.0" encoding="UTF-8"?>
<svg version="1.1" xmlns="http://www.w3.org/2000/svg" width="213" height="236">
<path d="M0 0 C70.29 0 140.58 0 213 0 C213 77.88 213 155.76 213 236 C142.71 236 72.42 236 0 236 C0 158.12 0 80.24 0 0 Z " fill="#5D5858" transform="translate(0,0)"/>
<path d="M0 0 C70.29 0 140.58 0 213 0 C213 37.95 213 75.9 213 115 C185.99939649 115.60001341 159.11797697 116.14553488 132.12923241 115.92053413 C126.66906144 115.87655866 121.20885068 115.84162673 115.74861145 115.80735779 C107.14398906 115.75227133 98.53942654 115.6907522 89.9348672 115.62663645 C78.24831163 115.53995345 66.56168713 115.46378687 54.8750639 115.38688183 C36.58331037 115.26624631 18.29168289 115.13206258 0 115 C0 77.05 0 39.1 0 0 Z " fill="#6D5756" transform="translate(0,0)"/>
<path d="M0 0 C70.29 0 140.58 0 213 0 C213 18.81 213 37.62 213 57 C195.48721722 57.13269933 177.97442325 57.26348757 160.46160316 57.39115143 C152.32253762 57.45053838 144.18347903 57.51066792 136.04443359 57.57275391 C104.66834584 57.81162555 73.29191958 58.04575397 41.91483688 58.08811951 C39.44161051 58.0918168 36.96838591 58.0971065 34.49516678 58.10414124 C31.10792539 58.1130357 27.72074774 58.11515426 24.33349609 58.11523438 C22.8868564 58.12058952 22.8868564 58.12058952 21.41099167 58.12605286 C14.18365796 58.11417726 7.2653404 57.55887234 0 57 C0 38.19 0 19.38 0 0 Z " fill="#76504E" transform="translate(0,0)"/>
<path d="M0 0 C0.6600152 -0.00170885 1.32003041 -0.0034177 2.00004607 -0.00517833 C4.21578281 -0.00847751 6.43121796 0.00253728 8.64692688 0.01345825 C10.23355604 0.01402227 11.82018572 0.01370598 13.40681458 0.01257324 C17.71852843 0.01199838 22.03013147 0.0237743 26.34181952 0.03772116 C30.84617031 0.05020625 35.3505235 0.05139726 39.85488892 0.05377197 C48.38652009 0.05999328 56.91810013 0.07641289 65.44970876 0.09647095 C75.16179919 0.11880972 84.87389204 0.12981829 94.58600175 0.13986182 C114.56638734 0.16077857 134.54670282 0.19746292 154.52705383 0.24050903 C154.52705383 17.40050903 154.52705383 34.56050903 154.52705383 52.24050903 C84.23705383 52.24050903 13.94705383 52.24050903 -58.47294617 52.24050903 C-58.47294617 43.66050903 -58.47294617 35.08050903 -58.47294617 26.24050903 C-46.59294617 26.24050903 -34.71294617 26.24050903 -22.47294617 26.24050903 C-22.47294617 25.58050903 -22.47294617 24.92050903 -22.47294617 24.24050903 C-21.68919617 24.09613403 -20.90544617 23.95175903 -20.09794617 23.80300903 C-17.50873599 23.36251978 -17.50873599 23.36251978 -15.47294617 22.24050903 C-15.47294617 21.58050903 -15.47294617 20.92050903 -15.47294617 20.24050903 C-14.81294617 20.24050903 -14.15294617 20.24050903 -13.47294617 20.24050903 C-13.13263367 21.44707153 -13.13263367 21.44707153 -12.78544617 22.67800903 C-12.35232117 23.52363403 -11.91919617 24.36925903 -11.47294617 25.24050903 C-8.92519311 26.13437067 -8.92519311 26.13437067 -6.47294617 26.24050903 C-6.47294617 25.58050903 -6.47294617 24.92050903 -6.47294617 24.24050903 C-3.50294617 24.24050903 -0.53294617 24.24050903 2.52705383 24.24050903 C2.03205383 25.72550903 2.03205383 25.72550903 1.52705383 27.24050903 C1.52705383 28.23050903 1.52705383 29.22050903 1.52705383 30.24050903 C-0.78294617 30.24050903 -3.09294617 30.24050903 -5.47294617 30.24050903 C-5.96794617 31.72550903 -5.96794617 31.72550903 -6.47294617 33.24050903 C-3.50294617 33.57050903 -0.53294617 33.90050903 2.52705383 34.24050903 C2.83642883 33.29175903 3.14580383 32.34300903 3.46455383 31.36550903 C4.52705383 28.24050903 4.52705383 28.24050903 5.52705383 26.24050903 C4.86705383 25.58050903 4.20705383 24.92050903 3.52705383 24.24050903 C3.85705383 23.58050903 4.18705383 22.92050903 4.52705383 22.24050903 C8.86038717 22.24050903 13.1937205 22.24050903 17.52705383 22.24050903 C19.52814662 21.91380001 21.52821514 21.5807369 23.52705383 21.24050903 C23.52705383 20.91050903 23.52705383 20.58050903 23.52705383 20.24050903 C21.87705383 19.91050903 20.22705383 19.58050903 18.52705383 19.24050903 C19.84705383 18.25050903 21.16705383 17.26050903 22.52705383 16.24050903 C21.20705383 15.58050903 19.88705383 14.92050903 18.52705383 14.24050903 C22.81705383 14.24050903 27.10705383 14.24050903 31.52705383 14.24050903 C31.19705383 15.23050903 30.86705383 16.22050903 30.52705383 17.24050903 C31.51705383 18.72550903 31.51705383 18.72550903 32.52705383 20.24050903 C32.52705383 19.58050903 32.52705383 18.92050903 32.52705383 18.24050903 C33.18705383 17.58050903 33.84705383 16.92050903 34.52705383 16.24050903 C34.52705383 14.92050903 34.52705383 13.60050903 34.52705383 12.24050903 C34.52705383 8.24050903 34.52705383 8.24050903 36.52705383 6.24050903 C38.8498056 5.84003459 41.1844474 5.50079864 43.52705383 5.24050903 C43.52705383 4.91050903 43.52705383 4.58050903 43.52705383 4.24050903 C39.04845593 4.06487774 35.50121252 4.01965565 31.52705383 6.24050903 C31.19705383 7.23050903 30.86705383 8.22050903 30.52705383 9.24050903 C26.23705383 9.90050903 21.94705383 10.56050903 17.52705383 11.24050903 C17.52705383 12.23050903 17.52705383 13.22050903 17.52705383 14.24050903 C17.19705383 15.23050903 16.86705383 16.22050903 16.52705383 17.24050903 C11.90705383 17.57050903 7.28705383 17.90050903 2.52705383 18.24050903 C2.03205383 17.25050903 2.03205383 17.25050903 1.52705383 16.24050903 C-1.11294617 16.24050903 -3.75294617 16.24050903 -6.47294617 16.24050903 C-6.47294617 15.58050903 -6.47294617 14.92050903 -6.47294617 14.24050903 C-3.83294617 14.24050903 -1.19294617 14.24050903 1.52705383 14.24050903 C1.52705383 13.58050903 1.52705383 12.92050903 1.52705383 12.24050903 C3.50705383 11.91050903 5.48705383 11.58050903 7.52705383 11.24050903 C7.52705383 10.25050903 7.52705383 9.26050903 7.52705383 8.24050903 C3.56705383 7.91050903 -0.39294617 7.58050903 -4.47294617 7.24050903 C-4.14294617 6.25050903 -3.81294617 5.26050903 -3.47294617 4.24050903 C-10.40294617 4.24050903 -17.33294617 4.24050903 -24.47294617 4.24050903 C-24.47294617 3.91050903 -24.47294617 3.58050903 -24.47294617 3.24050903 C-23.42493835 3.19152466 -22.37693054 3.14254028 -21.29716492 3.09207153 C-19.91823263 3.0170276 -18.53932766 2.94148047 -17.16044617 2.86550903 C-16.4701532 2.83457153 -15.77986023 2.80363403 -15.06864929 2.77175903 C-9.42635907 2.44466974 -5.75481926 -0.00895692 0 0 Z M-5.47294617 18.24050903 C-2.83294617 18.24050903 -0.19294617 18.24050903 2.52705383 18.24050903 C2.52705383 18.57050903 2.52705383 18.90050903 2.52705383 19.24050903 C-0.11294617 19.24050903 -2.75294617 19.24050903 -5.47294617 19.24050903 C-5.47294617 18.91050903 -5.47294617 18.58050903 -5.47294617 18.24050903 Z M-0.47294617 30.24050903 C1.52705383 31.24050903 1.52705383 31.24050903 1.52705383 31.24050903 Z " fill="#6E6E6D" transform="translate(58.47294616699219,183.75949096679688)"/>
<path d="M0 0 C70.29 0 140.58 0 213 0 C213 8.25 213 16.5 213 25 C171.98248551 26.41399031 130.9666574 25.93224782 89.93460667 25.62664449 C80.10315803 25.55368764 70.27166236 25.48839431 60.44015729 25.42356598 C40.29337735 25.29055673 20.14667336 25.14821358 0 25 C0 16.75 0 8.5 0 0 Z " fill="#635757" transform="translate(0,90)"/>
<path d="M0 0 C70.29 0 140.58 0 213 0 C213 5.61 213 11.22 213 17 C142.71 17 72.42 17 0 17 C0 11.39 0 5.78 0 0 Z " fill="#6A6362" transform="translate(0,115)"/>
<path d="M0 0 C0.6600152 -0.00170885 1.32003041 -0.0034177 2.00004607 -0.00517833 C4.21578281 -0.00847751 6.43121796 0.00253728 8.64692688 0.01345825 C10.23355604 0.01402227 11.82018572 0.01370598 13.40681458 0.01257324 C17.71852843 0.01199838 22.03013147 0.0237743 26.34181952 0.03772116 C30.84617031 0.05020625 35.3505235 0.05139726 39.85488892 0.05377197 C48.38652009 0.05999328 56.91810013 0.07641289 65.44970876 0.09647095 C75.16179919 0.11880972 84.87389204 0.12981829 94.58600175 0.13986182 C114.56638101 0.16077856 134.5467142 0.19596717 154.52705383 0.24050903 C154.52705383 2.88050903 154.52705383 5.52050903 154.52705383 8.24050903 C141.98705383 8.24050903 129.44705383 8.24050903 116.52705383 8.24050903 C116.19705383 11.21050903 115.86705383 14.18050903 115.52705383 17.24050903 C111.76017519 19.12394835 110.4974642 19.46108739 106.52705383 19.24050903 C107.18705383 17.92050903 107.84705383 16.60050903 108.52705383 15.24050903 C107.53705383 14.91050903 106.54705383 14.58050903 105.52705383 14.24050903 C103.88149684 15.46859995 103.88149684 15.46859995 102.52705383 17.24050903 C102.88453033 19.17176869 102.88453033 19.17176869 103.52705383 21.24050903 C103.22678267 22.9134484 102.89147616 24.58036288 102.52705383 26.24050903 C102.49002594 27.90676433 102.47945421 29.57452222 102.52705383 31.24050903 C98.56705383 31.73550903 98.56705383 31.73550903 94.52705383 32.24050903 C94.19705383 33.23050903 93.86705383 34.22050903 93.52705383 35.24050903 C91.52705383 36.24050903 89.52705383 37.24050903 87.52705383 38.24050903 C86.18191959 41.38111928 86.18191959 41.38111928 87.52705383 45.24050903 C101.38705383 45.73550903 101.38705383 45.73550903 115.52705383 46.24050903 C115.52705383 46.57050903 115.52705383 46.90050903 115.52705383 47.24050903 C87.47705383 47.24050903 59.42705383 47.24050903 30.52705383 47.24050903 C31.18705383 45.59050903 31.84705383 43.94050903 32.52705383 42.24050903 C38.79705383 42.24050903 45.06705383 42.24050903 51.52705383 42.24050903 C51.85705383 43.23050903 52.18705383 44.22050903 52.52705383 45.24050903 C56.15705383 45.24050903 59.78705383 45.24050903 63.52705383 45.24050903 C63.52705383 39.63050903 63.52705383 34.02050903 63.52705383 28.24050903 C65.50705383 28.24050903 67.48705383 28.24050903 69.52705383 28.24050903 C69.75550873 25.9968833 69.75550873 25.9968833 67.52705383 24.11550903 C66.53705383 23.18738403 66.53705383 23.18738403 65.52705383 22.24050903 C66.18705383 22.24050903 66.84705383 22.24050903 67.52705383 22.24050903 C67.79517883 21.29175903 68.06330383 20.34300903 68.33955383 19.36550903 C69.52705383 16.24050903 69.52705383 16.24050903 72.52705383 14.24050903 C72.52705383 13.58050903 72.52705383 12.92050903 72.52705383 12.24050903 C70.87705383 12.24050903 69.22705383 12.24050903 67.52705383 12.24050903 C65.90756373 14.81264038 65.48296632 15.91720062 65.90205383 18.99050903 C66.21142883 20.10425903 66.21142883 20.10425903 66.52705383 21.24050903 C64.21705383 22.23050903 61.90705383 23.22050903 59.52705383 24.24050903 C59.52705383 24.57050903 59.52705383 24.90050903 59.52705383 25.24050903 C58.59844543 25.25509155 57.66983704 25.26967407 56.71308899 25.28469849 C53.27238887 25.34570075 49.83249731 25.41983953 46.39228821 25.50296021 C44.90248812 25.53624366 43.41256089 25.564265 41.92256165 25.58694458 C39.78236131 25.62042974 37.64332964 25.67273692 35.50361633 25.72879028 C34.2153595 25.75497437 32.92710266 25.78115845 31.59980774 25.80813599 C30.58579895 25.95081909 29.57179016 26.0935022 28.52705383 26.24050903 C27.86705383 27.23050903 27.20705383 28.22050903 26.52705383 29.24050903 C24.36299133 29.75222778 24.36299133 29.75222778 21.90205383 29.92800903 C21.08478821 29.99375122 20.26752258 30.05949341 19.42549133 30.12722778 C18.48576477 30.183302 18.48576477 30.183302 17.52705383 30.24050903 C17.52705383 30.57050903 17.52705383 30.90050903 17.52705383 31.24050903 C12.55642263 32.15348211 8.49768504 32.15348211 3.52705383 31.24050903 C4.18705383 29.59050903 4.84705383 27.94050903 5.52705383 26.24050903 C4.86705383 25.58050903 4.20705383 24.92050903 3.52705383 24.24050903 C3.85705383 23.58050903 4.18705383 22.92050903 4.52705383 22.24050903 C8.86038717 22.24050903 13.1937205 22.24050903 17.52705383 22.24050903 C19.52814662 21.91380001 21.52821514 21.5807369 23.52705383 21.24050903 C23.52705383 20.91050903 23.52705383 20.58050903 23.52705383 20.24050903 C21.87705383 19.91050903 20.22705383 19.58050903 18.52705383 19.24050903 C19.84705383 18.25050903 21.16705383 17.26050903 22.52705383 16.24050903 C21.20705383 15.58050903 19.88705383 14.92050903 18.52705383 14.24050903 C22.81705383 14.24050903 27.10705383 14.24050903 31.52705383 14.24050903 C31.19705383 15.23050903 30.86705383 16.22050903 30.52705383 17.24050903 C31.18705383 18.23050903 31.84705383 19.22050903 32.52705383 20.24050903 C32.52705383 19.58050903 32.52705383 18.92050903 32.52705383 18.24050903 C33.18705383 17.58050903 33.84705383 16.92050903 34.52705383 16.24050903 C34.52705383 14.92050903 34.52705383 13.60050903 34.52705383 12.24050903 C34.52705383 8.24050903 34.52705383 8.24050903 36.52705383 6.24050903 C38.8498056 5.84003459 41.1844474 5.50079864 43.52705383 5.24050903 C43.52705383 4.91050903 43.52705383 4.58050903 43.52705383 4.24050903 C39.04845593 4.06487774 35.50121252 4.01965565 31.52705383 6.24050903 C31.19705383 7.23050903 30.86705383 8.22050903 30.52705383 9.24050903 C26.23705383 9.90050903 21.94705383 10.56050903 17.52705383 11.24050903 C17.52705383 12.23050903 17.52705383 13.22050903 17.52705383 14.24050903 C17.19705383 15.23050903 16.86705383 16.22050903 16.52705383 17.24050903 C11.90705383 17.57050903 7.28705383 17.90050903 2.52705383 18.24050903 C2.19705383 17.58050903 1.86705383 16.92050903 1.52705383 16.24050903 C-1.11294617 16.24050903 -3.75294617 16.24050903 -6.47294617 16.24050903 C-6.47294617 15.58050903 -6.47294617 14.92050903 -6.47294617 14.24050903 C-3.83294617 14.24050903 -1.19294617 14.24050903 1.52705383 14.24050903 C1.52705383 13.58050903 1.52705383 12.92050903 1.52705383 12.24050903 C3.50705383 11.91050903 5.48705383 11.58050903 7.52705383 11.24050903 C7.52705383 10.25050903 7.52705383 9.26050903 7.52705383 8.24050903 C3.56705383 7.91050903 -0.39294617 7.58050903 -4.47294617 7.24050903 C-4.14294617 6.25050903 -3.81294617 5.26050903 -3.47294617 4.24050903 C-10.40294617 4.24050903 -17.33294617 4.24050903 -24.47294617 4.24050903 C-24.47294617 3.91050903 -24.47294617 3.58050903 -24.47294617 3.24050903 C-23.42493835 3.19152466 -22.37693054 3.14254028 -21.29716492 3.09207153 C-19.91823263 3.0170276 -18.53932766 2.94148047 -17.16044617 2.86550903 C-16.4701532 2.83457153 -15.77986023 2.80363403 -15.06864929 2.77175903 C-9.42635907 2.44466974 -5.75481926 -0.00895692 0 0 Z M-5.47294617 18.24050903 C-2.83294617 18.24050903 -0.19294617 18.24050903 2.52705383 18.24050903 C2.52705383 18.57050903 2.52705383 18.90050903 2.52705383 19.24050903 C-0.11294617 19.24050903 -2.75294617 19.24050903 -5.47294617 19.24050903 C-5.47294617 18.91050903 -5.47294617 18.58050903 -5.47294617 18.24050903 Z M-15.47294617 20.24050903 C-14.81294617 20.24050903 -14.15294617 20.24050903 -13.47294617 20.24050903 C-13.13263367 21.44707153 -13.13263367 21.44707153 -12.78544617 22.67800903 C-12.35232117 23.52363403 -11.91919617 24.36925903 -11.47294617 25.24050903 C-8.92519311 26.13437067 -8.92519311 26.13437067 -6.47294617 26.24050903 C-6.47294617 25.58050903 -6.47294617 24.92050903 -6.47294617 24.24050903 C-3.50294617 24.24050903 -0.53294617 24.24050903 2.52705383 24.24050903 C2.19705383 25.23050903 1.86705383 26.22050903 1.52705383 27.24050903 C1.52705383 28.23050903 1.52705383 29.22050903 1.52705383 30.24050903 C-0.78294617 30.24050903 -3.09294617 30.24050903 -5.47294617 30.24050903 C-5.80294617 31.23050903 -6.13294617 32.22050903 -6.47294617 33.24050903 C-3.50294617 33.57050903 -0.53294617 33.90050903 2.52705383 34.24050903 C2.52705383 33.58050903 2.52705383 32.92050903 2.52705383 32.24050903 C5.16705383 32.24050903 7.80705383 32.24050903 10.52705383 32.24050903 C10.19705383 33.23050903 9.86705383 34.22050903 9.52705383 35.24050903 C1.60705383 35.73550903 1.60705383 35.73550903 -6.47294617 36.24050903 C-6.47294617 36.57050903 -6.47294617 36.90050903 -6.47294617 37.24050903 C-10.76294617 37.24050903 -15.05294617 37.24050903 -19.47294617 37.24050903 C-19.47294617 36.91050903 -19.47294617 36.58050903 -19.47294617 36.24050903 C-17.82294617 35.91050903 -16.17294617 35.58050903 -14.47294617 35.24050903 C-14.47294617 34.58050903 -14.47294617 33.92050903 -14.47294617 33.24050903 C-16.12294617 33.24050903 -17.77294617 33.24050903 -19.47294617 33.24050903 C-18.81294617 32.25050903 -18.15294617 31.26050903 -17.47294617 30.24050903 C-18.13294617 29.58050903 -18.79294617 28.92050903 -19.47294617 28.24050903 C-18.81294617 27.58050903 -18.15294617 26.92050903 -17.47294617 26.24050903 C-19.12294617 26.24050903 -20.77294617 26.24050903 -22.47294617 26.24050903 C-22.47294617 25.58050903 -22.47294617 24.92050903 -22.47294617 24.24050903 C-21.68919617 24.09613403 -20.90544617 23.95175903 -20.09794617 23.80300903 C-17.50873599 23.36251978 -17.50873599 23.36251978 -15.47294617 22.24050903 C-15.47294617 21.58050903 -15.47294617 20.92050903 -15.47294617 20.24050903 Z M-58.47294617 26.24050903 C-46.59294617 26.24050903 -34.71294617 26.24050903 -22.47294617 26.24050903 C-22.47294617 26.57050903 -22.47294617 26.90050903 -22.47294617 27.24050903 C-34.35294617 27.24050903 -46.23294617 27.24050903 -58.47294617 27.24050903 C-58.47294617 26.91050903 -58.47294617 26.58050903 -58.47294617 26.24050903 Z M-0.47294617 30.24050903 C1.52705383 31.24050903 1.52705383 31.24050903 1.52705383 31.24050903 Z " fill="#3E3E3E" transform="translate(58.47294616699219,183.75949096679688)"/>
<path d="M0 0 C70.29 0 140.58 0 213 0 C213 5.28 213 10.56 213 16 C142.71 16 72.42 16 0 16 C0 10.72 0 5.44 0 0 Z " fill="#6E5D5D" transform="translate(0,74)"/>
<path d="M0 0 C70.29 0 140.58 0 213 0 C213 4.95 213 9.9 213 15 C195.48721948 15.13295516 177.97442302 15.26348757 160.46160316 15.39115143 C152.32253762 15.45053838 144.18347903 15.51066792 136.04443359 15.57275391 C104.66834584 15.81162555 73.29191958 16.04575397 41.91483688 16.08811951 C39.44161051 16.0918168 36.96838591 16.0971065 34.49516678 16.10414124 C22.94154014 16.13447959 11.50577993 16.15365593 0 15 C0 10.05 0 5.1 0 0 Z " fill="#5D2E2C" transform="translate(0,42)"/>
<path d="M0 0 C3.63 0 7.26 0 11 0 C11 2.31 11 4.62 11 7 C9.02 7.66 7.04 8.32 5 9 C5.57344937 11.86724686 5.8614515 12.8614515 8 15 C7.835 15.598125 7.67 16.19625 7.5 16.8125 C6.81672771 19.80181626 7.76935349 21.21485263 9 24 C10.08895753 27.65121053 11.07585287 31.30341148 12 35 C-1.53 35 -15.06 35 -29 35 C-28.67 34.01 -28.34 33.02 -28 32 C-30.69664208 30.65167896 -32.86587521 30.83089318 -35.875 30.8125 C-36.92429687 30.79832031 -37.97359375 30.78414062 -39.0546875 30.76953125 C-41.93547071 30.99495063 -43.56240208 31.51035683 -46 33 C-46 33.33 -46 33.66 -46 34 C-48.31 34 -50.62 34 -53 34 C-53.33 35.98 -53.66 37.96 -54 40 C-76.11 40 -98.22 40 -121 40 C-121 32.08 -121 24.16 -121 16 C-118.48246094 15.93941406 -115.96492188 15.87882813 -113.37109375 15.81640625 C-110.91525672 15.75448263 -108.45945973 15.69115077 -106.00366211 15.62768555 C-104.30545665 15.5845478 -102.60721371 15.54285916 -100.90893555 15.50268555 C-98.45870702 15.44446656 -96.00866353 15.38092497 -93.55859375 15.31640625 C-92.43160316 15.29133751 -92.43160316 15.29133751 -91.28184509 15.26576233 C-86.77821716 15.14104202 -82.44838062 14.72045819 -78 14 C-78.04125 15.0725 -78.0825 16.145 -78.125 17.25 C-78.0114175 20.65747485 -77.78726636 22.20739631 -76 25 C-74.02 25 -72.04 25 -70 25 C-70 24.67 -70 24.34 -70 24 C-66.37 23.67 -62.74 23.34 -59 23 C-59 22.67 -59 22.34 -59 22 C-57.906875 21.896875 -56.81375 21.79375 -55.6875 21.6875 C-52.09450018 21.37726436 -52.09450018 21.37726436 -50.5 19.5 C-48.09331731 17.09331731 -45.27068194 17.3085549 -42 17 C-42 16.67 -42 16.34 -42 16 C-38.535 15.505 -38.535 15.505 -35 15 C-35 14.67 -35 14.34 -35 14 C-33.6682373 13.970271 -33.6682373 13.970271 -32.30957031 13.93994141 C-29.00688666 13.86171768 -25.70464936 13.77502115 -22.40234375 13.68261719 C-20.97469602 13.64439976 -19.54695437 13.60953428 -18.11914062 13.578125 C-16.06346132 13.53231599 -14.00842446 13.4743502 -11.953125 13.4140625 C-10.71723633 13.3826416 -9.48134766 13.3512207 -8.20800781 13.31884766 C-5.21721197 13.02158895 -3.45273667 12.69582005 -1 11 C0.20803458 7.37589626 0.08821685 3.79332445 0 0 Z M-31 31 C-30.34 31.66 -29.68 32.32 -29 33 C-29.66 33 -30.32 33 -31 33 C-31 32.34 -31 31.68 -31 31 Z M-42 33 C-38.37 33 -34.74 33 -31 33 C-31 33.33 -31 33.66 -31 34 C-34.63 34 -38.26 34 -42 34 C-42 33.67 -42 33.34 -42 33 Z " fill="#3F3F3F" transform="translate(121,195)"/>
<path d="M0 0 C70.29 0 140.58 0 213 0 C213 3.63 213 7.26 213 11 C142.71 11 72.42 11 0 11 C0 7.37 0 3.74 0 0 Z " fill="#7C5B5A" transform="translate(0,31)"/>
<path d="M0 0 C24.42 0 48.84 0 74 0 C74 0.33 74 0.66 74 1 C59.48 1.33 44.96 1.66 30 2 C29.67 2.66 29.34 3.32 29 4 C32.63 4.33 36.26 4.66 40 5 C39.01 5.66 38.02 6.32 37 7 C36.67 7.66 36.34 8.32 36 9 C35.34 9.99 34.68 10.98 34 12 C34.99 12.99 34.99 12.99 36 14 C35.46375 14.53625 34.9275 15.0725 34.375 15.625 C33.92125 16.40875 33.4675 17.1925 33 18 C33.6288189 20.01222047 34.29618843 22.01276732 35 24 C34.125 26.375 34.125 26.375 33 28 C34.15811388 26.94729537 34.15811388 26.94729537 35 25 C36.65 25 38.3 25 40 25 C39.34 26.32 38.68 27.64 38 29 C38.99 29 39.98 29 41 29 C40.505 28.01 40.505 28.01 40 27 C40.99 27 41.98 27 43 27 C43 26.34 43 25.68 43 25 C45.35953094 22.64046906 46.77895617 22.50858587 50 22 C49.01 20.515 49.01 20.515 48 19 C44.37 19.33 40.74 19.66 37 20 C36.67 18.35 36.34 16.7 36 15 C37.65 15 39.3 15 41 15 C41 14.34 41 13.68 41 13 C45.95 13 50.9 13 56 13 C56.9057823 17.52891152 56.93613039 18.83942048 56 23 C55.9629721 24.6662553 55.95240038 26.33401319 56 28 C52.04 28.495 52.04 28.495 48 29 C47.505 30.485 47.505 30.485 47 32 C45 33 43 34 41 35 C39.65486576 38.14061025 39.65486576 38.14061025 41 42 C54.86 42.495 54.86 42.495 69 43 C69 43.33 69 43.66 69 44 C40.95 44 12.9 44 -16 44 C-15.34 42.35 -14.68 40.7 -14 39 C-7.73 39 -1.46 39 5 39 C5.33 39.99 5.66 40.98 6 42 C9.63 42 13.26 42 17 42 C17 36.39 17 30.78 17 25 C18.98 25 20.96 25 23 25 C23.2284549 22.75637427 23.2284549 22.75637427 21 20.875 C20.34 20.25625 19.68 19.6375 19 19 C19.66 19 20.32 19 21 19 C21.268125 18.05125 21.53625 17.1025 21.8125 16.125 C23 13 23 13 26 11 C26 10.34 26 9.68 26 9 C24.35 9 22.7 9 21 9 C19.38050989 11.57213134 18.95591249 12.67669159 19.375 15.75 C19.58125 16.4925 19.7875 17.235 20 18 C17.69 18.99 15.38 19.98 13 21 C13 21.33 13 21.66 13 22 C12.0713916 22.01458252 11.1427832 22.02916504 10.18603516 22.04418945 C6.74533504 22.10519172 3.30544348 22.1793305 -0.13476562 22.26245117 C-1.62456572 22.29573463 -3.11449295 22.32375597 -4.60449219 22.34643555 C-6.74469252 22.37992071 -8.88372419 22.43222789 -11.0234375 22.48828125 C-12.31169434 22.51446533 -13.59995117 22.54064941 -14.92724609 22.56762695 C-15.94125488 22.71031006 -16.95526367 22.85299316 -18 23 C-18.66 23.99 -19.32 24.98 -20 26 C-22.1640625 26.51171875 -22.1640625 26.51171875 -24.625 26.6875 C-25.44226563 26.75324219 -26.25953125 26.81898438 -27.1015625 26.88671875 C-28.04128906 26.94279297 -28.04128906 26.94279297 -29 27 C-29 27.33 -29 27.66 -29 28 C-33.97063121 28.91297308 -38.02936879 28.91297308 -43 28 C-42.34 26.35 -41.68 24.7 -41 23 C-41.66 22.34 -42.32 21.68 -43 21 C-42.67 20.34 -42.34 19.68 -42 19 C-37.66666667 19 -33.33333333 19 -29 19 C-26.99890722 18.67329097 -24.99883869 18.34022786 -23 18 C-23 17.67 -23 17.34 -23 17 C-24.65 16.67 -26.3 16.34 -28 16 C-26.68 15.01 -25.36 14.02 -24 13 C-25.32 12.34 -26.64 11.68 -28 11 C-23.71 11 -19.42 11 -15 11 C-15.33 11.99 -15.66 12.98 -16 14 C-15.01 15.485 -15.01 15.485 -14 17 C-14 16.34 -14 15.68 -14 15 C-9.71 15 -5.42 15 -1 15 C-0.505 17.475 -0.505 17.475 0 20 C1.17261726 18.97366118 1.17261726 18.97366118 1.6875 17 C3 15 3 15 6.125 14.25 C7.07375 14.1675 8.0225 14.085 9 14 C9 12.35 9 10.7 9 9 C10.32 9 11.64 9 13 9 C13.33 7.02 13.66 5.04 14 3 C14.66 3 15.32 3 16 3 C16 2.34 16 1.68 16 1 C10.72 1 5.44 1 0 1 C0 0.67 0 0.34 0 0 Z M39 31 C39 31.66 39 32.32 39 33 C39.99 32.67 40.98 32.34 42 32 C41.01 31.67 40.02 31.34 39 31 Z M-62 17 C-61.34 17 -60.68 17 -60 17 C-59.6596875 18.2065625 -59.6596875 18.2065625 -59.3125 19.4375 C-58.879375 20.283125 -58.44625 21.12875 -58 22 C-55.45224694 22.89386164 -55.45224694 22.89386164 -53 23 C-53 22.34 -53 21.68 -53 21 C-50.03 21 -47.06 21 -44 21 C-44.33 21.99 -44.66 22.98 -45 24 C-45 24.99 -45 25.98 -45 27 C-47.31 27 -49.62 27 -52 27 C-52.33 27.99 -52.66 28.98 -53 30 C-50.03 30.33 -47.06 30.66 -44 31 C-44 30.34 -44 29.68 -44 29 C-41.36 29 -38.72 29 -36 29 C-36.33 29.99 -36.66 30.98 -37 32 C-44.92 32.495 -44.92 32.495 -53 33 C-53 33.33 -53 33.66 -53 34 C-57.29 34 -61.58 34 -66 34 C-66 33.67 -66 33.34 -66 33 C-64.35 32.67 -62.7 32.34 -61 32 C-61 31.34 -61 30.68 -61 30 C-62.65 30 -64.3 30 -66 30 C-65.34 29.01 -64.68 28.02 -64 27 C-64.66 26.34 -65.32 25.68 -66 25 C-65.34 24.34 -64.68 23.68 -64 23 C-65.65 23 -67.3 23 -69 23 C-69 22.34 -69 21.68 -69 21 C-68.21625 20.855625 -67.4325 20.71125 -66.625 20.5625 C-64.03578982 20.12201075 -64.03578982 20.12201075 -62 19 C-62 18.34 -62 17.68 -62 17 Z M35 21 C36.65 21 38.3 21 40 21 C38.02 21.99 38.02 21.99 36 23 C35.67 22.34 35.34 21.68 35 21 Z M-105 23 C-93.12 23 -81.24 23 -69 23 C-69 23.33 -69 23.66 -69 24 C-80.88 24 -92.76 24 -105 24 C-105 23.67 -105 23.34 -105 23 Z M-47 27 C-45 28 -45 28 -45 28 Z " fill="#030302" transform="translate(105,187)"/>
<path d="M0 0 C70.29 0 140.58 0 213 0 C213 2.31 213 4.62 213 7 C171.98758085 8.47084193 130.96248936 7.93221677 89.93460667 7.62664449 C80.10315803 7.55368764 70.27166236 7.48839431 60.44015729 7.42356598 C40.29337768 7.29055674 20.14667115 7.14848323 0 7 C0 4.69 0 2.38 0 0 Z " fill="#674A49" transform="translate(0,108)"/>
<path d="M0 0 C70.29 0 140.58 0 213 0 C213 2.31 213 4.62 213 7 C195.48722024 7.13304939 177.97442297 7.26348757 160.46160316 7.39115143 C152.32253762 7.45053838 144.18347903 7.51066792 136.04443359 7.57275391 C104.66834584 7.81162555 73.29191958 8.04575397 41.91483688 8.08811951 C39.44161051 8.0918168 36.96838591 8.0971065 34.49516678 8.10414124 C10.61290821 8.166853 10.61290821 8.166853 0 7 C0 4.69 0 2.38 0 0 Z " fill="#723431" transform="translate(0,50)"/>
<path d="M0 0 C70.29 0 140.58 0 213 0 C213 2.31 213 4.62 213 7 C142.71 7 72.42 7 0 7 C0 4.69 0 2.38 0 0 Z " fill="#8F8584" transform="translate(0,157)"/>
<path d="M0 0 C70.29 0 140.58 0 213 0 C213 2.31 213 4.62 213 7 C142.71 7 72.42 7 0 7 C0 4.69 0 2.38 0 0 Z " fill="#7F7575" transform="translate(0,125)"/>
<path d="M0 0 C70.29 0 140.58 0 213 0 C213 2.31 213 4.62 213 7 C142.71 7 72.42 7 0 7 C0 4.69 0 2.38 0 0 Z " fill="#765554" transform="translate(0,24)"/>
<path d="M0 0 C70.29 0 140.58 0 213 0 C213 2.31 213 4.62 213 7 C142.71 7 72.42 7 0 7 C0 4.69 0 2.38 0 0 Z " fill="#7A6362" transform="translate(0,67)"/>
<path d="M0 0 C26.59051292 -0.02336288 53.1810243 -0.04099585 79.77154541 -0.05181217 C92.11804548 -0.05696792 104.46453918 -0.0639969 116.81103516 -0.07543945 C127.57253556 -0.0854083 138.33403134 -0.09185868 149.09553623 -0.09408849 C154.79336176 -0.09539185 160.49117407 -0.09845407 166.18899536 -0.10573006 C171.55361604 -0.11252496 176.91821807 -0.11460988 182.28284264 -0.11310768 C184.25002837 -0.11338245 186.21721474 -0.11536696 188.18439674 -0.11920547 C190.87474428 -0.12419692 193.56502186 -0.12297821 196.25537109 -0.12025452 C197.4168836 -0.12462378 197.4168836 -0.12462378 198.601861 -0.12908131 C203.48294763 -0.11576877 208.16651026 0.31071553 213 1 C213 2.98 213 4.96 213 7 C142.71 7 72.42 7 0 7 C0 4.69 0 2.38 0 0 Z " fill="#754B48" transform="translate(0,17)"/>
<path d="M0 0 C5.55456873 0.00377071 11.10911963 0.00241097 16.66368771 -0.00180268 C84.90095617 -0.05239157 84.90095617 -0.05239157 113.64366817 1.12856841 C113.64366817 3.10856841 113.64366817 5.08856841 113.64366817 7.12856841 C43.35366817 7.12856841 -26.93633183 7.12856841 -99.35633183 7.12856841 C-99.35633183 5.14856841 -99.35633183 3.16856841 -99.35633183 1.12856841 C-66.25347313 -0.23153816 -33.12353885 -0.02512728 0 0 Z " fill="#6C4948" transform="translate(99.35633182525635,100.87143158912659)"/>
<path d="M0 0 C-0.04125 0.9075 -0.0825 1.815 -0.125 2.75 C-0.00468444 5.8782046 0.3914708 7.38614006 2 10 C3.98 10 5.96 10 8 10 C8 9.67 8 9.34 8 9 C13.61 9 19.22 9 25 9 C25 9.33 25 9.66 25 10 C22.69 10 20.38 10 18 10 C19.1695169 11.40089543 19.1695169 11.40089543 22.4375 11.0625 C23.613125 11.041875 24.78875 11.02125 26 11 C26.66 11 27.32 11 28 11 C28 10.34 28 9.68 28 9 C29.65 9 31.3 9 33 9 C33 8.01 33 7.02 33 6 C36.3 6 39.6 6 43 6 C44.07525194 8.65228812 45.09456151 11.28368454 46 14 C41.71 14 37.42 14 33 14 C33 14.66 33 15.32 33 16 C31.08364783 16.05423638 29.16685075 16.09289963 27.25 16.125 C26.18265625 16.14820313 25.1153125 16.17140625 24.015625 16.1953125 C21.07529894 16.00487687 19.47638122 15.52670104 17 14 C17.495 16.97 17.495 16.97 18 20 C-2.13 20 -22.26 20 -43 20 C-43 13.73 -43 7.46 -43 1 C-40.43605469 0.93941406 -37.87210938 0.87882813 -35.23046875 0.81640625 C-32.74826138 0.75460421 -30.26609906 0.69122175 -27.78393555 0.62768555 C-26.05839035 0.58436438 -24.33280307 0.54268727 -22.60717773 0.50268555 C-20.12731236 0.44491474 -17.64765828 0.38123997 -15.16796875 0.31640625 C-14.39599655 0.29969376 -13.62402435 0.28298126 -12.82865906 0.26576233 C-0.26434782 -0.08203898 -0.26434782 -0.08203898 0 0 Z M10 12 C10 12.33 10 12.66 10 13 C12.64 13 15.28 13 18 13 C18 12.67 18 12.34 18 12 C15.36 12 12.72 12 10 12 Z " fill="#7E7E7E" transform="translate(43,210)"/>
<path d="M0 0 C53.46 0 106.92 0 162 0 C162 1.65 162 3.3 162 5 C108.87 5.33 55.74 5.66 1 6 C0.67 6.66 0.34 7.32 0 8 C-8.415 8.495 -8.415 8.495 -17 9 C-17.33 9.66 -17.66 10.32 -18 11 C-28.89 11 -39.78 11 -51 11 C-51 8.69 -51 6.38 -51 4 C-39.45 4 -27.9 4 -16 4 C-16 4.66 -16 5.32 -16 6 C-15.34 5.67 -14.68 5.34 -14 5 C-11.18056784 4.68672976 -8.36021918 4.48970036 -5.53125 4.28125 C-3.00925996 4.14867388 -3.00925996 4.14867388 -1 3 C-0.67 2.01 -0.34 1.02 0 0 Z " fill="#8A8989" transform="translate(51,179)"/>
<path d="M0 0 C70.29 0 140.58 0 213 0 C213 1.98 213 3.96 213 6 C190.83912351 6.0235648 168.67824915 6.04109316 146.51736259 6.05181217 C136.22315929 6.0569258 125.92896386 6.06387197 115.63476562 6.07543945 C106.641887 6.08553967 97.64901409 6.09188907 88.65612996 6.09408849 C83.91308898 6.09537015 79.1700643 6.098288 74.42702866 6.10573006 C49.60107136 6.14320002 24.81372055 5.79356696 0 5 C0 3.35 0 1.7 0 0 Z " fill="#624544" transform="translate(0,12)"/>
<path d="M0 0 C70.29 0 140.58 0 213 0 C213 1.65 213 3.3 213 5 C142.01708891 6.45776639 70.97987101 6.77025945 0 5 C0 3.35 0 1.7 0 0 Z " fill="#665D5D" transform="translate(0,132)"/>
<path d="M0 0 C70.29 0 140.58 0 213 0 C213 1.65 213 3.3 213 5 C141.98782407 6.36569266 71.01260813 6.31511682 0 5 C0 3.35 0 1.7 0 0 Z " fill="#5F3E3D" transform="translate(0,0)"/>
<path d="M0 0 C70.29 0 140.58 0 213 0 C213 1.65 213 3.3 213 5 C190.81261798 5.20228617 168.62512517 5.38899175 146.4375 5.5625 C145.62364303 5.56888284 144.80978605 5.57526568 143.97126675 5.58184195 C63.42778101 6.21180036 63.42778101 6.21180036 26.625 5.5625 C25.89754955 5.54968616 25.17009911 5.53687233 24.42060471 5.5236702 C16.27972881 5.37788282 8.13951295 5.20908068 0 5 C0 3.35 0 1.7 0 0 Z " fill="#624E4D" transform="translate(0,74)"/>
<path d="M0 0 C70.29 0 140.58 0 213 0 C213 1.65 213 3.3 213 5 C142.71 5 72.42 5 0 5 C0 3.35 0 1.7 0 0 Z " fill="#61504F" transform="translate(0,152)"/>
<path d="M0 0 C70.29 0 140.58 0 213 0 C213 1.65 213 3.3 213 5 C142.71 5 72.42 5 0 5 C0 3.35 0 1.7 0 0 Z " fill="#604A49" transform="translate(0,90)"/>
<path d="M0 0 C70.29 0 140.58 0 213 0 C213 1.65 213 3.3 213 5 C142.71 5 72.42 5 0 5 C0 3.35 0 1.7 0 0 Z " fill="#9D9393" transform="translate(0,147)"/>
<path d="M0 0 C70.29 0 140.58 0 213 0 C213 1.65 213 3.3 213 5 C193.43750786 5.03101975 173.8750125 5.05110921 154.3125 5.0625 C153.58800282 5.0629343 152.86350563 5.06336861 152.11705399 5.06381607 C112.90868335 5.08668478 73.70574866 5.01739842 34.5 4.5 C33.59315586 4.48804218 32.68631172 4.47608437 31.75198746 4.46376419 C21.1677726 4.32300203 10.58379028 4.16985184 0 4 C0 2.68 0 1.36 0 0 Z " fill="#836766" transform="translate(0,79)"/>
<path d="M0 0 C1.63001953 0.01353516 1.63001953 0.01353516 3.29296875 0.02734375 C4.12441406 0.03894531 4.95585938 0.05054688 5.8125 0.0625 C5.8125 1.72916667 5.8125 3.39583333 5.8125 5.0625 C66.2025 5.5575 66.2025 5.5575 127.8125 6.0625 C127.8125 7.7125 127.8125 9.3625 127.8125 11.0625 C57.5225 11.0625 -12.7675 11.0625 -85.1875 11.0625 C-85.1875 10.7325 -85.1875 10.4025 -85.1875 10.0625 C-63.4075 9.7325 -41.6275 9.4025 -19.1875 9.0625 C-20.1775 7.5775 -20.1775 7.5775 -21.1875 6.0625 C-19.8675 6.0625 -18.5475 6.0625 -17.1875 6.0625 C-17.1875 5.4025 -17.1875 4.7425 -17.1875 4.0625 C-18.1775 3.4025 -19.1675 2.7425 -20.1875 2.0625 C-19.42824219 2.00191406 -18.66898437 1.94132813 -17.88671875 1.87890625 C-16.89285156 1.79511719 -15.89898437 1.71132812 -14.875 1.625 C-13.88886719 1.54378906 -12.90273437 1.46257812 -11.88671875 1.37890625 C-0.11308366 -0.00121595 -0.11308366 -0.00121595 0 0 Z " fill="#9C9B9B" transform="translate(85.1875,224.9375)"/>
<path d="M0 0 C13.2 0 26.4 0 40 0 C40 5.61 40 11.22 40 17 C18.8927007 17.19305457 -1.99263894 17.36941031 -23 15 C-23 14.01 -23 13.02 -23 12 C-19.04 12 -15.08 12 -11 12 C-11 11.34 -11 10.68 -11 10 C-13.97 10 -16.94 10 -20 10 C-19.34 8.02 -18.68 6.04 -18 4 C-15.36 4 -12.72 4 -10 4 C-10 3.34 -10 2.68 -10 2 C-7.03 2 -4.06 2 -1 2 C-0.67 1.34 -0.34 0.68 0 0 Z " fill="#3C3B3B" transform="translate(173,214)"/>
<path d="M0 0 C55.44 0 110.88 0 168 0 C168 1.65 168 3.3 168 5 C85.83 5.495 85.83 5.495 2 6 C1.67 6.66 1.34 7.32 1 8 C-1.31 8 -3.62 8 -6 8 C-5.34 6.35 -4.68 4.7 -4 3 C-3.01 3 -2.02 3 -1 3 C-0.67 2.01 -0.34 1.02 0 0 Z " fill="#939393" transform="translate(45,165)"/>
<path d="M0 0 C70.29 0 140.58 0 213 0 C213 0.33 213 0.66 213 1 C129.84 1.495 129.84 1.495 45 2 C44.67 2.66 44.34 3.32 44 4 C43.01 4 42.02 4 41 4 C41 4.66 41 5.32 41 6 C41.78375 6.28875 42.5675 6.5775 43.375 6.875 C46 8 46 8 48 10 C47.67 10.66 47.34 11.32 47 12 C31.49 12 15.98 12 0 12 C0 8.04 0 4.08 0 0 Z M46 6 C101.11 6 156.22 6 213 6 C213 6.33 213 6.66 213 7 C130.83 7.495 130.83 7.495 47 8 C46.67 7.34 46.34 6.68 46 6 Z " fill="#565656" transform="translate(0,164)"/>
<path d="M0 0 C6.1329699 0.00569648 12.26589633 0.00230866 18.39886475 -0.0034523 C50.23195031 -0.02856634 82.03862987 0.33324756 113.86181641 1.13037109 C113.86181641 2.12037109 113.86181641 3.11037109 113.86181641 4.13037109 C43.57181641 4.13037109 -26.71818359 4.13037109 -99.13818359 4.13037109 C-99.13818359 3.14037109 -99.13818359 2.15037109 -99.13818359 1.13037109 C-66.08934992 0.30254692 -33.05886637 -0.03105359 0 0 Z " fill="#6E6A6A" transform="translate(99.13818359375,120.86962890625)"/>
<path d="M0 0 C4.29 0 8.58 0 13 0 C12.01 0.66 11.02 1.32 10 2 C9.67 2.66 9.34 3.32 9 4 C8.34 4.99 7.68 5.98 7 7 C7.66 7.66 8.32 8.32 9 9 C8.46375 9.53625 7.9275 10.0725 7.375 10.625 C6.92125 11.40875 6.4675 12.1925 6 13 C6.6288189 15.01222047 7.29618843 17.01276732 8 19 C7.125 21.375 7.125 21.375 6 23 C7.15811388 21.94729537 7.15811388 21.94729537 8 20 C9.65 20 11.3 20 13 20 C12.34 21.32 11.68 22.64 11 24 C11.99 24 12.98 24 14 24 C13.505 23.01 13.505 23.01 13 22 C13.99 22 14.98 22 16 22 C16 21.34 16 20.68 16 20 C18.35953094 17.64046906 19.77895617 17.50858587 23 17 C22.01 15.515 22.01 15.515 21 14 C17.37 14.33 13.74 14.66 10 15 C9.505 12.525 9.505 12.525 9 10 C10.65 10 12.3 10 14 10 C14 9.34 14 8.68 14 8 C18.95 8 23.9 8 29 8 C29.9057823 12.52891152 29.93613039 13.83942048 29 18 C28.9629721 19.6662553 28.95240038 21.33401319 29 23 C25.04 23.495 25.04 23.495 21 24 C20.505 25.485 20.505 25.485 20 27 C18 28 16 29 14 30 C12.65486576 33.14061025 12.65486576 33.14061025 14 37 C27.86 37.495 27.86 37.495 42 38 C42 38.33 42 38.66 42 39 C13.95 39 -14.1 39 -43 39 C-42.34 37.35 -41.68 35.7 -41 34 C-34.73 34 -28.46 34 -22 34 C-21.67 34.99 -21.34 35.98 -21 37 C-17.37 37 -13.74 37 -10 37 C-10 31.39 -10 25.78 -10 20 C-8.02 20 -6.04 20 -4 20 C-3.7715451 17.75637427 -3.7715451 17.75637427 -6 15.875 C-6.66 15.25625 -7.32 14.6375 -8 14 C-7.34 14 -6.68 14 -6 14 C-5.731875 13.05125 -5.46375 12.1025 -5.1875 11.125 C-4 8 -4 8 -1 6 C-0.67 4.02 -0.34 2.04 0 0 Z M12 26 C12 26.66 12 27.32 12 28 C12.99 27.67 13.98 27.34 15 27 C14.01 26.67 13.02 26.34 12 26 Z M8 16 C9.65 16 11.3 16 13 16 C11.02 16.99 11.02 16.99 9 18 C8.67 17.34 8.34 16.68 8 16 Z " fill="#0B0A0A" transform="translate(132,192)"/>
<path d="M0 0 C7.26 0 14.52 0 22 0 C22 0.66 22 1.32 22 2 C26.29 2.33 30.58 2.66 35 3 C35 3.99 35 4.98 35 6 C29.72 6 24.44 6 19 6 C19 6.66 19 7.32 19 8 C16.525 7.01 16.525 7.01 14 6 C14 6.66 14 7.32 14 8 C13.34 8 12.68 8 12 8 C12 8.99 12 9.98 12 11 C13.32 11.33 14.64 11.66 16 12 C15.01 12 14.02 12 13 12 C13 12.66 13 13.32 13 14 C6.375 14.25 6.375 14.25 3 12 C3 12.66 3 13.32 3 14 C-8.88 14 -20.76 14 -33 14 C-33 10.04 -33 6.08 -33 2 C-22.11 2 -11.22 2 0 2 C0 1.34 0 0.68 0 0 Z " fill="#727272" transform="translate(33,188)"/>
<path d="M0 0 C70.29 0 140.58 0 213 0 C213 0.99 213 1.98 213 3 C141.97099382 4.05817291 71.02654041 4.28848211 0 3 C0 2.01 0 1.02 0 0 Z " fill="#584A4A" transform="translate(0,144)"/>
<path d="M0 0 C70.29 0 140.58 0 213 0 C213 0.99 213 1.98 213 3 C205.24101311 3.13537514 197.48195674 3.26580618 189.72280216 3.39115143 C186.11342042 3.44958858 182.50407228 3.50927569 178.89477539 3.57275391 C135.66446315 4.32969248 92.43813396 4.02296001 49.20635986 3.53643799 C43.6187141 3.47415249 38.03103531 3.41497398 32.44335938 3.35546875 C21.6288735 3.23987595 10.81442572 3.12108225 0 3 C0 2.01 0 1.02 0 0 Z " fill="#4F3130" transform="translate(0,24)"/>
<path d="M0 0 C70.29 0 140.58 0 213 0 C213 0.99 213 1.98 213 3 C142.71 3 72.42 3 0 3 C0 2.01 0 1.02 0 0 Z " fill="#A38C8A" transform="translate(0,105)"/>
<path d="M0 0 C70.29 0 140.58 0 213 0 C213 0.99 213 1.98 213 3 C142.71 3 72.42 3 0 3 C0 2.01 0 1.02 0 0 Z " fill="#A2807E" transform="translate(0,95)"/>
<path d="M0 0 C70.29 0 140.58 0 213 0 C213 0.99 213 1.98 213 3 C142.71 3 72.42 3 0 3 C0 2.01 0 1.02 0 0 Z " fill="#4C2726" transform="translate(0,50)"/>
<path d="M0 0 C70.29 0 140.58 0 213 0 C213 0.99 213 1.98 213 3 C142.71 3 72.42 3 0 3 C0 2.01 0 1.02 0 0 Z " fill="#9F7271" transform="translate(0,31)"/>
<path d="M0 0 C70.29 0 140.58 0 213 0 C213 0.99 213 1.98 213 3 C142.71 3 72.42 3 0 3 C0 2.01 0 1.02 0 0 Z " fill="#A38988" transform="translate(0,87)"/>
<path d="M0 0 C70.29 0 140.58 0 213 0 C213 0.99 213 1.98 213 3 C142.71 3 72.42 3 0 3 C0 2.01 0 1.02 0 0 Z " fill="#A38C8B" transform="translate(0,67)"/>
<path d="M0 0 C70.29 0 140.58 0 213 0 C213 0.99 213 1.98 213 3 C142.71 3 72.42 3 0 3 C0 2.01 0 1.02 0 0 Z " fill="#A7A09F" transform="translate(0,115)"/>
<path d="M0 0 C70.29 0 140.58 0 213 0 C213 0.99 213 1.98 213 3 C142.71 3 72.42 3 0 3 C0 2.01 0 1.02 0 0 Z " fill="#9E7270" transform="translate(0,5)"/>
<path d="M0 0 C70.29 0 140.58 0 213 0 C213 0.99 213 1.98 213 3 C142.71 3 72.42 3 0 3 C0 2.01 0 1.02 0 0 Z " fill="#A6A1A1" transform="translate(0,129)"/>
<path d="M0 0 C70.29 0 140.58 0 213 0 C213 0.99 213 1.98 213 3 C142.71 3 72.42 3 0 3 C0 2.01 0 1.02 0 0 Z " fill="#9F7C7A" transform="translate(0,47)"/>
<path d="M0 0 C70.29 0 140.58 0 213 0 C213 0.99 213 1.98 213 3 C142.71 3 72.42 3 0 3 C0 2.01 0 1.02 0 0 Z " fill="#A69F9F" transform="translate(0,137)"/>
<path d="M0 0 C26.59051292 -0.02336288 53.1810243 -0.04099585 79.77154541 -0.05181217 C92.11804548 -0.05696792 104.46453918 -0.0639969 116.81103516 -0.07543945 C127.57253556 -0.0854083 138.33403134 -0.09185868 149.09553623 -0.09408849 C154.79336176 -0.09539185 160.49117407 -0.09845407 166.18899536 -0.10573006 C171.55361604 -0.11252496 176.91821807 -0.11460988 182.28284264 -0.11310768 C184.25002837 -0.11338245 186.21721474 -0.11536696 188.18439674 -0.11920547 C190.87474428 -0.12419692 193.56502186 -0.12297821 196.25537109 -0.12025452 C197.4168836 -0.12462378 197.4168836 -0.12462378 198.601861 -0.12908131 C203.48294763 -0.11576877 208.16651026 0.31071553 213 1 C213 1.66 213 2.32 213 3 C142.71 3 72.42 3 0 3 C0 2.01 0 1.02 0 0 Z " fill="#9A6A68" transform="translate(0,17)"/>
<path d="M0 0 C34.98 0 69.96 0 106 0 C106 0.33 106 0.66 106 1 C141.31 1.33 176.62 1.66 213 2 C213 2.66 213 3.32 213 4 C142.71 4 72.42 4 0 4 C0 2.68 0 1.36 0 0 Z " fill="#705250" transform="translate(0,38)"/>
<path d="M0 0 C70.29 0 140.58 0 213 0 C213 0.99 213 1.98 213 3 C142.71 3 72.42 3 0 3 C0 2.01 0 1.02 0 0 Z " fill="#9C8887" transform="translate(0,57)"/>
<path d="M0 0 C1.9480957 0.00483398 1.9480957 0.00483398 3.93554688 0.00976562 C5.30729233 0.01812094 6.67903712 0.02658588 8.05078125 0.03515625 C9.4342432 0.0401729 10.81770688 0.04473552 12.20117188 0.04882812 C15.5885852 0.06063096 18.97591158 0.07709606 22.36328125 0.09765625 C22.03328125 1.41765625 21.70328125 2.73765625 21.36328125 4.09765625 C24.66328125 4.09765625 27.96328125 4.09765625 31.36328125 4.09765625 C32.36328125 10.84765625 32.36328125 10.84765625 32.36328125 13.09765625 C29.22829833 14.9554239 26.98856693 15.29906101 23.36328125 15.09765625 C24.02328125 13.77765625 24.68328125 12.45765625 25.36328125 11.09765625 C24.37328125 10.76765625 23.38328125 10.43765625 22.36328125 10.09765625 C22.03328125 10.42765625 21.70328125 10.75765625 21.36328125 11.09765625 C19.66171875 11.31421875 19.66171875 11.31421875 17.92578125 11.53515625 C14.32269128 11.74613176 14.32269128 11.74613176 12.36328125 14.09765625 C12.36328125 13.43765625 12.36328125 12.77765625 12.36328125 12.09765625 C9.72328125 12.09765625 7.08328125 12.09765625 4.36328125 12.09765625 C4.36328125 12.75765625 4.36328125 13.41765625 4.36328125 14.09765625 C7.00328125 14.42765625 9.64328125 14.75765625 12.36328125 15.09765625 C12.36328125 15.42765625 12.36328125 15.75765625 12.36328125 16.09765625 C8.40328125 16.59265625 8.40328125 16.59265625 4.36328125 17.09765625 C4.69328125 17.42765625 5.02328125 17.75765625 5.36328125 18.09765625 C7.70272861 17.8103557 10.03719555 17.47828846 12.36328125 17.09765625 C13.02328125 18.41765625 13.68328125 19.73765625 14.36328125 21.09765625 C13.70328125 22.08765625 13.04328125 23.07765625 12.36328125 24.09765625 C9.23828125 24.28515625 9.23828125 24.28515625 6.36328125 24.09765625 C6.36328125 26.07765625 6.36328125 28.05765625 6.36328125 30.09765625 C4.38328125 29.76765625 2.40328125 29.43765625 0.36328125 29.09765625 C0.03328125 27.77765625 -0.29671875 26.45765625 -0.63671875 25.09765625 C-1.29671875 25.42765625 -1.95671875 25.75765625 -2.63671875 26.09765625 C-2.63671875 26.75765625 -2.63671875 27.41765625 -2.63671875 28.09765625 C-4.94671875 28.09765625 -7.25671875 28.09765625 -9.63671875 28.09765625 C-10.32421875 25.78515625 -10.32421875 25.78515625 -10.63671875 23.09765625 C-9.26171875 21.59765625 -9.26171875 21.59765625 -7.63671875 20.09765625 C-7.51296875 19.25203125 -7.38921875 18.40640625 -7.26171875 17.53515625 C-7.05546875 16.73078125 -6.84921875 15.92640625 -6.63671875 15.09765625 C-4.07421875 13.78515625 -4.07421875 13.78515625 -1.63671875 13.09765625 C-3.28671875 12.76765625 -4.93671875 12.43765625 -6.63671875 12.09765625 C-6.63671875 10.44765625 -6.63671875 8.79765625 -6.63671875 7.09765625 C-5.18265625 7.12859375 -5.18265625 7.12859375 -3.69921875 7.16015625 C-0.7620598 7.45384124 -0.7620598 7.45384124 0.36328125 6.09765625 C-0.72984375 6.20078125 -1.82296875 6.30390625 -2.94921875 6.41015625 C-4.77453125 6.25546875 -4.77453125 6.25546875 -6.63671875 6.09765625 C-8.57421875 3.59765625 -8.57421875 3.59765625 -9.63671875 1.09765625 C-6.21920222 -0.04151593 -3.60183938 -0.01572856 0 0 Z M-1.63671875 20.09765625 C-1.30671875 20.75765625 -0.97671875 21.41765625 -0.63671875 22.09765625 C0.68328125 21.43765625 2.00328125 20.77765625 3.36328125 20.09765625 C1.71328125 20.09765625 0.06328125 20.09765625 -1.63671875 20.09765625 Z M2.36328125 30.09765625 C3.84828125 31.08765625 3.84828125 31.08765625 5.36328125 32.09765625 C4.37328125 32.09765625 3.38328125 32.09765625 2.36328125 32.09765625 C2.36328125 31.43765625 2.36328125 30.77765625 2.36328125 30.09765625 Z " fill="#403F3E" transform="translate(141.63671875,187.90234375)"/>
<path d="M0 0 C3.63 0 7.26 0 11 0 C11 2.31 11 4.62 11 7 C9.02 7.66 7.04 8.32 5 9 C5.57344937 11.86724686 5.8614515 12.8614515 8 15 C7.835 15.598125 7.67 16.19625 7.5 16.8125 C6.81672771 19.80181626 7.76935349 21.21485263 9 24 C10.08895753 27.65121053 11.07585287 31.30341148 12 35 C-1.53 35 -15.06 35 -29 35 C-28.67 33.35 -28.34 31.7 -28 30 C-28.66 28.68 -29.32 27.36 -30 26 C-19.605 25.505 -19.605 25.505 -9 25 C-9.52565835 18.68516016 -9.52565835 18.68516016 -11 16 C-11.99 15.67 -12.98 15.34 -14 15 C-14 15.66 -14 16.32 -14 17 C-17.10409821 17.16795811 -20.20828886 17.33414323 -23.3125 17.5 C-24.19357422 17.54769531 -25.07464844 17.59539062 -25.98242188 17.64453125 C-27.25375977 17.71220703 -27.25375977 17.71220703 -28.55078125 17.78125 C-29.33106689 17.82314453 -30.11135254 17.86503906 -30.9152832 17.90820312 C-34.75946813 18.07747512 -38.21686698 17.67255698 -42 17 C-42 16.67 -42 16.34 -42 16 C-38.535 15.505 -38.535 15.505 -35 15 C-35 14.67 -35 14.34 -35 14 C-33.6682373 13.970271 -33.6682373 13.970271 -32.30957031 13.93994141 C-29.00688666 13.86171768 -25.70464936 13.77502115 -22.40234375 13.68261719 C-20.97469602 13.64439976 -19.54695437 13.60953428 -18.11914062 13.578125 C-16.06346132 13.53231599 -14.00842446 13.4743502 -11.953125 13.4140625 C-10.71723633 13.3826416 -9.48134766 13.3512207 -8.20800781 13.31884766 C-5.21721197 13.02158895 -3.45273667 12.69582005 -1 11 C0.20803458 7.37589626 0.08821685 3.79332445 0 0 Z " fill="#A09F9F" transform="translate(121,195)"/>
<path d="M0 0 C1.07770157 0.0028299 2.15540314 0.00565979 3.26576233 0.00857544 C6.68900924 0.01972057 10.11198916 0.04481494 13.53515625 0.0703125 C15.8639285 0.08034961 18.19270487 0.08947418 20.52148438 0.09765625 C26.2136319 0.11964134 31.90562499 0.15306237 37.59765625 0.1953125 C37.59765625 1.8453125 37.59765625 3.4953125 37.59765625 5.1953125 C35.85693848 5.2250415 35.85693848 5.2250415 34.08105469 5.25537109 C29.77207891 5.33149162 25.46343797 5.42019916 21.15478516 5.51269531 C19.29059463 5.5509584 17.42633095 5.58581596 15.56201172 5.6171875 C12.88091909 5.66289606 10.20032892 5.72088072 7.51953125 5.78125 C6.687099 5.79280121 5.85466675 5.80435242 4.99700928 5.81625366 C0.93295295 5.919714 -1.80997598 6.15852157 -5.40234375 8.1953125 C-9.15234375 7.8203125 -9.15234375 7.8203125 -12.40234375 7.1953125 C-12.40234375 7.8553125 -12.40234375 8.5153125 -12.40234375 9.1953125 C-13.06234375 9.8553125 -13.72234375 10.5153125 -14.40234375 11.1953125 C-14.40234375 11.8553125 -14.40234375 12.5153125 -14.40234375 13.1953125 C-17.04234375 13.1953125 -19.68234375 13.1953125 -22.40234375 13.1953125 C-21.39398313 14.42798598 -21.39398313 14.42798598 -19.3359375 14.29296875 C-18.51222656 14.28136719 -17.68851563 14.26976562 -16.83984375 14.2578125 C-16.01355469 14.24878906 -15.18726563 14.23976562 -14.3359375 14.23046875 C-13.69785156 14.21886719 -13.05976563 14.20726562 -12.40234375 14.1953125 C-12.73234375 15.1646875 -13.06234375 16.1340625 -13.40234375 17.1328125 C-14.45407738 19.81680824 -14.45407738 19.81680824 -14.40234375 21.1953125 C-22.98234375 21.1953125 -31.56234375 21.1953125 -40.40234375 21.1953125 C-40.07234375 20.2053125 -39.74234375 19.2153125 -39.40234375 18.1953125 C-40.06234375 16.2153125 -40.72234375 14.2353125 -41.40234375 12.1953125 C-36.78234375 11.8653125 -32.16234375 11.5353125 -27.40234375 11.1953125 C-27.07234375 9.5453125 -26.74234375 7.8953125 -26.40234375 6.1953125 C-23.76234375 5.8653125 -21.12234375 5.5353125 -18.40234375 5.1953125 C-18.40234375 4.2053125 -18.40234375 3.2153125 -18.40234375 2.1953125 C-12.21036609 0.00097584 -6.52933639 -0.06507718 0 0 Z " fill="#939292" transform="translate(175.40234375,208.8046875)"/>
<path d="M0 0 C54.45 0 108.9 0 165 0 C165 0.99 165 1.98 165 3 C110.55 3 56.1 3 0 3 C0 2.01 0 1.02 0 0 Z M-2 3 C-1.01 3.33 -0.02 3.66 1 4 C0.01 4 -0.98 4 -2 4 C-2 3.67 -2 3.34 -2 3 Z M-3 5 C-1 6 -1 6 -1 6 Z " fill="#A6A6A6" transform="translate(48,171)"/>
<path d="M0 0 C53.79 0 107.58 0 163 0 C163 0.99 163 1.98 163 3 C108.88 3 54.76 3 -1 3 C-0.67 2.01 -0.34 1.02 0 0 Z M-3 3 C-2.01 3.33 -1.02 3.66 0 4 C-0.99 4 -1.98 4 -3 4 C-3 3.67 -3 3.34 -3 3 Z M-4 5 C-2 6 -2 6 -2 6 Z " fill="#A6A6A6" transform="translate(50,175)"/>
<path d="M0 0 C1.46982252 0.00838677 1.46982252 0.00838677 2.96933842 0.01694298 C13.19235526 0.07921662 23.41469917 0.18717926 33.63720703 0.3046875 C35.58058139 0.32656284 37.52395603 0.34841294 39.46733093 0.37023926 C58.66090646 0.58737147 77.85418013 0.82893962 97.04736328 1.078125 C97.04736328 1.738125 97.04736328 2.398125 97.04736328 3.078125 C26.75736328 3.078125 -43.53263672 3.078125 -115.95263672 3.078125 C-115.95263672 2.418125 -115.95263672 1.758125 -115.95263672 1.078125 C-24.43950938 -0.14166435 -24.43950938 -0.14166435 0 0 Z " fill="#887A79" transform="translate(115.95263671875,148.921875)"/>
<path d="M0 0 C1.04085251 0.00015106 2.08170502 0.00030212 3.15409851 0.00045776 C4.27605118 0.01078033 5.39800385 0.02110291 6.55395508 0.03173828 C7.70390457 0.03456818 8.85385406 0.03739807 10.03865051 0.04031372 C13.71703429 0.05152245 17.39517595 0.07662854 21.07348633 0.10205078 C23.56501927 0.11207967 26.05655603 0.12120568 28.5480957 0.12939453 C34.66080874 0.15146406 40.77338024 0.18494854 46.88598633 0.22705078 C46.88598633 0.88705078 46.88598633 1.54705078 46.88598633 2.22705078 C43.91598633 2.22705078 40.94598633 2.22705078 37.88598633 2.22705078 C37.88598633 2.88705078 37.88598633 3.54705078 37.88598633 4.22705078 C37.08161133 4.49517578 36.27723633 4.76330078 35.44848633 5.03955078 C34.60286133 5.43142578 33.75723633 5.82330078 32.88598633 6.22705078 C32.55598633 7.21705078 32.22598633 8.20705078 31.88598633 9.22705078 C27.59598633 9.88705078 23.30598633 10.54705078 18.88598633 11.22705078 C18.88598633 12.21705078 18.88598633 13.20705078 18.88598633 14.22705078 C18.55598633 15.21705078 18.22598633 16.20705078 17.88598633 17.22705078 C13.26598633 17.55705078 8.64598633 17.88705078 3.88598633 18.22705078 C3.55598633 17.56705078 3.22598633 16.90705078 2.88598633 16.22705078 C0.24598633 16.22705078 -2.39401367 16.22705078 -5.11401367 16.22705078 C-5.11401367 15.56705078 -5.11401367 14.90705078 -5.11401367 14.22705078 C-2.47401367 14.22705078 0.16598633 14.22705078 2.88598633 14.22705078 C2.88598633 13.56705078 2.88598633 12.90705078 2.88598633 12.22705078 C4.86598633 11.89705078 6.84598633 11.56705078 8.88598633 11.22705078 C8.88598633 10.23705078 8.88598633 9.24705078 8.88598633 8.22705078 C4.92598633 7.89705078 0.96598633 7.56705078 -3.11401367 7.22705078 C-2.78401367 6.23705078 -2.45401367 5.24705078 -2.11401367 4.22705078 C-9.04401367 4.22705078 -15.97401367 4.22705078 -23.11401367 4.22705078 C-23.11401367 3.89705078 -23.11401367 3.56705078 -23.11401367 3.22705078 C-22.06600586 3.17806641 -21.01799805 3.12908203 -19.93823242 3.07861328 C-18.55930014 3.00356935 -17.18039517 2.92802221 -15.80151367 2.85205078 C-15.1112207 2.82111328 -14.42092773 2.79017578 -13.7097168 2.75830078 C-8.51724781 2.45728809 -5.16960628 -0.02503441 0 0 Z M-4.11401367 18.22705078 C-1.47401367 18.22705078 1.16598633 18.22705078 3.88598633 18.22705078 C3.88598633 18.55705078 3.88598633 18.88705078 3.88598633 19.22705078 C1.24598633 19.22705078 -1.39401367 19.22705078 -4.11401367 19.22705078 C-4.11401367 18.89705078 -4.11401367 18.56705078 -4.11401367 18.22705078 Z " fill="#0F0F0E" transform="translate(57.114013671875,183.77294921875)"/>
<path d="M0 0 C70.29 0 140.58 0 213 0 C213 0.33 213 0.66 213 1 C129.84 1.495 129.84 1.495 45 2 C44.67 2.66 44.34 3.32 44 4 C41.26893489 4.91035504 39.70106761 5.12215713 36.89575195 5.11352539 C35.6648156 5.11341209 35.6648156 5.11341209 34.40901184 5.11329651 C33.0870002 5.10555458 33.0870002 5.10555458 31.73828125 5.09765625 C30.83248825 5.0962413 29.92669525 5.09482635 28.99345398 5.09336853 C26.09976909 5.08777001 23.20616151 5.07521781 20.3125 5.0625 C18.35091258 5.05748481 16.38932394 5.05292193 14.42773438 5.04882812 C9.61845979 5.03780107 4.809243 5.02053747 0 5 C0 3.35 0 1.7 0 0 Z " fill="#353535" transform="translate(0,164)"/>
<path d="M0 0 C1.8871875 0.0309375 1.8871875 0.0309375 3.8125 0.0625 C3.8125 1.0525 3.8125 2.0425 3.8125 3.0625 C6.1225 3.3925 8.4325 3.7225 10.8125 4.0625 C10.8125 6.3725 10.8125 8.6825 10.8125 11.0625 C9.1625 11.3925 7.5125 11.7225 5.8125 12.0625 C5.4825 13.0525 5.1525 14.0425 4.8125 15.0625 C0.5225 15.0625 -3.7675 15.0625 -8.1875 15.0625 C-8.1875 15.7225 -8.1875 16.3825 -8.1875 17.0625 C-10.0625 16.8125 -10.0625 16.8125 -12.1875 16.0625 C-13.4375 14 -13.4375 14 -14.1875 12.0625 C-15.1775 12.3925 -16.1675 12.7225 -17.1875 13.0625 C-16.5275 15.0425 -15.8675 17.0225 -15.1875 19.0625 C-17.8275 19.0625 -20.4675 19.0625 -23.1875 19.0625 C-23.1875 19.7225 -23.1875 20.3825 -23.1875 21.0625 C-25.1675 21.0625 -27.1475 21.0625 -29.1875 21.0625 C-29.1875 20.7325 -29.1875 20.4025 -29.1875 20.0625 C-31.4975 19.7325 -33.8075 19.4025 -36.1875 19.0625 C-36.5175 17.4125 -36.8475 15.7625 -37.1875 14.0625 C-32.7325 13.5675 -32.7325 13.5675 -28.1875 13.0625 C-28.1875 11.4125 -28.1875 9.7625 -28.1875 8.0625 C-25.5475 7.4025 -22.9075 6.7425 -20.1875 6.0625 C-20.1875 5.4025 -20.1875 4.7425 -20.1875 4.0625 C-19.15689453 3.98902344 -19.15689453 3.98902344 -18.10546875 3.9140625 C-16.75388672 3.80191406 -16.75388672 3.80191406 -15.375 3.6875 C-14.48167969 3.61789063 -13.58835937 3.54828125 -12.66796875 3.4765625 C-9.94351501 3.19604964 -9.94351501 3.19604964 -7.1875 1.0625 C-4.43671116 0.14557039 -2.82801087 -0.04636083 0 0 Z " fill="#B1AFAE" transform="translate(99.1875,186.9375)"/>
<path d="M0 0 C3.3 0 6.6 0 10 0 C10.495 1.485 10.495 1.485 11 3 C8.69 3.33 6.38 3.66 4 4 C2.609883 6.90876913 2.609883 6.90876913 2 10 C-20.80127986 10.20638953 -20.80127986 10.20638953 -30 9 C-30 8.67 -30 8.34 -30 8 C-25.545 7.505 -25.545 7.505 -21 7 C-24.3 6.67 -27.6 6.34 -31 6 C-32.00217064 9.58327753 -32.00217064 9.58327753 -31 13 C-33.64 13 -36.28 13 -39 13 C-39 12.67 -39 12.34 -39 12 C-41.31 12 -43.62 12 -46 12 C-46 11.34 -46 10.68 -46 10 C-43.69 10 -41.38 10 -39 10 C-39 9.34 -39 8.68 -39 8 C-40.98 8 -42.96 8 -45 8 C-45 7.67 -45 7.34 -45 7 C-43.906875 6.896875 -42.81375 6.79375 -41.6875 6.6875 C-38.07148068 6.42391622 -38.07148068 6.42391622 -36.75 4.46875 C-33.95467368 2.12267255 -30.78161394 2.68617372 -27.3125 2.8125 C-26.61060547 2.82603516 -25.90871094 2.83957031 -25.18554688 2.85351562 C-23.45670171 2.88879818 -21.72825235 2.94260417 -20 3 C-20 2.67 -20 2.34 -20 2 C-13.4 2 -6.8 2 0 2 C0 1.34 0 0.68 0 0 Z M-54 12 C-51.36 12 -48.72 12 -46 12 C-46 12.33 -46 12.66 -46 13 C-48.64 13 -51.28 13 -54 13 C-54 12.67 -54 12.34 -54 12 Z " fill="#626261" transform="translate(107,210)"/>
<path d="M0 0 C11.88 0 23.76 0 36 0 C36 2.64 36 5.28 36 8 C23.13 8 10.26 8 -3 8 C-2.34 7.67 -1.68 7.34 -1 7 C-1.33 5.68 -1.66 4.36 -2 3 C-1.34 3 -0.68 3 0 3 C0 2.01 0 1.02 0 0 Z " fill="#606060" transform="translate(177,223)"/>
<path d="M0 0 C3.3 0 6.6 0 10 0 C11.07525194 2.65228812 12.09456151 5.28368454 13 8 C8.71 8 4.42 8 0 8 C0 8.66 0 9.32 0 10 C-1.91635217 10.05423638 -3.83314925 10.09289963 -5.75 10.125 C-7.35101563 10.15980469 -7.35101563 10.15980469 -8.984375 10.1953125 C-11.92470106 10.00487687 -13.52361878 9.52670104 -16 8 C-15.67 9.98 -15.34 11.96 -15 14 C-22.26 14 -29.52 14 -37 14 C-37 11.03 -37 8.06 -37 5 C-31.06 4.505 -31.06 4.505 -25 4 C-25 3.67 -25 3.34 -25 3 C-19.39 3 -13.78 3 -8 3 C-8 3.33 -8 3.66 -8 4 C-10.31 4 -12.62 4 -15 4 C-13.8304831 5.40089543 -13.8304831 5.40089543 -10.5625 5.0625 C-8.7990625 5.0315625 -8.7990625 5.0315625 -7 5 C-6.34 5 -5.68 5 -5 5 C-5 4.34 -5 3.68 -5 3 C-3.35 3 -1.7 3 0 3 C0 2.01 0 1.02 0 0 Z M-23 6 C-23 6.33 -23 6.66 -23 7 C-20.36 7 -17.72 7 -15 7 C-15 6.67 -15 6.34 -15 6 C-17.64 6 -20.28 6 -23 6 Z " fill="#A8A7A6" transform="translate(76,216)"/>
<path d="M0 0 C1.60279192 0.00015914 3.20558896 0.00585476 4.80834961 0.01586914 C5.65038437 0.01728409 6.49241913 0.01869904 7.35997009 0.02015686 C10.06024671 0.02577276 12.76044163 0.03832791 15.46069336 0.05102539 C17.28686404 0.05603834 19.11303602 0.06060161 20.93920898 0.06469727 C25.42556878 0.07574735 29.9118672 0.0930226 34.39819336 0.11352539 C34.39819336 2.42352539 34.39819336 4.73352539 34.39819336 7.11352539 C21.52819336 7.11352539 8.65819336 7.11352539 -4.60180664 7.11352539 C-4.93180664 6.45352539 -5.26180664 5.79352539 -5.60180664 5.11352539 C-4.94180664 5.11352539 -4.28180664 5.11352539 -3.60180664 5.11352539 C-3.88024414 4.15446289 -3.88024414 4.15446289 -4.16430664 3.17602539 C-4.38086914 2.15508789 -4.38086914 2.15508789 -4.60180664 1.11352539 C-3.60180664 0.11352539 -3.60180664 0.11352539 0 0 Z M-6.60180664 7.11352539 C-4.60180664 8.11352539 -4.60180664 8.11352539 -4.60180664 8.11352539 Z " fill="#909090" transform="translate(178.601806640625,214.886474609375)"/>
<path d="M0 0 C1.8871875 0.0309375 1.8871875 0.0309375 3.8125 0.0625 C3.8125 0.7225 3.8125 1.3825 3.8125 2.0625 C3.1525 2.0625 2.4925 2.0625 1.8125 2.0625 C0.70512245 8.1069575 0.70512245 8.1069575 1.8125 14.0625 C-0.4975 14.0625 -2.8075 14.0625 -5.1875 14.0625 C-5.5175 14.7225 -5.8475 15.3825 -6.1875 16.0625 C-6.5175 15.7325 -6.8475 15.4025 -7.1875 15.0625 C-7.5175 16.0525 -7.8475 17.0425 -8.1875 18.0625 C-9.1775 18.0625 -10.1675 18.0625 -11.1875 18.0625 C-11.1875 18.7225 -11.1875 19.3825 -11.1875 20.0625 C-16.1375 20.0625 -21.0875 20.0625 -26.1875 20.0625 C-25.8575 18.4125 -25.5275 16.7625 -25.1875 15.0625 C-21.2275 15.0625 -17.2675 15.0625 -13.1875 15.0625 C-13.1875 14.4025 -13.1875 13.7425 -13.1875 13.0625 C-16.8175 13.0625 -20.4475 13.0625 -24.1875 13.0625 C-24.1875 10.0925 -24.1875 7.1225 -24.1875 4.0625 C-18.2475 4.0625 -12.3075 4.0625 -6.1875 4.0625 C-6.5175 3.0725 -6.8475 2.0825 -7.1875 1.0625 C-4.43671116 0.14557039 -2.82801087 -0.04636083 0 0 Z " fill="#373636" transform="translate(117.1875,187.9375)"/>
<path d="M0 0 C24.42 0 48.84 0 74 0 C74 0.33 74 0.66 74 1 C72.03208496 0.99830811 72.03208496 0.99830811 70.02441406 0.99658203 C65.15613565 1.00025343 60.28885009 1.04304539 55.42089844 1.09765625 C53.31419263 1.1158231 51.20736754 1.12338352 49.10058594 1.12011719 C46.07132568 1.11726209 43.04454243 1.15255567 40.015625 1.1953125 C39.07382385 1.18621857 38.13202271 1.17712463 37.16168213 1.16775513 C34.63165757 1.22397339 32.43853882 1.32051999 30 2 C27.480123 4.86853678 27.480123 4.86853678 26 8 C23.375 8.625 23.375 8.625 21 9 C19.48382093 10.69863938 19.48382093 10.69863938 19 13 C19.30378052 15.68993053 19.30378052 15.68993053 20 18 C18.02 18.66 16.04 19.32 14 20 C13.67 19.01 13.34 18.02 13 17 C12.01 17 11.02 17 10 17 C10 17.66 10 18.32 10 19 C8.35 18.67 6.7 18.34 5 18 C5.66 17.67 6.32 17.34 7 17 C7 16.34 7 15.68 7 15 C7.66 14.34 8.32 13.68 9 13 C9 11.68 9 10.36 9 9 C10.32 9 11.64 9 13 9 C13.33 7.02 13.66 5.04 14 3 C14.66 3 15.32 3 16 3 C16 2.34 16 1.68 16 1 C10.72 1 5.44 1 0 1 C0 0.67 0 0.34 0 0 Z M8.25 19.875 C9.11625 20.431875 9.11625 20.431875 10 21 C7.36 21 4.72 21 2 21 C5.44615385 18.78461538 5.44615385 18.78461538 8.25 19.875 Z " fill="#201E1D" transform="translate(105,187)"/>
<path d="M0 0 C3.96 0 7.92 0 12 0 C12 1.65 12 3.3 12 5 C11.34 5 10.68 5 10 5 C10.33 6.32 10.66 7.64 11 9 C13.64 9.33 16.28 9.66 19 10 C19 10.33 19 10.66 19 11 C16.36 11.33 13.72 11.66 11 12 C11.33 12.33 11.66 12.66 12 13 C14.33944736 12.71269945 16.6739143 12.38063221 19 12 C19.66 13.32 20.32 14.64 21 16 C20.34 16.99 19.68 17.98 19 19 C15.875 19.1875 15.875 19.1875 13 19 C13 20.98 13 22.96 13 25 C11.02 24.67 9.04 24.34 7 24 C6.67 22.68 6.34 21.36 6 20 C5.34 20.33 4.68 20.66 4 21 C4 21.66 4 22.32 4 23 C1.69 23 -0.62 23 -3 23 C-3.6875 20.6875 -3.6875 20.6875 -4 18 C-2.625 16.5 -2.625 16.5 -1 15 C-0.87625 14.154375 -0.7525 13.30875 -0.625 12.4375 C-0.41875 11.633125 -0.2125 10.82875 0 10 C2.5625 8.6875 2.5625 8.6875 5 8 C3.35 7.67 1.7 7.34 0 7 C0 5.35 0 3.7 0 2 C1.4540625 2.0309375 1.4540625 2.0309375 2.9375 2.0625 C5.87465895 2.35618499 5.87465895 2.35618499 7 1 C4.69 1 2.38 1 0 1 C0 0.67 0 0.34 0 0 Z M5 15 C5.33 15.66 5.66 16.32 6 17 C7.32 16.34 8.64 15.68 10 15 C8.35 15 6.7 15 5 15 Z M9 25 C10.485 25.99 10.485 25.99 12 27 C11.01 27 10.02 27 9 27 C9 26.34 9 25.68 9 25 Z " fill="#858483" transform="translate(135,193)"/>
<path d="M0 0 C0.639375 0.185625 1.27875 0.37125 1.9375 0.5625 C2.9584375 0.7790625 2.9584375 0.7790625 4 1 C4.33 0.67 4.66 0.34 5 0 C7.26818662 -0.12617338 9.54083685 -0.17580246 11.8125 -0.1875 C13.05644531 -0.20167969 14.30039062 -0.21585938 15.58203125 -0.23046875 C19 0 19 0 23 2 C19.7 2 16.4 2 13 2 C13 2.66 13 3.32 13 4 C10.36 4 7.72 4 5 4 C4.67 4.99 4.34 5.98 4 7 C2.35 7.33 0.7 7.66 -1 8 C-1.33 6.02 -1.66 4.04 -2 2 C-1.34 2 -0.68 2 0 2 C0 1.34 0 0.68 0 0 Z M-11 6 C-6.06071112 5.6632303 -5.21507278 5.83869541 -1 9 C-4.3 9.33 -7.6 9.66 -11 10 C-11 10.66 -11 11.32 -11 12 C-22.88 12 -34.76 12 -47 12 C-47 10.68 -47 9.36 -47 8 C-35.12 8 -23.24 8 -11 8 C-11 7.34 -11 6.68 -11 6 Z " fill="#5E5E5E" transform="translate(47,194)"/>
<path d="M0 0 C7.26 0 14.52 0 22 0 C22 1.32 22 2.64 22 4 C15.73 4 9.46 4 3 4 C3 4.66 3 5.32 3 6 C-8.88 6 -20.76 6 -33 6 C-33 4.68 -33 3.36 -33 2 C-22.11 2 -11.22 2 0 2 C0 1.34 0 0.68 0 0 Z " fill="#575757" transform="translate(33,188)"/>
<path d="M0 0 C12.21 0 24.42 0 37 0 C37 1.65 37 3.3 37 5 C20.5 5.33 4 5.66 -13 6 C-13 5.34 -13 4.68 -13 4 C-12.31292969 3.93941406 -11.62585938 3.87882813 -10.91796875 3.81640625 C-10.01691406 3.73261719 -9.11585938 3.64882812 -8.1875 3.5625 C-7.29417969 3.48128906 -6.40085938 3.40007812 -5.48046875 3.31640625 C-2.87256441 3.06510233 -2.87256441 3.06510233 0 2 C0 1.34 0 0.68 0 0 Z M-15 6 C-13 7 -13 7 -13 7 Z M-8 6 C-6 7 -6 7 -6 7 Z " fill="#585858" transform="translate(176,204)"/>
<path d="M0 0 C-0.33 1.32 -0.66 2.64 -1 4 C0.32 4.33 1.64 4.66 3 5 C2.01 5 1.02 5 0 5 C0 5.66 0 6.32 0 7 C-6.625 7.25 -6.625 7.25 -10 5 C-10 5.66 -10 6.32 -10 7 C-21.88 7 -33.76 7 -46 7 C-46 5.68 -46 4.36 -46 3 C-34.12 3 -22.24 3 -10 3 C-10 2.34 -10 1.68 -10 1 C-6.52674819 -0.1577506 -3.63932552 -0.06866652 0 0 Z " fill="#747474" transform="translate(46,195)"/>
<path d="M0 0 C5.28 0 10.56 0 16 0 C15.67 0.99 15.34 1.98 15 3 C17.475 3.495 17.475 3.495 20 4 C21.21346851 7.64040554 21.21346851 9.35959446 20 13 C15.38 13.33 10.76 13.66 6 14 C5.67 13.34 5.34 12.68 5 12 C2.36 12 -0.28 12 -3 12 C-3 11.34 -3 10.68 -3 10 C-0.36 10 2.28 10 5 10 C5 9.34 5 8.68 5 8 C6.98 7.67 8.96 7.34 11 7 C11 6.01 11 5.02 11 4 C7.04 3.67 3.08 3.34 -1 3 C-0.67 2.01 -0.34 1.02 0 0 Z M21 4 C25.29 4 29.58 4 34 4 C34 4.33 34 4.66 34 5 C27.565 5.495 27.565 5.495 21 6 C21 5.34 21 4.68 21 4 Z M-2 14 C0.64 14 3.28 14 6 14 C6 14.33 6 14.66 6 15 C3.36 15 0.72 15 -2 15 C-2 14.67 -2 14.34 -2 14 Z " fill="#030202" transform="translate(55,188)"/>
<path d="M0 0 C-0.66 1.65 -1.32 3.3 -2 5 C-4.31 5.33 -6.62 5.66 -9 6 C-8.34414811 9.60992379 -8.34414811 9.60992379 -7 13 C-9.64 13 -12.28 13 -15 13 C-15 13.66 -15 14.32 -15 15 C-16.98 15 -18.96 15 -21 15 C-21 14.67 -21 14.34 -21 14 C-23.31 13.67 -25.62 13.34 -28 13 C-28.33 11.35 -28.66 9.7 -29 8 C-24.545 7.505 -24.545 7.505 -20 7 C-20 5.35 -20 3.7 -20 2 C-13.24112575 -0.07965362 -7.04440079 -0.21133202 0 0 Z " fill="#989696" transform="translate(91,193)"/>
<path d="M0 0 C-0.33 1.32 -0.66 2.64 -1 4 C-1.66 4 -2.32 4 -3 4 C-3 4.99 -3 5.98 -3 7 C0.63 7 4.26 7 8 7 C7.67 7.969375 7.34 8.93875 7 9.9375 C5.94826637 12.62149574 5.94826637 12.62149574 6 14 C-2.58 14 -11.16 14 -20 14 C-19.67 13.01 -19.34 12.02 -19 11 C-19.66 9.02 -20.32 7.04 -21 5 C-16.38 4.67 -11.76 4.34 -7 4 C-6.67 3.01 -6.34 2.02 -6 1 C-3.90006779 0.25486277 -2.22568901 0 0 0 Z " fill="#A6A5A5" transform="translate(155,216)"/>
<path d="M0 0 C12.54 0 25.08 0 38 0 C38 1.32 38 2.64 38 4 C32.62912404 4.16901358 27.25808135 4.32940806 21.88671875 4.48217773 C20.06340794 4.53520719 18.24016139 4.59050021 16.41699219 4.64819336 C13.78073993 4.73120787 11.14435596 4.80579799 8.5078125 4.87890625 C7.70634796 4.90594131 6.90488342 4.93297638 6.07913208 4.96083069 C0.31689633 5.10928133 -5.27922587 4.68840148 -11 4 C-11 3.67 -11 3.34 -11 3 C-10.28972656 2.95101562 -9.57945312 2.90203125 -8.84765625 2.8515625 C-7.46900391 2.73941406 -7.46900391 2.73941406 -6.0625 2.625 C-5.14597656 2.55539063 -4.22945312 2.48578125 -3.28515625 2.4140625 C-2.15400391 2.20910156 -2.15400391 2.20910156 -1 2 C-0.67 1.34 -0.34 0.68 0 0 Z " fill="#7E7E7D" transform="translate(175,192)"/>
<path d="M0 0 C1.05960938 0.00676758 1.05960938 0.00676758 2.140625 0.01367188 C3.88545275 0.02546125 5.630237 0.04339676 7.375 0.0625 C7.045 1.0525 6.715 2.0425 6.375 3.0625 C2.415 3.0625 -1.545 3.0625 -5.625 3.0625 C-4.14860997 8.12258639 -4.14860997 8.12258639 -0.625 10.0625 C0.0625 12.1875 0.0625 12.1875 0.375 14.0625 C-2.265 14.0625 -4.905 14.0625 -7.625 14.0625 C-7.625 14.7225 -7.625 15.3825 -7.625 16.0625 C-9.56059313 16.19754138 -11.498872 16.29451129 -13.4375 16.375 C-15.05591797 16.46201172 -15.05591797 16.46201172 -16.70703125 16.55078125 C-19.625 16.0625 -19.625 16.0625 -21.51171875 13.54296875 C-21.87910156 12.72441406 -22.24648438 11.90585938 -22.625 11.0625 C-21.62597656 11.07410156 -20.62695312 11.08570313 -19.59765625 11.09765625 C-18.30730469 11.10667969 -17.01695313 11.11570313 -15.6875 11.125 C-13.75583984 11.14240234 -13.75583984 11.14240234 -11.78515625 11.16015625 C-8.76201597 11.42782549 -8.76201597 11.42782549 -7.625 10.0625 C-12.905 10.0625 -18.185 10.0625 -23.625 10.0625 C-23.625 9.7325 -23.625 9.4025 -23.625 9.0625 C-20.325 8.7325 -17.025 8.4025 -13.625 8.0625 C-13.625 7.7325 -13.625 7.4025 -13.625 7.0625 C-11.975 6.7325 -10.325 6.4025 -8.625 6.0625 C-10.935 5.7325 -13.245 5.4025 -15.625 5.0625 C-15.625 4.7325 -15.625 4.4025 -15.625 4.0625 C-13.645 3.7325 -11.665 3.4025 -9.625 3.0625 C-9.625 2.4025 -9.625 1.7425 -9.625 1.0625 C-6.55966836 -0.47016582 -3.35745728 -0.04026471 0 0 Z " fill="#363534" transform="translate(68.625,201.9375)"/>
<path d="M0 0 C14.85 0 29.7 0 45 0 C45 0.33 45 0.66 45 1 C43.865625 1.12375 42.73125 1.2475 41.5625 1.375 C40.386875 1.58125 39.21125 1.7875 38 2 C37.67 2.66 37.34 3.32 37 4 C24.79 4 12.58 4 0 4 C0 2.68 0 1.36 0 0 Z " fill="#727272" transform="translate(0,176)"/>
<path d="M0 0 C4.29 0 8.58 0 13 0 C12.01 0.66 11.02 1.32 10 2 C9.67 2.66 9.34 3.32 9 4 C8.01 5.485 8.01 5.485 7 7 C7.66 7.66 8.32 8.32 9 9 C8.484375 9.5775 7.96875 10.155 7.4375 10.75 C6.7259375 11.86375 6.7259375 11.86375 6 13 C6.33 14.32 6.66 15.64 7 17 C4.03 17.33 1.06 17.66 -2 18 C-2 17.34 -2 16.68 -2 16 C-4.97 15.505 -4.97 15.505 -8 15 C-7.34 14.67 -6.68 14.34 -6 14 C-5.690625 13.030625 -5.38125 12.06125 -5.0625 11.0625 C-4 8 -4 8 -1 6 C-0.67 4.02 -0.34 2.04 0 0 Z " fill="#020202" transform="translate(132,192)"/>
<path d="M0 0 C4.29 0 8.58 0 13 0 C12.67 0.99 12.34 1.98 12 3 C12.99 4.485 12.99 4.485 14 6 C14 5.34 14 4.68 14 4 C18.29 4 22.58 4 27 4 C27 4.99 27 5.98 27 7 C22.05 7.33 17.1 7.66 12 8 C12 8.66 12 9.32 12 10 C8.93753253 11.78409802 6.77920727 12.22880021 3.25 12.125 C2.45078125 12.10695312 1.6515625 12.08890625 0.828125 12.0703125 C0.22484375 12.04710937 -0.3784375 12.02390625 -1 12 C-1 12.66 -1 13.32 -1 14 C-2.65 14 -4.3 14 -6 14 C-6 13.01 -6 12.02 -6 11 C-5.360625 10.87625 -4.72125 10.7525 -4.0625 10.625 C-3.381875 10.41875 -2.70125 10.2125 -2 10 C-1.67 9.34 -1.34 8.68 -1 8 C2.0625 7.375 2.0625 7.375 5 7 C5 6.67 5 6.34 5 6 C3.35 5.67 1.7 5.34 0 5 C1.32 4.01 2.64 3.02 4 2 C2.68 1.34 1.36 0.68 0 0 Z " fill="#040404" transform="translate(77,198)"/>
<path d="M0 0 C20.13 0 40.26 0 61 0 C60.01 0.66 59.02 1.32 58 2 C57.34 2.66 56.68 3.32 56 4 C53.63490639 4.30059943 51.25558119 4.49515012 48.875 4.625 C47.59367187 4.69976562 46.31234375 4.77453125 44.9921875 4.8515625 C44.00476563 4.90054688 43.01734375 4.94953125 42 5 C42 5.66 42 6.32 42 7 C39.6875 7.3125 39.6875 7.3125 37 7 C36.60901123 6.18313721 36.21802246 5.36627441 35.81518555 4.5246582 C34.16623622 1.62011812 34.16623622 1.62011812 30.53833008 1.34057617 C29.11590117 1.29951552 27.69253193 1.28528409 26.26953125 1.29296875 C25.14390022 1.27028679 25.14390022 1.27028679 23.99552917 1.24714661 C21.60088239 1.20419002 19.20749405 1.19542488 16.8125 1.1875 C15.1881174 1.16436157 13.56376486 1.13899758 11.93945312 1.11132812 C7.95952382 1.04839829 3.98038306 1.01612515 0 1 C0 0.67 0 0.34 0 0 Z " fill="#1B1713" transform="translate(34,187)"/>
<path d="M0 0 C13.86 0 27.72 0 42 0 C42 0.99 42 1.98 42 3 C28.14 3 14.28 3 0 3 C0 2.01 0 1.02 0 0 Z " fill="#9B9B9B" transform="translate(171,209)"/>
<path d="M0 0 C4.95 0 9.9 0 15 0 C15.9057823 4.52891152 15.93613039 5.83942048 15 10 C14.9629721 11.6662553 14.95240038 13.33401319 15 15 C13.5629191 15.05422947 12.12524538 15.09289723 10.6875 15.125 C9.88699219 15.14820313 9.08648437 15.17140625 8.26171875 15.1953125 C6 15 6 15 3 13 C4.65 12.67 6.3 12.34 8 12 C8.6814823 10.10820797 8.6814823 10.10820797 9 8 C8.34 7.34 7.68 6.68 7 6 C4.32186601 5.97792512 4.32186601 5.97792512 1.375 6.375 C0.37210938 6.48585937 -0.63078125 6.59671875 -1.6640625 6.7109375 C-2.43492187 6.80632812 -3.20578125 6.90171875 -4 7 C-4.33 5.35 -4.66 3.7 -5 2 C-3.35 2 -1.7 2 0 2 C0 1.34 0 0.68 0 0 Z " fill="#010101" transform="translate(146,200)"/>
<path d="M0 0 C2 2 2 2 2 4 C0 6 0 6 -3.125 6.125 C-4.07375 6.08375 -5.0225 6.0425 -6 6 C-6 7.98 -6 9.96 -6 12 C-8.97 11.505 -8.97 11.505 -12 11 C-12.33 9.68 -12.66 8.36 -13 7 C-13.99 7.495 -13.99 7.495 -15 8 C-15 8.66 -15 9.32 -15 10 C-17.31 10 -19.62 10 -22 10 C-22.33 8.35 -22.66 6.7 -23 5 C-22.43152344 4.95101562 -21.86304688 4.90203125 -21.27734375 4.8515625 C-16.28918871 4.36856919 -11.77400422 3.52361837 -7 2 C-7 1.34 -7 0.68 -7 0 C-3.85179059 -1.04940314 -3.00659136 -1.066855 0 0 Z M-10 12 C-8.515 12.99 -8.515 12.99 -7 14 C-7.99 14 -8.98 14 -10 14 C-10 13.34 -10 12.68 -10 12 Z " fill="#706F6E" transform="translate(154,206)"/>
<path d="M0 0 C11.88 0 23.76 0 36 0 C36 0.99 36 1.98 36 3 C24.12 3 12.24 3 0 3 C0 2.01 0 1.02 0 0 Z M-2 3 C0 4 0 4 0 4 Z " fill="#A3A3A3" transform="translate(177,223)"/>
<path d="M0 0 C5.28 0 10.56 0 16 0 C15.67 0.99 15.34 1.98 15 3 C4.25446647 4.21634613 -6.4552043 4.11457757 -17.25 4.0625 C-19.07421752 4.05747327 -20.89843638 4.05291244 -22.72265625 4.04882812 C-27.14847132 4.03791939 -31.57422043 4.02071994 -36 4 C-36 3.34 -36 2.68 -36 2 C-24.12 2 -12.24 2 0 2 C0 1.34 0 0.68 0 0 Z " fill="#585757" transform="translate(36,226)"/>
<path d="M0 0 C-0.99 1.485 -0.99 1.485 -2 3 C-1.34 3.33 -0.68 3.66 0 4 C-2.05233685 6.2477975 -3.00667261 7.0022242 -6 8 C-6 8.66 -6 9.32 -6 10 C-10.95 10 -15.9 10 -21 10 C-20.67 8.35 -20.34 6.7 -20 5 C-16.04 5 -12.08 5 -8 5 C-8 4.34 -8 3.68 -8 3 C-11.63 3 -15.26 3 -19 3 C-19 2.01 -19 1.02 -19 0 C-16.20865148 -0.19425873 -13.41716313 -0.38069517 -10.625 -0.5625 C-9.8309375 -0.61857422 -9.036875 -0.67464844 -8.21875 -0.73242188 C-2.2265625 -1.11328125 -2.2265625 -1.11328125 0 0 Z " fill="#737372" transform="translate(112,198)"/>
<path d="M0 0 C1.90845703 0.04060547 1.90845703 0.04060547 3.85546875 0.08203125 C5.31919922 0.13423828 5.31919922 0.13423828 6.8125 0.1875 C6.8125 1.1775 6.8125 2.1675 6.8125 3.1875 C3.5125 3.1875 0.2125 3.1875 -3.1875 3.1875 C-4.18967064 6.77077753 -4.18967064 6.77077753 -3.1875 10.1875 C-5.8275 10.1875 -8.4675 10.1875 -11.1875 10.1875 C-11.1875 9.8575 -11.1875 9.5275 -11.1875 9.1875 C-13.4975 9.1875 -15.8075 9.1875 -18.1875 9.1875 C-18.1875 8.5275 -18.1875 7.8675 -18.1875 7.1875 C-15.8775 7.1875 -13.5675 7.1875 -11.1875 7.1875 C-11.1875 6.5275 -11.1875 5.8675 -11.1875 5.1875 C-13.1675 5.1875 -15.1475 5.1875 -17.1875 5.1875 C-17.1875 4.8575 -17.1875 4.5275 -17.1875 4.1875 C-16.094375 4.084375 -15.00125 3.98125 -13.875 3.875 C-10.26156176 3.60597899 -10.26156176 3.60597899 -8.90625 1.65625 C-6.16199009 -0.68884483 -3.51216433 -0.09666507 0 0 Z M-26.1875 9.1875 C-23.5475 9.1875 -20.9075 9.1875 -18.1875 9.1875 C-18.1875 9.5175 -18.1875 9.8475 -18.1875 10.1875 C-20.8275 10.1875 -23.4675 10.1875 -26.1875 10.1875 C-26.1875 9.8575 -26.1875 9.5275 -26.1875 9.1875 Z " fill="#9F9E9E" transform="translate(79.1875,212.8125)"/>
<path d="M0 0 C13.86 0 27.72 0 42 0 C42 0.66 42 1.32 42 2 C40.82904785 2.02505615 39.6580957 2.0501123 38.45166016 2.07592773 C34.11674622 2.16993703 29.78199496 2.27017341 25.44726562 2.37231445 C23.56937458 2.41568789 21.69144348 2.45736118 19.81347656 2.49731445 C17.1177156 2.55495876 14.42215673 2.61866981 11.7265625 2.68359375 C10.88380768 2.70030624 10.04105286 2.71701874 9.17276001 2.73423767 C4.9513339 2.73236144 4.9513339 2.73236144 1 4 C-1.3400417 3.71758117 -3.67504723 3.38749213 -6 3 C-6 2.67 -6 2.34 -6 2 C-4.02 2 -2.04 2 0 2 C0 1.34 0 0.68 0 0 Z M-1 4 C1 5 1 5 1 5 Z " fill="#676767" transform="translate(171,212)"/>
<path d="M0 0 C3.5624827 -0.02913821 7.12493454 -0.04684529 10.6875 -0.0625 C12.19860352 -0.07506836 12.19860352 -0.07506836 13.74023438 -0.08789062 C14.71669922 -0.09111328 15.69316406 -0.09433594 16.69921875 -0.09765625 C18.04246216 -0.10551147 18.04246216 -0.10551147 19.4128418 -0.11352539 C22.03641759 0.00159802 24.44293053 0.41765715 27 1 C27 1.33 27 1.66 27 2 C25.35 2.33 23.7 2.66 22 3 C22 3.66 22 4.32 22 5 C21.34 5 20.68 5 20 5 C20 5.66 20 6.32 20 7 C14.06 7 8.12 7 2 7 C1.67 5.35 1.34 3.7 1 2 C0.67 1.34 0.34 0.68 0 0 Z " fill="#CCCBCB" transform="translate(91,221)"/>
<path d="M0 0 C5.61 0 11.22 0 17 0 C17 0.33 17 0.66 17 1 C14.69 1 12.38 1 10 1 C10 1.66 10 2.32 10 3 C8 5 8 5 4.375 5.125 C3.26125 5.08375 2.1475 5.0425 1 5 C1 5.66 1 6.32 1 7 C-3.29 7 -7.58 7 -12 7 C-12 5.35 -12 3.7 -12 2 C-6.06 1.505 -6.06 1.505 0 1 C0 0.67 0 0.34 0 0 Z " fill="#B0AFAE" transform="translate(51,219)"/>
<path d="M0 0 C2.475 0.495 2.475 0.495 5 1 C5 1.33 5 1.66 5 2 C3.35 2 1.7 2 0 2 C0 1.34 0 0.68 0 0 Z M-2 2 C0.69082872 2.17635452 3.32851446 2.61835921 6 3 C6 3.99 6 4.98 6 6 C3.36 6 0.72 6 -2 6 C-2 6.66 -2 7.32 -2 8 C-3.93559313 8.13504138 -5.873872 8.23201129 -7.8125 8.3125 C-9.43091797 8.39951172 -9.43091797 8.39951172 -11.08203125 8.48828125 C-14 8 -14 8 -15.88671875 5.48046875 C-16.25410156 4.66191406 -16.62148438 3.84335938 -17 3 C-16.00097656 3.01160156 -15.00195312 3.02320313 -13.97265625 3.03515625 C-12.68230469 3.04417969 -11.39195313 3.05320313 -10.0625 3.0625 C-8.13083984 3.07990234 -8.13083984 3.07990234 -6.16015625 3.09765625 C-3.13701597 3.36532549 -3.13701597 3.36532549 -2 2 Z " fill="#4B4948" transform="translate(63,210)"/>
<path d="M0 0 C12.54 0 25.08 0 38 0 C38 0.66 38 1.32 38 2 C25.13 2.33 12.26 2.66 -1 3 C-0.67 2.01 -0.34 1.02 0 0 Z " fill="#7C7B7B" transform="translate(175,215)"/>
<path d="M0 0 C8.58 0 17.16 0 26 0 C26 0.33 26 0.66 26 1 C24.35 1 22.7 1 21 1 C21 1.66 21 2.32 21 3 C17.89590179 3.16795811 14.79171114 3.33414323 11.6875 3.5 C10.80642578 3.54769531 9.92535156 3.59539062 9.01757812 3.64453125 C7.74624023 3.71220703 7.74624023 3.71220703 6.44921875 3.78125 C5.66893311 3.82314453 4.88864746 3.86503906 4.0847168 3.90820312 C0.24053187 4.07747512 -3.21686698 3.67255698 -7 3 C-7 2.67 -7 2.34 -7 2 C-3.535 1.505 -3.535 1.505 0 1 C0 0.67 0 0.34 0 0 Z " fill="#8A8988" transform="translate(86,209)"/>
<path d="M0 0 C3.63 0 7.26 0 11 0 C11 2.31 11 4.62 11 7 C9.02 7.66 7.04 8.32 5 9 C5 9.66 5 10.32 5 11 C3.35 11 1.7 11 0 11 C0 7.37 0 3.74 0 0 Z " fill="#949392" transform="translate(121,195)"/>
<path d="M0 0 C0 0.99 0 1.98 0 3 C-0.99 3.495 -0.99 3.495 -2 4 C-1.67 5.65 -1.34 7.3 -1 9 C-3.64 9 -6.28 9 -9 9 C-9.33 8.01 -9.66 7.02 -10 6 C-10.99 5.34 -11.98 4.68 -13 4 C-13.33 3.34 -13.66 2.68 -14 2 C-9.15758367 0.66416101 -5.06562383 -0.25328119 0 0 Z M-10 9 C-9.67 9.66 -9.34 10.32 -9 11 C-11.31 11 -13.62 11 -16 11 C-16 10.67 -16 10.34 -16 10 C-14.02 9.67 -12.04 9.34 -10 9 Z " fill="#7F7D7C" transform="translate(61,199)"/>
<path d="M0 0 C1.65 0 3.3 0 5 0 C5.99 1.98 6.98 3.96 8 6 C5.36 6 2.72 6 0 6 C0 6.66 0 7.32 0 8 C-1.98 8 -3.96 8 -6 8 C-6 7.67 -6 7.34 -6 7 C-8.31 6.67 -10.62 6.34 -13 6 C-13.33 5.01 -13.66 4.02 -14 3 C-9.38 3 -4.76 3 0 3 C0 2.01 0 1.02 0 0 Z " fill="#A2A1A0" transform="translate(76,200)"/>
<path d="M0 0 C2.64 0 5.28 0 8 0 C8 2.31 8 4.62 8 7 C4.7 7 1.4 7 -2 7 C-2 6.67 -2 6.34 -2 6 C-8.27 5.67 -14.54 5.34 -21 5 C-21 4.67 -21 4.34 -21 4 C-20.15236084 3.96241577 -20.15236084 3.96241577 -19.28759766 3.92407227 C-16.73316258 3.80820044 -14.1791045 3.68543463 -11.625 3.5625 C-10.29082031 3.50352539 -10.29082031 3.50352539 -8.9296875 3.44335938 C-8.07890625 3.40146484 -7.228125 3.35957031 -6.3515625 3.31640625 C-5.56604004 3.27974854 -4.78051758 3.24309082 -3.97119141 3.20532227 C-1.92476504 3.109109 -1.92476504 3.109109 0 2 C0 1.34 0 0.68 0 0 Z " fill="#010100" transform="translate(110,214)"/>
<path d="M0 0 C3.3 0 6.6 0 10 0 C11 6.75 11 6.75 11 9 C7.86501708 10.85776765 5.62528568 11.20140476 2 11 C2.66 9.68 3.32 8.36 4 7 C3.38125 6.87625 2.7625 6.7525 2.125 6.625 C0 6 0 6 -2 4 C-1.34 2.68 -0.68 1.36 0 0 Z " fill="#000000" transform="translate(163,192)"/>
<path d="M0 0 C4.29 0 8.58 0 13 0 C12.34 1.98 11.68 3.96 11 6 C7.37 6 3.74 6 0 6 C-1 2 -1 2 0 0 Z " fill="#565453" transform="translate(164,188)"/>
<path d="M0 0 C2.64 0 5.28 0 8 0 C8.66 1.32 9.32 2.64 10 4 C5.05 3.67 0.1 3.34 -5 3 C-5 2.67 -5 2.34 -5 2 C-3.35 2 -1.7 2 0 2 C0 1.34 0 0.68 0 0 Z M9 0 C10.98 0 12.96 0 15 0 C11.25 2 11.25 2 9 2 C9 1.34 9 0.68 9 0 Z M-4 4 C-0.04 4 3.92 4 8 4 C3.60171741 6.1991413 0.81449408 6.51855059 -4 7 C-4 6.01 -4 5.02 -4 4 Z " fill="#090808" transform="translate(146,200)"/>
<path d="M0 0 C1.2065625 0.0309375 1.2065625 0.0309375 2.4375 0.0625 C2.1075 2.3725 1.7775 4.6825 1.4375 7.0625 C-0.2125 7.0625 -1.8625 7.0625 -3.5625 7.0625 C-3.5625 7.7225 -3.5625 8.3825 -3.5625 9.0625 C-5.5425 9.0625 -7.5225 9.0625 -9.5625 9.0625 C-9.541875 8.27875 -9.52125 7.495 -9.5 6.6875 C-9.37565937 4.08135039 -9.37565937 4.08135039 -10.5625 2.0625 C-9.428125 1.918125 -8.29375 1.77375 -7.125 1.625 C-3.80350664 1.10055368 -3.09809271 0.07556324 0 0 Z " fill="#8D8C8B" transform="translate(166.5625,196.9375)"/>
<path d="M0 0 C1.76923828 0.01353516 1.76923828 0.01353516 3.57421875 0.02734375 C4.47785156 0.03894531 5.38148437 0.05054688 6.3125 0.0625 C6.3125 1.0525 6.3125 2.0425 6.3125 3.0625 C1.0325 3.0625 -4.2475 3.0625 -9.6875 3.0625 C-9.6875 3.7225 -9.6875 4.3825 -9.6875 5.0625 C-10.3475 4.7325 -11.0075 4.4025 -11.6875 4.0625 C-13.55806791 3.8349985 -15.43435958 3.65287189 -17.3125 3.5 C-18.31539062 3.41621094 -19.31828125 3.33242187 -20.3515625 3.24609375 C-21.12242188 3.18550781 -21.89328125 3.12492188 -22.6875 3.0625 C-22.6875 2.7325 -22.6875 2.4025 -22.6875 2.0625 C-21.33205078 1.97162109 -21.33205078 1.97162109 -19.94921875 1.87890625 C-18.17998047 1.75322266 -18.17998047 1.75322266 -16.375 1.625 C-14.61736328 1.50318359 -14.61736328 1.50318359 -12.82421875 1.37890625 C-8.34653586 0.92723463 -4.59167928 -0.04546217 0 0 Z " fill="#B1AEAE" transform="translate(61.6875,190.9375)"/>
<path d="M0 0 C1.27230469 0.00902344 2.54460937 0.01804688 3.85546875 0.02734375 C5.31919922 0.04474609 5.31919922 0.04474609 6.8125 0.0625 C6.8125 0.7225 6.8125 1.3825 6.8125 2.0625 C6.1525 2.0625 5.4925 2.0625 4.8125 2.0625 C4.8125 2.7225 4.8125 3.3825 4.8125 4.0625 C0.1925 4.0625 -4.4275 4.0625 -9.1875 4.0625 C-9.5175 3.0725 -9.8475 2.0825 -10.1875 1.0625 C-6.62704823 -0.12431726 -3.74941663 -0.03439832 0 0 Z " fill="#363332" transform="translate(142.1875,187.9375)"/>
<path d="M0 0 C4.29 0 8.58 0 13 0 C12.01 0.66 11.02 1.32 10 2 C9.67 2.66 9.34 3.32 9 4 C8.01 5.485 8.01 5.485 7 7 C3.375 7.6875 3.375 7.6875 0 8 C-0.79953138 4.71303767 -1.09658936 3.28976808 0 0 Z M-4 8 C0 9 0 9 0 9 Z " fill="#040303" transform="translate(132,192)"/>
<path d="M0 0 C1.63001953 0.01353516 1.63001953 0.01353516 3.29296875 0.02734375 C4.12441406 0.03894531 4.95585938 0.05054688 5.8125 0.0625 C5.4825 1.0525 5.1525 2.0425 4.8125 3.0625 C-3.67958584 3.79848077 -11.71845523 4.35776567 -20.1875 3.0625 C-20.1875 2.7325 -20.1875 2.4025 -20.1875 2.0625 C-19.42824219 2.00191406 -18.66898437 1.94132813 -17.88671875 1.87890625 C-16.89285156 1.79511719 -15.89898437 1.71132812 -14.875 1.625 C-13.88886719 1.54378906 -12.90273437 1.46257812 -11.88671875 1.37890625 C-0.11308366 -0.00121595 -0.11308366 -0.00121595 0 0 Z " fill="#949493" transform="translate(85.1875,224.9375)"/>
<path d="M0 0 C4.62 0 9.24 0 14 0 C14 0.99 14 1.98 14 3 C11.36 3 8.72 3 6 3 C6 2.34 6 1.68 6 1 C4.02 1 2.04 1 0 1 C0 0.67 0 0.34 0 0 Z M4 3 C6.64 3.33 9.28 3.66 12 4 C12 4.33 12 4.66 12 5 C9.69 5 7.38 5 5 5 C4.67 4.34 4.34 3.68 4 3 Z M3 5 C5.97 5.33 8.94 5.66 12 6 C12 6.33 12 6.66 12 7 C9.36 7 6.72 7 4 7 C4 7.66 4 8.32 4 9 C2.68 8.67 1.36 8.34 0 8 C0.99 8 1.98 8 3 8 C3 7.01 3 6.02 3 5 Z " fill="#8D8B8A" transform="translate(149,215)"/>
<path d="M0 0 C2.24973447 -0.054138 4.49984383 -0.09285491 6.75 -0.125 C8.00296875 -0.14820313 9.2559375 -0.17140625 10.546875 -0.1953125 C14 0 14 0 18 2 C14.7 2 11.4 2 8 2 C8 2.66 8 3.32 8 4 C5.36 4 2.72 4 0 4 C0 4.66 0 5.32 0 6 C-0.66 5.67 -1.32 5.34 -2 5 C-1.34 3.35 -0.68 1.7 0 0 Z " fill="#252321" transform="translate(52,194)"/>
<path d="M0 0 C1.62463842 -0.05395478 3.24978541 -0.09277195 4.875 -0.125 C6.23238281 -0.15980469 6.23238281 -0.15980469 7.6171875 -0.1953125 C10 0 10 0 12 2 C10.329375 2.433125 10.329375 2.433125 8.625 2.875 C4.99708908 3.69241329 4.99708908 3.69241329 3 6 C3 5.34 3 4.68 3 4 C0.03 4 -2.94 4 -6 4 C-6 3.67 -6 3.34 -6 3 C-5.195625 2.87625 -4.39125 2.7525 -3.5625 2.625 C-2.716875 2.41875 -1.87125 2.2125 -1 2 C-0.67 1.34 -0.34 0.68 0 0 Z " fill="#2E2C2B" transform="translate(151,196)"/>
<path d="M0 0 C1.98 0 3.96 0 6 0 C6 1.65 6 3.3 6 5 C2.57426063 5.77528479 -0.57239245 6.11918778 -4.08203125 6.09765625 C-5.01337891 6.09443359 -5.94472656 6.09121094 -6.90429688 6.08789062 C-7.86400391 6.07951172 -8.82371094 6.07113281 -9.8125 6.0625 C-11.28106445 6.05573242 -11.28106445 6.05573242 -12.77929688 6.04882812 C-15.18626111 6.03708684 -17.59309857 6.02066419 -20 6 C-20 5.67 -20 5.34 -20 5 C-13.73 5 -7.46 5 -1 5 C-0.67 3.35 -0.34 1.7 0 0 Z " fill="#6F6F6E" transform="translate(112,224)"/>
<path d="M0 0 C1.8871875 0.0309375 1.8871875 0.0309375 3.8125 0.0625 C3.8125 1.3825 3.8125 2.7025 3.8125 4.0625 C2.8225 4.0625 1.8325 4.0625 0.8125 4.0625 C0.8125 4.7225 0.8125 5.3825 0.8125 6.0625 C-1.5 6.375 -1.5 6.375 -4.1875 6.0625 C-6 3.5625 -6 3.5625 -7.1875 1.0625 C-4.43671116 0.14557039 -2.82801087 -0.04636083 0 0 Z " fill="#403E3D" transform="translate(75.1875,187.9375)"/>
<path d="M0 0 C2.31 0 4.62 0 7 0 C6.67 0.99 6.34 1.98 6 3 C6.33 3.66 6.66 4.32 7 5 C4.36 5 1.72 5 -1 5 C-1 4.67 -1 4.34 -1 4 C-3.31 4 -5.62 4 -8 4 C-8 3.34 -8 2.68 -8 2 C-5.36 1.67 -2.72 1.34 0 1 C0 0.67 0 0.34 0 0 Z M-16 4 C-13.36 4 -10.72 4 -8 4 C-8 4.33 -8 4.66 -8 5 C-10.64 5 -13.28 5 -16 5 C-16 4.67 -16 4.34 -16 4 Z " fill="#000000" transform="translate(69,218)"/>
<path d="M0 0 C2.475 0.495 2.475 0.495 5 1 C5 1.33 5 1.66 5 2 C3.35 2 1.7 2 0 2 C0 1.34 0 0.68 0 0 Z M-2 2 C0.64 2.33 3.28 2.66 6 3 C6 3.99 6 4.98 6 6 C3.36 6 0.72 6 -2 6 C-2 6.66 -2 7.32 -2 8 C-3.98 8 -5.96 8 -8 8 C-8 7.01 -8 6.02 -8 5 C-7.195625 4.87625 -6.39125 4.7525 -5.5625 4.625 C-4.716875 4.41875 -3.87125 4.2125 -3 4 C-2.67 3.34 -2.34 2.68 -2 2 Z " fill="#939191" transform="translate(63,210)"/>
<path d="M0 0 C0.33 1.65 0.66 3.3 1 5 C-3.455 5.495 -3.455 5.495 -8 6 C-8 5.34 -8 4.68 -8 4 C-8.66 3.67 -9.32 3.34 -10 3 C-10.33 2.34 -10.66 1.68 -11 1 C-7.27569643 0.30710631 -3.78916254 -0.11144596 0 0 Z " fill="#11100F" transform="translate(138,204)"/>
<path d="M0 0 C4.29 0 8.58 0 13 0 C12.01 1.485 12.01 1.485 11 3 C8.1796875 3.29296875 8.1796875 3.29296875 4.875 3.1875 C3.23144531 3.14689453 3.23144531 3.14689453 1.5546875 3.10546875 C0.71164063 3.07066406 -0.13140625 3.03585938 -1 3 C-0.67 2.01 -0.34 1.02 0 0 Z " fill="#000000" transform="translate(79,188)"/>
<path d="M0 0 C0.33 0.99 0.66 1.98 1 3 C-1.97 3 -4.94 3 -8 3 C-8 3.66 -8 4.32 -8 5 C-9.65 5 -11.3 5 -13 5 C-13 4.01 -13 3.02 -13 2 C-4.57142857 -0.28571429 -4.57142857 -0.28571429 0 0 Z " fill="#A6A5A5" transform="translate(84,207)"/>
<path d="M0 0 C1.65 0 3.3 0 5 0 C5 1.65 5 3.3 5 5 C3.5629191 5.05422947 2.12524538 5.09289723 0.6875 5.125 C-0.11300781 5.14820313 -0.91351563 5.17140625 -1.73828125 5.1953125 C-4 5 -4 5 -7 3 C-3.535 2.505 -3.535 2.505 0 2 C0 1.34 0 0.68 0 0 Z " fill="#272626" transform="translate(156,210)"/>
<path d="M0 0 C0 1.32 0 2.64 0 4 C-2.31 4 -4.62 4 -7 4 C-7.33 3.34 -7.66 2.68 -8 2 C-6.14210462 -1.71579076 -3.44525918 -1.06921837 0 0 Z " fill="#6D6C6C" transform="translate(43,210)"/>
<path d="M0 0 C2.31 0 4.62 0 7 0 C7 1.32 7 2.64 7 4 C4.69 4 2.38 4 0 4 C-0.33 3.34 -0.66 2.68 -1 2 C-0.67 1.34 -0.34 0.68 0 0 Z " fill="#4A4949" transform="translate(36,204)"/>
<path d="M0 0 C1.98 0 3.96 0 6 0 C6 0.66 6 1.32 6 2 C7.32 2.33 8.64 2.66 10 3 C9.01 3 8.02 3 7 3 C7 3.66 7 4.32 7 5 C4.69 5 2.38 5 0 5 C0 3.35 0 1.7 0 0 Z " fill="#8C8B8A" transform="translate(39,197)"/>
<path d="M0 0 C-0.33 0.99 -0.66 1.98 -1 3 C-3.64 3 -6.28 3 -9 3 C-9 2.34 -9 1.68 -9 1 C-5.8035914 -0.06546953 -3.34252724 -0.07427838 0 0 Z M-10 3 C-9.67 3.66 -9.34 4.32 -9 5 C-9.66 4.67 -10.32 4.34 -11 4 C-10.67 3.67 -10.34 3.34 -10 3 Z " fill="#828181" transform="translate(61,195)"/>
<path d="M0 0 C1.65 0 3.3 0 5 0 C5 0.99 5 1.98 5 3 C3.02 3 1.04 3 -1 3 C-0.67 2.01 -0.34 1.02 0 0 Z M-1 3 C-1 3.66 -1 4.32 -1 5 C-2.98 5 -4.96 5 -7 5 C-3.25 3 -3.25 3 -1 3 Z " fill="#999797" transform="translate(164,205)"/>
<path d="M0 0 C2.64 0 5.28 0 8 0 C8.33 0.66 8.66 1.32 9 2 C5.7 2.33 2.4 2.66 -1 3 C-0.67 2.01 -0.34 1.02 0 0 Z " fill="#4E4D4C" transform="translate(36,218)"/>
<path d="M0 0 C1.67542976 0.28604898 3.34385343 0.61781233 5 1 C2.68143083 2.54571278 0.49361571 3.79618552 -2 5 C-2 4.34 -2 3.68 -2 3 C-3.98 3 -5.96 3 -8 3 C-8 2.67 -8 2.34 -8 2 C-6.865625 1.855625 -5.73125 1.71125 -4.5625 1.5625 C-1.19222799 1.38828522 -1.19222799 1.38828522 0 0 Z " fill="#605E5D" transform="translate(70,215)"/>
<path d="M0 0 C1.98 0 3.96 0 6 0 C4.68 0.33 3.36 0.66 2 1 C2 1.66 2 2.32 2 3 C1.01 3 0.02 3 -1 3 C-0.67 2.01 -0.34 1.02 0 0 Z M0.25 3.875 C1.11625 4.431875 1.11625 4.431875 2 5 C-0.64 5 -3.28 5 -6 5 C-2.55384615 2.78461538 -2.55384615 2.78461538 0.25 3.875 Z " fill="#54514F" transform="translate(113,203)"/>
<path d="M0 0 C2.97 0.495 2.97 0.495 6 1 C6 1.66 6 2.32 6 3 C3.69 3 1.38 3 -1 3 C-0.67 2.01 -0.34 1.02 0 0 Z M-2 3 C-1.34 3.66 -0.68 4.32 0 5 C-1.32 4.67 -2.64 4.34 -4 4 C-3.34 3.67 -2.68 3.34 -2 3 Z " fill="#413F3E" transform="translate(133,199)"/>
<path d="M0 0 C1.98 0 3.96 0 6 0 C5.67 0.99 5.34 1.98 5 3 C2.69 3.33 0.38 3.66 -2 4 C-1.34 3.67 -0.68 3.34 0 3 C0 2.01 0 1.02 0 0 Z " fill="#211F1D" transform="translate(39,165)"/>
<path d="M0 0 C2.31 0 4.62 0 7 0 C6.01 0.33 5.02 0.66 4 1 C4 1.66 4 2.32 4 3 C2.35 3 0.7 3 -1 3 C-0.67 2.01 -0.34 1.02 0 0 Z M-3 3 C-1 4 -1 4 -1 4 Z " fill="#12100D" transform="translate(85,205)"/>
<path d="M0 0 C-0.33 0.66 -0.66 1.32 -1 2 C-3.06640625 2.4140625 -3.06640625 2.4140625 -5.5625 2.625 C-6.38878906 2.69976562 -7.21507812 2.77453125 -8.06640625 2.8515625 C-9.02353516 2.92503906 -9.02353516 2.92503906 -10 3 C-6.93361469 -0.59474709 -4.63005752 -0.26207873 0 0 Z " fill="#6E6C6B" transform="translate(69,221)"/>
</svg>
