<?xml version="1.0" encoding="UTF-8"?>
<svg version="1.1" xmlns="http://www.w3.org/2000/svg" width="225" height="225">
<path d="M0 0 C74.25 0 148.5 0 225 0 C225 74.25 225 148.5 225 225 C150.75 225 76.5 225 0 225 C0 150.75 0 76.5 0 0 Z " fill="#040402" transform="translate(0,0)"/>
<path d="M0 0 C1.39702148 0.00966797 1.39702148 0.00966797 2.82226562 0.01953125 C3.78197266 0.03628906 4.74167969 0.05304688 5.73046875 0.0703125 C6.70951172 0.07933594 7.68855469 0.08835938 8.69726562 0.09765625 C11.10441936 0.12114068 13.51106618 0.1539841 15.91796875 0.1953125 C15.91796875 1.1853125 15.91796875 2.1753125 15.91796875 3.1953125 C18.88796875 3.5253125 21.85796875 3.8553125 24.91796875 4.1953125 C26.68949247 8.73484202 27.00607094 12.3496921 26.91796875 17.1953125 C27.08296875 17.9790625 27.24796875 18.7628125 27.41796875 19.5703125 C28.15908543 23.46117509 27.97703732 27.23771837 27.91796875 31.1953125 C22.30796875 31.1953125 16.69796875 31.1953125 10.91796875 31.1953125 C10.91796875 29.5453125 10.91796875 27.8953125 10.91796875 26.1953125 C10.25796875 25.8653125 9.59796875 25.5353125 8.91796875 25.1953125 C8.91796875 27.1753125 8.91796875 29.1553125 8.91796875 31.1953125 C3.63796875 31.1953125 -1.64203125 31.1953125 -7.08203125 31.1953125 C-9.53110838 23.8480811 -10.23539121 17.39703848 -10.14453125 9.7578125 C-10.14001953 9.02626953 -10.13550781 8.29472656 -10.13085938 7.54101562 C-10.11921273 5.75907831 -10.10128316 3.97718387 -10.08203125 2.1953125 C-6.56375497 0.60285855 -3.85505773 -0.04730132 0 0 Z " fill="#3B3907" transform="translate(176.08203125,-0.1953125)"/>
<path d="M0 0 C7.26 0 14.52 0 22 0 C21.01 0.99 20.02 1.98 19 3 C18.01 3 17.02 3 16 3 C15.855625 4.2375 15.71125 5.475 15.5625 6.75 C14.74993355 13.05017278 14.74993355 13.05017278 14 15 C10.68629 17.20914 9.6553979 17.22481553 5.8125 17.125 C4.91144531 17.10695313 4.01039062 17.08890625 3.08203125 17.0703125 C2.39496094 17.04710938 1.70789063 17.02390625 1 17 C0.664061 15.5422647 0.33133376 14.08378894 0 12.625 C-0.185625 11.81289063 -0.37125 11.00078125 -0.5625 10.1640625 C-1 8 -1 8 -1 6 C-0.38125 5.9175 0.2375 5.835 0.875 5.75 C3.18437567 5.18741541 3.18437567 5.18741541 4.25 2.9375 C4.4975 2.298125 4.745 1.65875 5 1 C3.35 1 1.7 1 0 1 C0 0.67 0 0.34 0 0 Z " fill="#606060" transform="translate(30,12)"/>
<path d="M0 0 C4.95 0 9.9 0 15 0 C15 4.29 15 8.58 15 13 C9.39 13 3.78 13 -2 13 C-2 10.03 -2 7.06 -2 4 C-1.01 3.67 -0.02 3.34 1 3 C0.67 2.01 0.34 1.02 0 0 Z " fill="#4F4C0B" transform="translate(189,18)"/>
<path d="M0 0 C4.95 0 9.9 0 15 0 C15 4.29 15 8.58 15 13 C9.72 13 4.44 13 -1 13 C-2 6 -2 6 0 0 Z " fill="#54520D" transform="translate(107,18)"/>
<path d="M0 0 C2.31 0 4.62 0 7 0 C7 0.99 7 1.98 7 3 C3.7 3 0.4 3 -3 3 C-2.01 2.67 -1.02 2.34 0 2 C0 1.34 0 0.68 0 0 Z " fill="#A6A016" transform="translate(178,28)"/>
</svg>
