<?xml version="1.0" encoding="UTF-8"?>
<svg version="1.1" xmlns="http://www.w3.org/2000/svg" width="278" height="181">
<path d="M0 0 C91.74 0 183.48 0 278 0 C278 59.73 278 119.46 278 181 C186.26 181 94.52 181 0 181 C0 121.27 0 61.54 0 0 Z " fill="#7F7F7F" transform="translate(0,0)"/>
<path d="M0 0 C91.74 0 183.48 0 278 0 C278 7.26 278 14.52 278 22 C255.42873695 23.04500036 232.8920078 23.14938954 210.30061483 23.1343255 C205.17624967 23.1317376 200.05188601 23.13415793 194.92752075 23.13571167 C186.29917068 23.13751997 177.67082922 23.13516772 169.04248047 23.13037109 C160.31786537 23.12557515 151.5932674 23.12551549 142.86865234 23.13037109 C95.23523821 23.15627852 47.62277396 23.10399735 0 22 C0 14.74 0 7.48 0 0 Z " fill="#46404D" transform="translate(0,0)"/>
<path d="M0 0 C91.74 0 183.48 0 278 0 C278 2.31 278 4.62 278 7 C239.06 7 200.12 7 160 7 C160 6.67 160 6.34 160 6 C107.2 5.67 54.4 5.34 0 5 C0 3.35 0 1.7 0 0 Z " fill="#847D88" transform="translate(0,0)"/>
<path d="M0 0 C91.74 0 183.48 0 278 0 C278 1.32 278 2.64 278 4 C255.43110943 5.06942844 232.89013958 5.1493883 210.30061483 5.1343255 C205.17624967 5.1317376 200.05188601 5.13415793 194.92752075 5.13571167 C186.29917068 5.13751997 177.67082922 5.13516772 169.04248047 5.13037109 C160.31786537 5.12557515 151.5932674 5.12551549 142.86865234 5.13037109 C95.23645898 5.15627786 47.62125355 5.13417887 0 4 C0 2.68 0 1.36 0 0 Z " fill="#645C6C" transform="translate(0,18)"/>
<path d="M0 0 C53.46 0 106.92 0 162 0 C162 0.33 162 0.66 162 1 C200.28 1.33 238.56 1.66 278 2 C278 2.99 278 3.98 278 5 C254.73806114 5.68378174 231.49543742 6.17024236 208.222332 6.12857056 C205.87910586 6.12490875 203.53588617 6.12335573 201.19265747 6.12231445 C134.12835765 6.08617586 67.06238511 5.46729333 0 5 C0 3.35 0 1.7 0 0 Z " fill="#453F4B" transform="translate(0,13)"/>
<path d="M0 0 C21.61087499 -0.02343186 43.22174787 -0.04102948 64.83263302 -0.05181217 C74.8684882 -0.05695336 84.90433546 -0.06395427 94.94018555 -0.07543945 C103.69444346 -0.08545313 112.44869564 -0.09186924 121.20295912 -0.09408849 C125.83187132 -0.09538432 130.4607671 -0.09839789 135.089674 -0.10573006 C139.46036432 -0.1125961 143.8310317 -0.11459579 148.20172691 -0.11310768 C149.79263179 -0.11337931 151.38353756 -0.11532091 152.97443771 -0.11920547 C161.04679706 -0.13792328 169.08628978 -0.01617496 177.14698792 0.44459534 C177.83238016 0.48339087 178.51777241 0.52218641 179.22393411 0.56215757 C183.52333057 0.83399759 187.73880611 1.38309985 192 2 C193.3673497 2.07632336 194.7371975 2.1222655 196.10667419 2.12025452 C196.83991409 2.12162918 197.57315399 2.12300385 198.32861328 2.12442017 C199.10760986 2.12082489 199.88660645 2.11722961 200.68920898 2.11352539 C201.94895287 2.11374443 201.94895287 2.11374443 203.23414612 2.1139679 C205.98815567 2.11327564 208.74209613 2.10551563 211.49609375 2.09765625 C213.41422997 2.09578963 215.33236667 2.09436688 217.25050354 2.09336853 C222.28267753 2.0895626 227.31482235 2.07974883 232.34698486 2.06866455 C237.48848069 2.05840898 242.62998126 2.05386204 247.77148438 2.04882812 C257.84766902 2.03812475 267.92383208 2.02107155 278 2 C278 2.99 278 3.98 278 5 C239.06 5 200.12 5 160 5 C160 4.67 160 4.34 160 4 C107.2 3.67 54.4 3.34 0 3 C0 2.01 0 1.02 0 0 Z " fill="#7F7686" transform="translate(0,10)"/>
<path d="M0 0 C77.88 0 155.76 0 236 0 C236 0.33 236 0.66 236 1 C249.86 1.33 263.72 1.66 278 2 C278 2.99 278 3.98 278 5 C255.89 5.33 233.78 5.66 211 6 C211 5.01 211 4.02 211 3 C209.38179352 3.01879211 209.38179352 3.01879211 207.730896 3.03796387 C160.47659284 3.58397923 113.2222377 4.10458285 65.96430969 4.12338257 C63.34391897 4.12498084 60.7235374 4.12852024 58.10314941 4.13256836 C38.70954823 4.15932849 19.37492009 3.96964382 0 3 C0 2.01 0 1.02 0 0 Z " fill="#363238" transform="translate(0,25)"/>
<path d="M0 0 C69.63 0 139.26 0 211 0 C211 0.99 211 1.98 211 3 C141.37 3 71.74 3 0 3 C0 2.01 0 1.02 0 0 Z " fill="#87838F" transform="translate(0,28)"/>
<path d="M0 0 C91.74 0 183.48 0 278 0 C278 0.66 278 1.32 278 2 C255.92782795 2.65902777 233.86378003 3.08968388 211.78125 3.0625 C210.10405286 3.06158607 210.10405286 3.06158607 208.39297295 3.06065369 C170.88489686 3.03766005 133.377031 2.77569708 95.86973137 2.55461836 C85.38510479 2.49287978 74.90046776 2.43300825 64.41582978 2.37324238 C42.94387488 2.25080595 21.47193317 2.12618469 0 2 C0 1.34 0 0.68 0 0 Z " fill="#69616B" transform="translate(0,0)"/>
</svg>
