<?xml version="1.0" encoding="UTF-8"?>
<svg version="1.1" xmlns="http://www.w3.org/2000/svg" width="200" height="200">
<path d="M0 0 C66 0 132 0 200 0 C200 66 200 132 200 200 C134 200 68 200 0 200 C0 134 0 68 0 0 Z " fill="#FEFEFE" transform="translate(0,0)"/>
<path d="M0 0 C0.88405518 0.00829834 1.76811035 0.01659668 2.67895508 0.02514648 C13.59274431 0.30818984 21.17428559 3.95969053 29.125 11.4375 C37.34157765 20.17370311 41.57711658 30.55526603 41.3984375 42.5625 C40.26513846 54.47832988 34.87696526 64.20109043 26.25 72.3125 C18.4499321 78.74679725 10.21612469 80.62317892 0.375 80.6875 C-0.3984375 80.708125 -1.171875 80.72875 -1.96875 80.75 C-12.15359121 80.81835464 -21.14107956 76.28927883 -28.85546875 69.76171875 C-37.66411122 60.68084451 -40.40368079 50.03589525 -40.44506836 37.83056641 C-40.09985547 26.52643645 -33.90875888 16.16881149 -25.875 8.4375 C-17.92981166 2.34233473 -9.9039024 -0.11959643 0 0 Z " fill="#D91028" transform="translate(99.875,38.5625)"/>
<path d="M0 0 C4.3539408 0.47756177 6.69776851 2.48701407 9.91015625 5.2421875 C11.13165465 6.25400359 12.35434136 7.26438658 13.578125 8.2734375 C14.1973584 8.7890625 14.8165918 9.3046875 15.45458984 9.8359375 C17.31230935 11.33859635 19.2095599 12.75256597 21.1484375 14.1484375 C22.04937134 14.80416748 22.04937134 14.80416748 22.96850586 15.47314453 C24.11603646 16.30332742 25.27160075 17.12254494 26.43579102 17.92919922 C27.99609375 19.078125 27.99609375 19.078125 30.34765625 21.3671875 C30.69921875 24.15625 30.69921875 24.15625 30.34765625 26.3671875 C28.27734375 27.1875 28.27734375 27.1875 25.34765625 27.3671875 C22.83265918 25.74403336 20.72287269 24.17512831 18.47265625 22.2421875 C17.28903943 21.25887507 16.10414435 20.27709923 14.91796875 19.296875 C14.33692383 18.81186523 13.75587891 18.32685547 13.15722656 17.82714844 C10.31542263 15.53438164 7.34093981 13.45712717 4.34765625 11.3671875 C4.34765625 12.6871875 4.34765625 14.0071875 4.34765625 15.3671875 C5.99765625 15.3671875 7.64765625 15.3671875 9.34765625 15.3671875 C11.47265625 20.9921875 11.47265625 20.9921875 10.34765625 24.3671875 C11.66765625 25.0271875 12.98765625 25.6871875 14.34765625 26.3671875 C13.93299908 31.20485449 11.92779475 33.22365126 8.34765625 36.3671875 C4.08232476 38.49985324 -1.0466344 38.09925895 -5.65234375 37.3671875 C-8.1754485 35.80374224 -10.00426508 34.15385189 -12.03125 31.99609375 C-13.66076272 30.11473542 -13.66076272 30.11473542 -16.65234375 29.3671875 C-16.98234375 28.7071875 -17.31234375 28.0471875 -17.65234375 27.3671875 C-19.66904202 26.23368216 -19.66904202 26.23368216 -21.65234375 25.3671875 C-22.64234375 26.0271875 -23.63234375 26.6871875 -24.65234375 27.3671875 C-26.83984375 26.9921875 -26.83984375 26.9921875 -28.65234375 26.3671875 C-28.98234375 24.7171875 -29.31234375 23.0671875 -29.65234375 21.3671875 C-24.90234375 17.3671875 -24.90234375 17.3671875 -22.65234375 17.3671875 C-22.66394531 16.36816406 -22.67554687 15.36914062 -22.6875 14.33984375 C-22.69652344 13.04949219 -22.70554687 11.75914063 -22.71484375 10.4296875 C-22.72644531 9.14191406 -22.73804687 7.85414062 -22.75 6.52734375 C-22.65234375 3.3671875 -22.65234375 3.3671875 -21.65234375 2.3671875 C-19.9861726 2.32654918 -18.3184628 2.3244665 -16.65234375 2.3671875 C-15.99234375 4.6771875 -15.33234375 6.9871875 -14.65234375 9.3671875 C-12.83906113 8.05576894 -11.02673861 6.74302276 -9.21484375 5.4296875 C-8.20550781 4.69878906 -7.19617188 3.96789062 -6.15625 3.21484375 C-2.21514054 0.30666158 -2.21514054 0.30666158 0 0 Z " fill="#DB102A" transform="translate(99.65234375,60.6328125)"/>
<path d="M0 0 C4.3539408 0.47756177 6.69776851 2.48701407 9.91015625 5.2421875 C11.13165465 6.25400359 12.35434136 7.26438658 13.578125 8.2734375 C14.1973584 8.7890625 14.8165918 9.3046875 15.45458984 9.8359375 C17.31230935 11.33859635 19.2095599 12.75256597 21.1484375 14.1484375 C22.04937134 14.80416748 22.04937134 14.80416748 22.96850586 15.47314453 C24.11603646 16.30332742 25.27160075 17.12254494 26.43579102 17.92919922 C27.99609375 19.078125 27.99609375 19.078125 30.34765625 21.3671875 C30.69921875 24.15625 30.69921875 24.15625 30.34765625 26.3671875 C28.26953125 27.1796875 28.26953125 27.1796875 25.34765625 27.3671875 C22.86842961 25.78623138 20.81113542 24.26074386 18.59765625 22.3671875 C17.98220947 21.86477539 17.3667627 21.36236328 16.73266602 20.84472656 C13.99660627 18.60889918 11.30131223 16.32778517 8.609375 14.0390625 C7.84238281 13.40484375 7.07539062 12.770625 6.28515625 12.1171875 C5.30869141 11.27414063 5.30869141 11.27414063 4.3125 10.4140625 C2.38251926 9.19315535 2.38251926 9.19315535 0.0625 9.3359375 C-3.91914489 10.84838966 -6.79394868 13.3902278 -10.02734375 16.1171875 C-12.5573232 18.21521924 -15.09593032 20.30142559 -17.65234375 22.3671875 C-18.27786133 22.87572266 -18.90337891 23.38425781 -19.54785156 23.90820312 C-21.37890625 25.3203125 -21.37890625 25.3203125 -24.65234375 27.3671875 C-26.85693359 26.99511719 -26.85693359 26.99511719 -28.65234375 26.3671875 C-28.98234375 24.7171875 -29.31234375 23.0671875 -29.65234375 21.3671875 C-24.90234375 17.3671875 -24.90234375 17.3671875 -22.65234375 17.3671875 C-22.66394531 16.36816406 -22.67554687 15.36914062 -22.6875 14.33984375 C-22.69652344 13.04949219 -22.70554687 11.75914063 -22.71484375 10.4296875 C-22.72644531 9.14191406 -22.73804687 7.85414062 -22.75 6.52734375 C-22.65234375 3.3671875 -22.65234375 3.3671875 -21.65234375 2.3671875 C-19.9861726 2.32654918 -18.3184628 2.3244665 -16.65234375 2.3671875 C-15.99234375 4.6771875 -15.33234375 6.9871875 -14.65234375 9.3671875 C-12.83906113 8.05576894 -11.02673861 6.74302276 -9.21484375 5.4296875 C-8.20550781 4.69878906 -7.19617188 3.96789062 -6.15625 3.21484375 C-2.21514054 0.30666158 -2.21514054 0.30666158 0 0 Z " fill="#FAF5F6" transform="translate(99.65234375,60.6328125)"/>
<path d="M0 0 C3.02508145 1.73602105 5.41790069 3.83580137 7 7 C7.37510464 10.25090692 7.66540869 12.84388451 5.98828125 15.7578125 C2.81268538 19.70585061 0.61681756 20.8203536 -4.375 21.375 C-8 21 -8 21 -10.875 18.625 C-13.83637431 14.96683174 -14.33618562 12.7929187 -14.29296875 8.0390625 C-13.83745033 4.86865433 -12.24684343 3.1807598 -10 1 C-6.77140153 -0.61429923 -3.49006347 -0.59570657 0 0 Z " fill="#2F2F2F" transform="translate(151,134)"/>
<path d="M0 0 C3.37495058 0.02428022 5.14420406 0.59958588 7.75 2.75 C10.48324942 5.54991404 11.19379054 6.33035679 11.625 10.125 C11.23003151 14.23267229 9.9067368 16.20426614 7.3125 19.375 C4.68936301 21.52971967 2.58241934 21.48616084 -0.6875 21.25 C-4.47607295 20.66442913 -6.32750415 19.49019452 -8.6875 16.375 C-10.29479993 13.16040014 -10.30680855 9.85111897 -9.6875 6.375 C-7.25 3.4375 -7.25 3.4375 -4.6875 1.375 C-3.6875 0.375 -3.6875 0.375 0 0 Z " fill="#2E2E2E" transform="translate(52.6875,133.625)"/>
<path d="M0 0 C3.01286852 1.76997892 5.41228811 3.82457623 7 7 C7 8.98 7 10.96 7 13 C2.71 13 -1.58 13 -6 13 C-6 11.68 -6 10.36 -6 9 C-3.69 9 -1.38 9 1 9 C0.34 8.01 -0.32 7.02 -1 6 C-4.08365871 5.7497843 -4.08365871 5.7497843 -7 6 C-7.67673447 9.40320934 -7.67673447 9.40320934 -8 13 C-6.24791868 15.18165579 -6.24791868 15.18165579 -4.125 15.16015625 C-3.42375 15.12792969 -2.7225 15.09570312 -2 15.0625 C1.80338983 14.90169492 1.80338983 14.90169492 4 16 C3.1875 17.9375 3.1875 17.9375 2 20 C-1.60572704 21.20190901 -4.2102435 21.32670315 -8 21 C-10.75329021 19.20437595 -12.52627461 17.94745078 -14 15 C-14.56020451 10.99347405 -15.0838993 6.81183167 -12.94140625 3.23046875 C-9.13808958 -0.34609191 -4.9301685 -1.25459556 0 0 Z " fill="#343434" transform="translate(120,134)"/>
<path d="M0 0 C1.98 0 3.96 0 6 0 C6.33 4.62 6.66 9.24 7 14 C8.65 14.33 10.3 14.66 12 15 C12.33 10.05 12.66 5.1 13 0 C14.98 0 16.96 0 19 0 C19 6.93 19 13.86 19 21 C16.6075 20.938125 14.215 20.87625 11.75 20.8125 C11.00331055 20.80581299 10.25662109 20.79912598 9.48730469 20.79223633 C6.00299721 20.62870441 4.21951575 20.18339291 1.53125 17.9375 C-0.37878183 14.2733573 -0.45010895 11.20892034 -0.25 7.1875 C-0.23195313 6.49462891 -0.21390625 5.80175781 -0.1953125 5.08789062 C-0.14851064 3.39132336 -0.07677624 1.69547524 0 0 Z " fill="#2E2E2E" transform="translate(66,134)"/>
<path d="M0 0 C0.7734375 -0.00773438 1.546875 -0.01546875 2.34375 -0.0234375 C4.95159728 0.45844732 5.83871866 1.36229376 7.5 3.375 C6.51 4.695 5.52 6.015 4.5 7.375 C2.19 6.715 -0.12 6.055 -2.5 5.375 C-1.1993321 7.9763358 -0.19919978 8.01688008 2.5 8.9375 C6.41008174 10.28508174 6.41008174 10.28508174 7.5 11.375 C7.97057576 17.72777277 7.97057576 17.72777277 6.26171875 20.078125 C3.04857098 22.44345772 -0.68749167 21.91177915 -4.5 21.375 C-7.0625 19.875 -7.0625 19.875 -8.5 18.375 C-7.84 17.055 -7.18 15.735 -6.5 14.375 C-2.045 15.365 -2.045 15.365 2.5 16.375 C-0.38637203 13.48862797 -1.85125535 12.77836333 -5.5 11.375 C-7.5 9.375 -7.5 9.375 -7.8125 6.4375 C-7.5 3.375 -7.5 3.375 -6.26171875 1.70703125 C-4.03861647 0.02614904 -2.76393378 -0.02763934 0 0 Z " fill="#313131" transform="translate(95.5,133.625)"/>
<path d="M0 0 C2.8125 -0.25 2.8125 -0.25 6 0 C6.474375 0.66 6.94875 1.32 7.4375 2 C8.93164758 4.38611175 8.93164758 4.38611175 12.375 4.5 C16.53696353 3.92593606 17.85658429 2.64708691 21 0 C23.8125 -0.25 23.8125 -0.25 26 0 C26.8125 2.1875 26.8125 2.1875 27 5 C24.03029423 8.54714856 21.05223596 11.6564405 16.36328125 12.44140625 C10.43842519 12.67657979 6.80945369 12.5374411 2.25 8.5 C1.13787288 7.36074783 0.04316968 6.20271328 -1 5 C-0.67 3.35 -0.34 1.7 0 0 Z " fill="#F9F1F1" transform="translate(87,86)"/>
<path d="M0 0 C1.65 0 3.3 0 5 0 C5.14513802 4.24964127 5.23402037 8.49864635 5.3125 12.75 C5.3753418 14.55984375 5.3753418 14.55984375 5.43945312 16.40625 C5.45556641 17.56640625 5.47167969 18.7265625 5.48828125 19.921875 C5.51446533 20.99018555 5.54064941 22.05849609 5.56762695 23.15917969 C5 26 5 26 2.67651367 28.36425781 C-0.47844845 30.29240214 -2.36650948 30.33799912 -6 30 C-6.66 28.02 -7.32 26.04 -8 24 C-4.535 23.505 -4.535 23.505 -1 23 C-0.67 15.41 -0.34 7.82 0 0 Z " fill="#292929" transform="translate(129,134)"/>
<path d="M0 0 C1.4540625 0.0309375 1.4540625 0.0309375 2.9375 0.0625 C1.89446873 3.2566985 0.82458496 6.44129175 -0.25 9.625 C-0.54197266 10.52025391 -0.83394531 11.41550781 -1.13476562 12.33789062 C-3.44523307 19.12023056 -5.90122763 24.95498509 -12.0625 29.0625 C-14.75 29.1875 -14.75 29.1875 -17.0625 29.0625 C-17.0625 27.0825 -17.0625 25.1025 -17.0625 23.0625 C-15.94875 22.815 -15.94875 22.815 -14.8125 22.5625 C-8.49424824 19.11618086 -6.92482594 9.96687619 -4.89453125 3.50390625 C-3.72631691 0.07604728 -3.72631691 0.07604728 0 0 Z " fill="#2F2F2F" transform="translate(177.0625,133.9375)"/>
<path d="M0 0 C1.98 0 3.96 0 6 0 C6 9.57 6 19.14 6 29 C4.02 29 2.04 29 0 29 C0 19.43 0 9.86 0 0 Z " fill="#3A3A3A" transform="translate(20,126)"/>
<path d="M0 0 C2.10546875 0.5234375 2.10546875 0.5234375 4.3515625 2.55859375 C6.52728901 6.23649224 6.56126539 9.20021665 6.35546875 13.3359375 C6.33742188 14.02880859 6.319375 14.72167969 6.30078125 15.43554688 C6.25397939 17.13211414 6.18224499 18.82796226 6.10546875 20.5234375 C4.45546875 20.5234375 2.80546875 20.5234375 1.10546875 20.5234375 C0.77546875 15.9034375 0.44546875 11.2834375 0.10546875 6.5234375 C-2.20453125 6.5234375 -4.51453125 6.5234375 -6.89453125 6.5234375 C-6.93725225 4.85731845 -6.93516957 3.18960865 -6.89453125 1.5234375 C-5.0474262 -0.32366755 -2.46925671 0.17604457 0 0 Z " fill="#2C2C2C" transform="translate(33.89453125,133.4765625)"/>
<path d="M0 0 C3.97799395 1.74283398 7.31642937 4.3227039 10.75 6.9375 C11.35199219 7.38029297 11.95398438 7.82308594 12.57421875 8.27929688 C14.1081107 9.44623735 15.56145217 10.71736414 17 12 C17 12.99 17 13.98 17 15 C15.68 14.34 14.36 13.68 13 13 C12.67 14.65 12.34 16.3 12 18 C11.34 18 10.68 18 10 18 C9.67 17.01 9.34 16.02 9 15 C7.35 14.67 5.7 14.34 4 14 C4.66 13.67 5.32 13.34 6 13 C5.67 10.03 5.34 7.06 5 4 C4.01 4.33 3.02 4.66 2 5 C1.34 4.67 0.68 4.34 0 4 C0 2.68 0 1.36 0 0 Z " fill="#C12130" transform="translate(104,72)"/>
<path d="M0 0 C1.65 0 3.3 0 5 0 C10.70440509 11.65766007 10.70440509 11.65766007 9.3125 16.25 C8.879375 17.1575 8.44625 18.065 8 19 C5.58981892 16.0031766 3.91085309 12.99429744 2.3125 9.5 C1.87550781 8.5615625 1.43851563 7.623125 0.98828125 6.65625 C0 4 0 4 0 0 Z " fill="#2F2F2F" transform="translate(158,134)"/>
<path d="M0 0 C2.15502531 3.23253796 2.46856135 4.25150923 2 8 C0.8125 9.875 0.8125 9.875 -1 11 C-4.34192692 10.75546876 -5.60543557 10.39456443 -8 8 C-8.36487512 5.15397406 -8.40199375 3.6135694 -6.8125 1.1875 C-4.36655047 -0.41501866 -2.86618213 -0.4409511 0 0 Z " fill="#F1F1F1" transform="translate(150,139)"/>
<path d="M0 0 C2.5 0.25 2.5 0.25 4.5 2.25 C4.84490322 6.30261287 4.80163882 7.79754176 2.5 11.25 C0 11.625 0 11.625 -2.5 11.25 C-4.80163882 7.79754176 -4.84490322 6.30261287 -4.5 2.25 C-2.5 0.25 -2.5 0.25 0 0 Z " fill="#F3F3F3" transform="translate(53.5,138.75)"/>
<path d="M0 0 C0.33 0.66 0.66 1.32 1 2 C0.40832031 2.25910156 -0.18335937 2.51820312 -0.79296875 2.78515625 C-3.15831069 4.08714093 -4.550917 5.40490423 -6.3125 7.4375 C-6.84488281 8.03433594 -7.37726563 8.63117188 -7.92578125 9.24609375 C-8.28027344 9.82488281 -8.63476562 10.40367188 -9 11 C-8.67 11.99 -8.34 12.98 -8 14 C-8.33 14.99 -8.66 15.98 -9 17 C-11 16 -11 16 -12 14 C-12.99 13.34 -13.98 12.68 -15 12 C-13.70418047 8.11254141 -11.93565654 7.22982395 -8.625 4.875 C-7.64789063 4.17117187 -6.67078125 3.46734375 -5.6640625 2.7421875 C-3 1 -3 1 0 0 Z " fill="#E80C2C" transform="translate(94,74)"/>
<path d="M0 0 C4.43058207 4.43058207 5.19158459 12.18562691 5.3125 18.25 C5.1847646 22.45854521 4.38012765 26.03213301 3 30 C1.70212704 26.10638113 1.93313886 22.4267852 2 18.375 C2.04571207 15.57742147 2.04713893 12.79887425 2 10 C1.67 9.67 1.34 9.34 1 9 C0.95919217 7.00041636 0.95745644 4.99954746 1 3 C0.34 2.67 -0.32 2.34 -1 2 C-0.67 1.34 -0.34 0.68 0 0 Z " fill="#A8494B" transform="translate(136,61)"/>
<path d="M0 0 C1.4540625 0.0309375 1.4540625 0.0309375 2.9375 0.0625 C3.5975 1.3825 4.2575 2.7025 4.9375 4.0625 C2.6275 4.0625 0.3175 4.0625 -2.0625 4.0625 C-2.0625 4.7225 -2.0625 5.3825 -2.0625 6.0625 C-2.7225 6.0625 -3.3825 6.0625 -4.0625 6.0625 C-4.3925 6.7225 -4.7225 7.3825 -5.0625 8.0625 C-4.046875 0.08258929 -4.046875 0.08258929 0 0 Z " fill="#D6D6D6" transform="translate(116.0625,138.9375)"/>
<path d="M0 0 C-6.52025401 4.41157612 -12.15627837 7.03205137 -20 8 C-20 6 -20 6 -18 4 C-16.865625 4.020625 -15.73125 4.04125 -14.5625 4.0625 C-11.09860606 4.37736399 -11.09860606 4.37736399 -9.375 2.625 C-8.92125 2.08875 -8.4675 1.5525 -8 1 C-3.6 -1.2 -3.6 -1.2 0 0 Z " fill="#A93137" transform="translate(126,111)"/>
<path d="M0 0 C0.66 0 1.32 0 2 0 C2 0.66 2 1.32 2 2 C4.97 2 7.94 2 11 2 C10.67 2.99 10.34 3.98 10 5 C3.9453125 5.1953125 3.9453125 5.1953125 2 5 C1.34 4.34 0.68 3.68 0 3 C0 2.01 0 1.02 0 0 Z " fill="#EBEBEB" transform="translate(112,145)"/>
<path d="M0 0 C1.98 0.495 1.98 0.495 4 1 C4 2.65 4 4.3 4 6 C2.35 5.67 0.7 5.34 -1 5 C-0.67 3.35 -0.34 1.7 0 0 Z " fill="#2F2F2F" transform="translate(130,125)"/>
<path d="M0 0 C1.48206495 0.254496 2.96068615 0.52911762 4.4375 0.8125 C5.67306641 1.03873047 5.67306641 1.03873047 6.93359375 1.26953125 C7.95646484 1.63111328 7.95646484 1.63111328 9 2 C9.33 2.99 9.66 3.98 10 5 C9.67 5.66 9.34 6.32 9 7 C5.18315774 5.44499019 2.80804268 2.96404505 0 0 Z " fill="#BD2B39" transform="translate(115,70)"/>
<path d="M0 0 C0 0.33 0 0.66 0 1 C-1.65 1 -3.3 1 -5 1 C-4.34 3.31 -3.68 5.62 -3 8 C-3.99 8 -4.98 8 -6 8 C-7.6875 5.5 -7.6875 5.5 -9 3 C-6.38997624 -0.48003168 -4.1689578 -0.27793052 0 0 Z " fill="#E3E3E3" transform="translate(163,133)"/>
<path d="M0 0 C0.33 0.99 0.66 1.98 1 3 C-4.53846154 3.36923077 -4.53846154 3.36923077 -6.875 1.5 C-7.24625 1.005 -7.6175 0.51 -8 0 C-5.13822943 -1.43088528 -3.06624227 -0.59991697 0 0 Z " fill="#DEDEDE" transform="translate(97,147)"/>
<path d="M0 0 C0.66 0 1.32 0 2 0 C2.33 2.64 2.66 5.28 3 8 C0.07175348 8.97608217 -1.95613276 9.08226668 -5 9 C-5.33 7.68 -5.66 6.36 -6 5 C-3.03 5.495 -3.03 5.495 0 6 C0 4.02 0 2.04 0 0 Z " fill="#AA353A" transform="translate(129,81)"/>
<path d="M0 0 C0.99 0.66 1.98 1.32 3 2 C1.35830472 4.02054804 -0.30911778 6.02043058 -2 8 C-2.33 8 -2.66 8 -3 8 C-3 6.35 -3 4.7 -3 3 C-2.01 3 -1.02 3 0 3 C0 2.01 0 1.02 0 0 Z " fill="#9F2E30" transform="translate(131,100)"/>
<path d="M0 0 C3.09423168 3.09423168 3.93706005 6.5523812 4.125 10.875 C4.08375 11.57625 4.0425 12.2775 4 13 C1.64551835 10.44931155 1.01672076 9.28982642 0.8125 5.75 C0.874375 4.8425 0.93625 3.935 1 3 C0.34 2.67 -0.32 2.34 -1 2 C-0.67 1.34 -0.34 0.68 0 0 Z " fill="#AA3236" transform="translate(136,61)"/>
<path d="M0 0 C2.88437779 1.29299694 4.87219421 2.65941363 7 5 C6.01 5.495 6.01 5.495 5 6 C5 5.34 5 4.68 5 4 C4.01 4.33 3.02 4.66 2 5 C1.34 4.67 0.68 4.34 0 4 C0 2.68 0 1.36 0 0 Z " fill="#CE2639" transform="translate(104,72)"/>
<path d="M0 0 C0.33 0.66 0.66 1.32 1 2 C1.66 2.33 2.32 2.66 3 3 C2.34 3 1.68 3 1 3 C1.99 3.99 2.98 4.98 4 6 C3.67 6.66 3.34 7.32 3 8 C1.68 7.34 0.36 6.68 -1 6 C-0.67 4.02 -0.34 2.04 0 0 Z " fill="#F8FAFA" transform="translate(89,87)"/>
<path d="M0 0 C0.598125 0.350625 1.19625 0.70125 1.8125 1.0625 C1.4825 2.7125 1.1525 4.3625 0.8125 6.0625 C-1.1875 5.0625 -1.1875 5.0625 -2.1875 3.0625 C-3.16770375 2.0430881 -4.16553008 1.04003644 -5.1875 0.0625 C-2.1875 -0.9375 -2.1875 -0.9375 0 0 Z " fill="#EF0427" transform="translate(84.1875,84.9375)"/>
<path d="M0 0 C-0.33 1.65 -0.66 3.3 -1 5 C-2.98 5 -4.96 5 -7 5 C-2.25 0 -2.25 0 0 0 Z " fill="#E31734" transform="translate(86,80)"/>
<path d="M0 0 C0.99 0.33 1.98 0.66 3 1 C0.25 5.875 0.25 5.875 -2 7 C-1.125 2.25 -1.125 2.25 0 0 Z " fill="#ED1032" transform="translate(66,56)"/>
</svg>
