<?xml version="1.0" encoding="UTF-8"?>
<svg version="1.1" xmlns="http://www.w3.org/2000/svg" width="531" height="531">
<path d="M0 0 C1.46389664 -0.00855011 1.46389664 -0.00855011 2.95736694 -0.01727295 C5.01974422 -0.02667454 7.08213618 -0.03323754 9.14453125 -0.03710938 C12.21643406 -0.04669709 15.28763205 -0.07771775 18.359375 -0.109375 C36.69797868 -0.20839007 54.72996524 1.57967882 72.5859375 5.890625 C74.19106201 6.27190552 74.19106201 6.27190552 75.82861328 6.66088867 C107.10547104 14.33651536 137.41642331 27.40294032 163.6484375 46.203125 C164.29377441 46.66444824 164.93911133 47.12577148 165.60400391 47.60107422 C184.96507637 61.54917058 202.94880837 77.33338832 217.6484375 96.203125 C218.52701223 97.29298559 219.40730612 98.38146192 220.2890625 99.46875 C254.30572909 141.65755281 276.5712067 196.61455693 276.8515625 251.1796875 C276.85862213 252.09959976 276.86568176 253.01951202 276.87295532 253.96730042 C277.10259758 292.68404714 277.10259758 292.68404714 273.6484375 310.203125 C273.44976074 311.22744629 273.25108398 312.25176758 273.04638672 313.30712891 C268.38570125 336.61055624 261.12204758 358.86749153 250.6484375 380.203125 C250.28637207 380.94111328 249.92430664 381.67910156 249.55126953 382.43945312 C241.80961853 398.01321935 232.40260626 412.54242414 221.6484375 426.203125 C220.94332031 427.10160156 220.23820312 428.00007813 219.51171875 428.92578125 C213.56892783 436.34093329 207.18856277 443.31663796 200.6484375 450.203125 C199.47087891 451.44449219 199.47087891 451.44449219 198.26953125 452.7109375 C192.76637676 458.36176161 186.82692934 463.31014511 180.6484375 468.203125 C179.55286281 469.08919797 178.45782885 469.97593985 177.36328125 470.86328125 C139.5533986 501.31271076 93.79807518 520.20310741 45.6484375 526.203125 C44.98830154 526.28932098 44.32816559 526.37551697 43.64802551 526.46432495 C37.85218929 527.17399518 32.13260499 527.37897993 26.296875 527.40625 C25.32094391 527.41195007 24.34501282 527.41765015 23.33950806 527.42352295 C21.27713078 527.43292454 19.21473882 527.43948754 17.15234375 527.44335938 C14.08044094 527.45294709 11.00924295 527.48396775 7.9375 527.515625 C-10.40110368 527.61464007 -28.43309024 525.82657118 -46.2890625 521.515625 C-47.35914551 521.26143799 -48.42922852 521.00725098 -49.53173828 520.74536133 C-68.22930267 516.15680818 -86.076585 509.68336904 -103.3515625 501.203125 C-104.08955078 500.84105957 -104.82753906 500.47899414 -105.58789062 500.10595703 C-121.16165685 492.36430603 -135.69086164 482.95729376 -149.3515625 472.203125 C-150.25003906 471.49800781 -151.14851563 470.79289062 -152.07421875 470.06640625 C-159.48937079 464.12361533 -166.46507546 457.74325027 -173.3515625 451.203125 C-174.59292969 450.02556641 -174.59292969 450.02556641 -175.859375 448.82421875 C-181.51019911 443.32106426 -186.45858261 437.38161684 -191.3515625 431.203125 C-192.23763547 430.10755031 -193.12437735 429.01251635 -194.01171875 427.91796875 C-218.72243202 397.24063964 -235.5730855 361.41205338 -244.6640625 323.140625 C-244.89440186 322.18655762 -245.12474121 321.23249023 -245.36206055 320.24951172 C-249.3418256 302.56328976 -250.85960582 284.74505303 -250.74267578 266.65087891 C-250.72656171 263.70298041 -250.7426688 260.75645204 -250.76171875 257.80859375 C-250.78258188 239.73934587 -248.91039455 221.85396503 -244.6640625 204.265625 C-244.40987549 203.19554199 -244.15568848 202.12545898 -243.89379883 201.02294922 C-239.30524568 182.32538483 -232.83180654 164.4781025 -224.3515625 147.203125 C-223.98949707 146.46513672 -223.62743164 145.72714844 -223.25439453 144.96679688 C-215.51274353 129.39303065 -206.10573126 114.86382586 -195.3515625 101.203125 C-194.64644531 100.30464844 -193.94132812 99.40617187 -193.21484375 98.48046875 C-187.27205283 91.06531671 -180.89168777 84.08961204 -174.3515625 77.203125 C-173.56652344 76.37554687 -172.78148437 75.54796875 -171.97265625 74.6953125 C-166.46950176 69.04448839 -160.53005434 64.09610489 -154.3515625 59.203125 C-153.25598781 58.31705203 -152.16095385 57.43031015 -151.06640625 56.54296875 C-109.12679063 22.76774175 -54.26894775 0.25359602 0 0 Z M0.375 32.66796875 C-5.60586606 32.2948801 -10.97329622 32.30063249 -16.3515625 35.203125 C-22.79807511 41.98288954 -26.54383104 50.99720675 -30.49560547 59.37890625 C-33.26315859 65.1853948 -36.57568215 70.67307303 -39.8515625 76.203125 C-41.09400418 78.34730461 -42.33356986 80.49315319 -43.5703125 82.640625 C-44.1890625 83.713125 -44.8078125 84.785625 -45.4453125 85.890625 C-48.76159468 91.65334486 -52.05643647 97.4282932 -55.3515625 103.203125 C-61.10740794 113.29045974 -66.89620487 123.35827453 -72.70703125 133.4140625 C-77.27860873 141.33046291 -81.82103183 149.2632003 -86.3515625 157.203125 C-92.09862774 167.27507211 -97.87799514 177.32787757 -103.68066406 187.36791992 C-109.20723484 196.93691218 -114.69055898 206.53033319 -120.16210938 216.13085938 C-120.79697266 217.24396484 -121.43183594 218.35707031 -122.0859375 219.50390625 C-122.92463379 220.97597534 -122.92463379 220.97597534 -123.78027344 222.4777832 C-124.83985373 224.31558537 -125.93271229 226.13454659 -127.05566406 227.93432617 C-128.51688848 230.05710092 -128.51688848 230.05710092 -128.3515625 232.203125 C-82.1515625 232.203125 -35.9515625 232.203125 11.6484375 232.203125 C-1.64695226 256.13482657 -1.64695226 256.13482657 -6.19109917 263.35305023 C-9.24749102 268.28889933 -11.74399517 272.99160792 -13.65628052 278.48156738 C-16.35283514 285.48010688 -19.3150109 291.53357935 -25.3515625 296.203125 C-36.55461623 300.91094288 -50.88298076 299.05856354 -62.71445608 298.63657951 C-67.66506133 298.48562005 -72.61608256 298.47238169 -77.56863403 298.44396973 C-86.92832727 298.36962825 -96.28122114 298.1730889 -105.63793099 297.93158197 C-116.297305 297.66247898 -126.95701982 297.53116538 -137.61894965 297.41089153 C-159.53360353 297.16061845 -181.44215343 296.73902814 -203.3515625 296.203125 C-201.212739 292.32473667 -199.07369886 288.44646792 -196.93447876 284.56829834 C-196.2105051 283.25574786 -195.48658531 281.94316766 -194.76272583 280.6305542 C-187.32206451 267.13817226 -179.84877767 253.66417019 -172.3515625 240.203125 C-171.43431396 238.55425293 -171.43431396 238.55425293 -170.49853516 236.87207031 C-164.53759577 226.16098271 -158.56751956 215.46313292 -152.30810547 204.9230957 C-148.35193324 198.24675776 -144.5073379 191.50731476 -140.6640625 184.765625 C-135.41761733 175.56387979 -130.15219959 166.37382354 -124.8515625 157.203125 C-119.65913502 148.21773009 -114.49475136 139.21675613 -109.3515625 130.203125 C-104.20837328 121.18949323 -99.04385361 112.18859914 -93.8515625 103.203125 C-86.61520815 90.67944102 -79.41746417 78.13353413 -72.27392578 65.55664062 C-70.88743239 63.13793688 -69.4861903 60.73262679 -68.06591797 58.33398438 C-67.69047348 57.69386414 -67.31502899 57.0537439 -66.9282074 56.39422607 C-66.19974708 55.15311517 -65.46498223 53.91567829 -64.72328186 52.68243408 C-63.87136894 51.22345948 -63.10299243 49.71630561 -62.3515625 48.203125 C-62.6815625 47.543125 -63.0115625 46.883125 -63.3515625 46.203125 C-88.40870074 55.59618756 -111.88845183 67.76919922 -132.3515625 85.203125 C-133.45933364 86.12666418 -134.56743118 87.04981194 -135.67578125 87.97265625 C-147.01032355 97.47610316 -157.20055465 107.53599065 -166.3515625 119.203125 C-167.11855469 120.1415625 -167.88554687 121.08 -168.67578125 122.046875 C-206.82171997 169.71394175 -222.35285201 231.80501291 -215.75830078 292.00927734 C-210.33584558 334.58824426 -193.28852717 376.4210041 -165.3515625 409.203125 C-164.41635353 410.32265516 -163.48148333 411.44246837 -162.546875 412.5625 C-153.32801141 423.53931728 -143.60033079 433.27888542 -132.3515625 442.203125 C-131.16820312 443.18732422 -131.16820312 443.18732422 -129.9609375 444.19140625 C-102.47270406 466.90105607 -69.11510483 481.34536464 -34.6015625 489.453125 C-33.63130127 489.69442139 -32.66104004 489.93571777 -31.66137695 490.18432617 C-30.75991943 490.38131104 -29.85846191 490.5782959 -28.9296875 490.78125 C-28.13981445 490.96075195 -27.34994141 491.14025391 -26.53613281 491.32519531 C-24.19778567 491.40315835 -24.19778567 491.40315835 -22.26416016 489.5703125 C-20.23786092 487.06239862 -18.70695096 484.58538121 -17.171875 481.75 C-16.58011475 480.66831543 -15.98835449 479.58663086 -15.37866211 478.47216797 C-15.06911591 477.89932068 -14.7595697 477.32647339 -14.44064331 476.73626709 C-12.78423429 473.67261039 -11.10436399 470.62186002 -9.42578125 467.5703125 C-9.08424515 466.9483902 -8.74270905 466.3264679 -8.39082336 465.68569946 C-5.12548733 459.75642082 -1.72401828 453.91062726 1.7109375 448.078125 C6.45682368 440.00678102 11.095702 431.88498127 15.6484375 423.703125 C20.78468915 414.47377729 26.05056374 405.33075375 31.3984375 396.22265625 C35.57087709 389.0978431 39.63338994 381.91766359 43.6484375 374.703125 C48.78107716 365.48041311 54.0419651 356.3431911 59.38745117 347.24243164 C64.2825896 338.88576534 69.01279274 330.4425371 73.71923828 321.97851562 C77.41047215 315.35858605 81.19302116 308.80915545 85.16137695 302.35131836 C86.90547724 299.94570017 86.90547724 299.94570017 87.6484375 297.203125 C62.8984375 297.203125 38.1484375 297.203125 12.6484375 297.203125 C25.95051905 273.2593782 25.95051905 273.2593782 30.48845482 266.05319977 C33.54573215 261.11703123 36.039392 256.41768379 37.94546509 250.92468262 C40.63756269 243.91751443 43.59922386 237.86806715 49.6484375 233.203125 C60.91776499 228.48746091 75.31700164 230.34779529 87.21326017 230.76967049 C92.19189739 230.92062161 97.1709475 230.93386772 102.15151978 230.96228027 C111.56431829 231.03662395 120.97035643 231.23316713 130.38018858 231.47466803 C141.1000265 231.74376344 151.82020313 231.87508287 162.54258227 231.99535847 C184.58162869 232.24563674 206.61460599 232.66723209 228.6484375 233.203125 C226.41674501 237.02950534 224.1849442 240.85582248 221.953125 244.68212891 C221.32623779 245.75697037 220.69935059 246.83181183 220.0534668 247.93922424 C215.26004831 256.15704491 210.45943337 264.37058466 205.6484375 272.578125 C204.9440041 273.7812463 204.23957706 274.98437133 203.53515625 276.1875 C202.84379983 277.3672167 202.15239555 278.54690536 201.4609375 279.7265625 C200.57341797 281.2412915 200.57341797 281.2412915 199.66796875 282.78662109 C199.00152344 283.91406738 198.33507812 285.04151367 197.6484375 286.203125 C197.11899536 287.49822495 197.11899536 287.49822495 196.57885742 288.81948853 C195.20207152 291.80873499 194.01427388 293.90337983 191.6484375 296.203125 C187.51185633 297.24493412 183.63819683 297.05043674 179.40423584 296.71205521 C177.29818161 296.55181482 175.20143822 296.46864233 173.09033203 296.40658569 C167.10138662 296.22167977 161.12281859 295.94011385 155.14599609 295.51464844 C138.66293882 293.81496189 138.66293882 293.81496189 123.96484375 299.4239502 C119.33272947 305.12954893 116.44915413 311.52383491 113.79150391 318.33270264 C112.38869339 321.85538397 110.66143365 324.9250507 108.7109375 328.171875 C107.68832035 330.01463622 106.66742771 331.85835572 105.6484375 333.703125 C100.51499587 342.93400756 95.24627435 352.07555911 89.8984375 361.18359375 C85.72599791 368.3084069 81.66348506 375.48858641 77.6484375 382.703125 C72.51212361 391.93243902 67.24631215 401.07549473 61.8984375 410.18359375 C57.72599791 417.3084069 53.66348506 424.48858641 49.6484375 431.703125 C45.07271418 439.92512784 40.41248778 448.08878999 35.6484375 456.203125 C30.60331585 464.80103822 25.6504688 473.44657022 20.7734375 482.140625 C19.85304688 483.77741211 19.85304688 483.77741211 18.9140625 485.44726562 C18.35460937 486.44822266 17.79515625 487.44917969 17.21875 488.48046875 C16.72133301 489.36984131 16.22391602 490.25921387 15.71142578 491.17553711 C14.57105054 492.96918019 14.57105054 492.96918019 14.6484375 494.203125 C45.80635048 493.54159819 76.00943351 487.68548034 104.6484375 475.203125 C105.41317383 474.87086914 106.17791016 474.53861328 106.96582031 474.19628906 C123.74079492 466.80427766 139.308725 457.64197744 153.6484375 446.203125 C155.01162109 445.12804687 155.01162109 445.12804687 156.40234375 444.03125 C163.43548931 438.38872639 170.08550534 432.37889138 176.6484375 426.203125 C177.30714844 425.58695312 177.96585937 424.97078125 178.64453125 424.3359375 C183.79438208 419.36448797 188.20340186 413.80138828 192.6484375 408.203125 C193.44378906 407.22472656 194.23914063 406.24632812 195.05859375 405.23828125 C232.18025464 358.5861781 248.81222932 297.07607222 242.38671875 238.04296875 C237.13352779 194.59944683 220.5967941 153.0761145 192.6484375 119.203125 C192.18469727 118.63787109 191.72095703 118.07261719 191.24316406 117.49023438 C181.07332129 105.16685776 170.25849781 94.05364303 157.6484375 84.203125 C156.67648437 83.41421875 155.70453125 82.6253125 154.703125 81.8125 C145.85085244 74.75730533 136.45444132 68.8432061 126.6484375 63.203125 C125.52308594 62.5529541 125.52308594 62.5529541 124.375 61.88964844 C93.11153244 44.05378611 56.6188329 34.17188272 20.6484375 33.203125 C19.50632812 33.16316406 18.36421875 33.12320313 17.1875 33.08203125 C14.06333627 33.02442736 10.97200562 33.10531602 7.85058594 33.21533203 C5.32981319 33.20135879 2.88181525 32.9296002 0.375 32.66796875 Z " fill="#003E71" transform="translate(252.3515625,1.796875)"/>
</svg>
