<?xml version="1.0" encoding="UTF-8"?>
<svg version="1.1" xmlns="http://www.w3.org/2000/svg" width="600" height="196">
<path d="M0 0 C198 0 396 0 600 0 C600 64.68 600 129.36 600 196 C402 196 204 196 0 196 C0 131.32 0 66.64 0 0 Z " fill="#FDFEFE" transform="translate(0,0)"/>
<path d="M0 0 C17.53125 -0.04125 35.0625 -0.0825 53.125 -0.125 C61.39135498 -0.15231201 61.39135498 -0.15231201 69.82470703 -0.18017578 C76.61694336 -0.18920898 76.61694336 -0.18920898 79.80880737 -0.19088745 C82.01153372 -0.19393439 84.21425699 -0.20091754 86.41696167 -0.21115112 C117.4773216 -0.34809014 117.4773216 -0.34809014 131.5 5.125 C132.30405273 5.43356934 133.10810547 5.74213867 133.93652344 6.06005859 C158.79577284 15.89791117 178.27372772 34.45237454 189 59 C194.12763909 71.73659858 196.39358548 83.91820624 196.375 97.625 C196.37338867 98.8610498 196.37177734 100.09709961 196.37011719 101.37060547 C196.2430055 110.87282749 195.12484637 119.02691685 192 128 C191.71125 129.01449219 191.4225 130.02898437 191.125 131.07421875 C189.68205081 135.58987671 188.86511235 137.49399089 184.6875 139.9375 C183.1373683 140.34238515 181.57138679 140.68761588 180 141 C178.28296875 141.40992188 178.28296875 141.40992188 176.53125 141.828125 C168.80879853 143.55468935 161.91049473 144.17088622 154 144 C154.3081665 144.70608398 154.61633301 145.41216797 154.93383789 146.13964844 C156.32192052 149.33810214 157.69235492 152.54382382 159.0625 155.75 C159.54783203 156.86117187 160.03316406 157.97234375 160.53320312 159.1171875 C160.98759766 160.18710938 161.44199219 161.25703125 161.91015625 162.359375 C162.33433838 163.34389648 162.75852051 164.32841797 163.19555664 165.34277344 C164.05196144 168.17163834 164.17224964 169.3220128 163 172 C148.66987363 186.67131985 125.7600086 195.34819712 105.54818726 196.08998299 C102.75753659 196.12234577 99.96855613 196.12374075 97.17773438 196.11352539 C96.10625404 196.11364593 95.03477371 196.11376646 93.93082428 196.11389065 C90.48511125 196.11314819 87.03945327 196.10555045 83.59375 196.09765625 C81.45735704 196.09618477 79.32096371 196.09516533 77.18457031 196.09460449 C69.28970802 196.08937555 61.39485346 196.07541428 53.5 196.0625 C35.845 196.041875 18.19 196.02125 0 196 C0 131.32 0 66.64 0 0 Z " fill="#F7FBFC" transform="translate(0,0)"/>
<path d="M0 0 C99.12210308 0 99.12210308 0 118 18 C129.180377 30.90984157 133.27427584 45.06507091 132.21582031 61.90136719 C130.55099252 78.09012253 121.95996514 90.39797325 109.875 100.75 C95.13365198 111.63907938 75.28191415 114.18710108 57.5 114.09765625 C56.54480469 114.09664917 55.58960938 114.09564209 54.60546875 114.09460449 C51.07030012 114.08941067 47.53514873 114.07544968 44 114.0625 C36.08 114.041875 28.16 114.02125 20 114 C20 134.46 20 154.92 20 176 C13.4 176 6.8 176 0 176 C0 117.92 0 59.84 0 0 Z " fill="#038AFE" transform="translate(239,8)"/>
<path d="M0 0 C18.85660829 15.96381965 31.8844995 37.82063668 35.24926758 62.51464844 C35.51991265 67.18519918 35.52924986 71.83741314 35.49926758 76.51464844 C35.50700195 77.72121094 35.51473633 78.92777344 35.52270508 80.17089844 C35.49022447 95.11197896 35.49022447 95.11197896 33.24926758 100.51464844 C30.58911133 102.66308594 30.58911133 102.66308594 27.18676758 103.88964844 C26.57551025 104.11604004 25.96425293 104.34243164 25.33447266 104.57568359 C14.83040042 108.29727704 4.41042556 110.79886989 -6.75073242 110.51464844 C-7.00129395 110.02287109 -7.25185547 109.53109375 -7.51000977 109.02441406 C-16.10615651 92.22976546 -24.93918117 76.46388737 -37.75073242 62.51464844 C-38.60151367 61.56976563 -39.45229492 60.62488281 -40.32885742 59.65136719 C-47.15668313 52.42491094 -54.77794449 47.04073727 -63.1159668 41.69042969 C-64.85086925 40.44262649 -66.28129589 39.06212788 -67.75073242 37.51464844 C-49.08845583 24.95350073 -27.91028257 22.04572156 -5.90698242 25.80371094 C-1.52377634 26.79101726 2.66549954 28.17828759 6.88598633 29.70996094 C9.14872384 30.62208959 9.14872384 30.62208959 11.24926758 30.51464844 C0.52510775 24.4225824 -9.78384588 19.57714198 -21.75073242 16.51464844 C-22.70206055 16.26972656 -23.65338867 16.02480469 -24.63354492 15.77246094 C-43.18568332 11.72975615 -62.26743469 15.35482598 -78.75073242 24.51464844 C-80.00460576 25.40549868 -81.24583814 26.31442498 -82.47338867 27.24121094 C-86.12868336 29.77682656 -87.77674522 29.85530412 -92.08642578 29.11157227 C-94.0128782 28.67996078 -95.93513391 28.22947162 -97.85449219 27.76733398 C-108.2206922 25.40462436 -118.09094677 25.15751505 -128.68823242 25.32714844 C-130.35423574 25.34224522 -132.02025253 25.35592467 -133.6862793 25.36816406 C-137.70810571 25.40072233 -141.7292634 25.45221818 -145.75073242 25.51464844 C-138.62827532 6.91573017 -119.09470431 -5.91198208 -101.81323242 -14.20800781 C-96.26482393 -16.5222037 -90.59153671 -18.09532034 -84.75073242 -19.48535156 C-83.8097168 -19.71222656 -82.86870117 -19.93910156 -81.89916992 -20.17285156 C-53.20464753 -25.99258568 -22.64120792 -18.40896704 0 0 Z " fill="#038AFD" transform="translate(160.750732421875,21.4853515625)"/>
<path d="M0 0 C3.45374336 2.75247567 6.68588445 5.56915624 9.75 8.75 C8.13462556 12.64917968 5.47075127 15.46293772 2.625 18.5 C1.92310547 19.25990234 1.92310547 19.25990234 1.20703125 20.03515625 C0.05873459 21.27719141 -1.09508672 22.51411494 -2.25 23.75 C-5.38743698 22.39468713 -7.83305398 20.54013357 -10.46044922 18.37353516 C-25.99782955 5.65855003 -44.95493173 -0.86729649 -65.07617188 0.52685547 C-83.6101473 2.4293772 -98.4979611 11.65977394 -110.52734375 25.33984375 C-124.40625391 43.05476746 -126.8031857 63.22115086 -124.97265625 85.05859375 C-124.56044787 87.70065318 -123.98761245 90.18000293 -123.25 92.75 C-122.78980469 94.37035156 -122.78980469 94.37035156 -122.3203125 96.0234375 C-116.65203198 113.73192769 -105.70420903 127.83359754 -89.25 136.75 C-74.08210856 144.15711797 -55.13366907 147.22654508 -38.75 141.72265625 C-37.5125 141.24119141 -37.5125 141.24119141 -36.25 140.75 C-35.280625 140.39808594 -34.31125 140.04617187 -33.3125 139.68359375 C-21.55145271 135.13818899 -12.319316 128.42585326 -3.25 119.75 C0.46045247 121.32780923 3.04906384 123.65703248 6 126.375 C7.33804688 127.60089844 7.33804688 127.60089844 8.703125 128.8515625 C9.37859375 129.47804687 10.0540625 130.10453125 10.75 130.75 C9.35672912 135.46503253 6.69425225 138.02658106 3 141.0625 C2.42362793 141.54033936 1.84725586 142.01817871 1.25341797 142.51049805 C-21.23798243 160.64999772 -45.97995757 164.45311494 -74.25 162.75 C-79.49591796 162.10662346 -84.34021679 160.70369787 -89.25 158.75 C-90.21035156 158.37617188 -91.17070312 158.00234375 -92.16015625 157.6171875 C-94.93055774 156.44044875 -97.58126632 155.1410237 -100.25 153.75 C-101.20261719 153.27046875 -102.15523438 152.7909375 -103.13671875 152.296875 C-123.30599388 141.434468 -136.7534231 122.45684151 -143.625 100.875 C-146.21577031 91.98889996 -147.61973443 83.44371732 -147.5625 74.1875 C-147.55758545 73.23367432 -147.5526709 72.27984863 -147.54760742 71.29711914 C-147.16261539 47.66650557 -139.12836318 26.43272263 -123.25 8.75 C-122.63640625 8.04230469 -122.0228125 7.33460937 -121.390625 6.60546875 C-90.71686155 -26.62444165 -34.50747981 -26.47438191 0 0 Z " fill="#048AFD" transform="translate(540.25,23.25)"/>
<path d="M0 0 C3.7709024 0.66152402 7.22027533 1.70806553 10.8203125 3.00390625 C45.50130536 15.2071931 80.17810842 22.05971185 117 23 C127.20487945 44.4721847 127.20487945 44.4721847 126.7265625 48.0390625 C123.58928834 56.50632932 108.32881499 63.01002262 100.55859375 66.58203125 C75.39964417 76.60322537 47.05026725 77.22650448 21.91015625 66.78125 C10.12562799 61.56846739 0.42623962 54.51540398 -8.62548828 45.38525391 C-9.87491956 44.12605798 -11.15282998 42.8952817 -12.43359375 41.66796875 C-13.42552734 40.65669922 -13.42552734 40.65669922 -14.4375 39.625 C-14.99308594 39.06039062 -15.54867188 38.49578125 -16.12109375 37.9140625 C-17 36 -17 36 -16.22460938 33.24780273 C-15.04448978 30.11799193 -13.73423776 27.13497603 -12.28515625 24.12109375 C-11.76373047 23.03505859 -11.24230469 21.94902344 -10.70507812 20.83007812 C-10.16302734 19.71052734 -9.62097656 18.59097656 -9.0625 17.4375 C-8.52431641 16.31408203 -7.98613281 15.19066406 -7.43164062 14.03320312 C-5.11761308 9.23109663 -2.80304218 4.53922011 0 0 Z " fill="#0289FE" transform="translate(37,122)"/>
<path d="M0 0 C8.229375 -0.0825 16.45875 -0.165 24.9375 -0.25 C27.49749756 -0.28641602 30.05749512 -0.32283203 32.69506836 -0.36035156 C51.14828134 -0.51338315 68.62128627 0.22924301 82.875 13.375 C90.6251552 21.6369579 91.47772431 31.02919262 91.27734375 41.9140625 C90.86774649 50.72142251 87.19286652 58.73832385 81 65 C68.8307944 74.89608984 55.74924235 77.33869694 40.4296875 77.1953125 C39.39787354 77.19329834 38.36605957 77.19128418 37.30297852 77.18920898 C33.49360633 77.17884144 29.68429812 77.15091983 25.875 77.125 C17.33625 77.08375 8.7975 77.0425 0 77 C0 51.59 0 26.18 0 0 Z " fill="#FDFEFE" transform="translate(259,26)"/>
<path d="M0 0 C3.4720992 1.90739995 6.85123187 3.87333379 10.1328125 6.08984375 C10.78660889 6.52941406 11.44040527 6.96898438 12.11401367 7.421875 C18.65893403 11.93111097 24.33174649 17.11314742 30.0078125 22.65234375 C31.23177734 23.76609375 31.23177734 23.76609375 32.48046875 24.90234375 C44.27758332 35.95134861 54.43736952 50.38135341 62.0078125 64.65234375 C62.0078125 65.31234375 62.0078125 65.97234375 62.0078125 66.65234375 C25.6585606 67.83266166 -10.19479256 62.18006966 -44.9921875 51.65234375 C-36.76945622 34.22798461 -23.6717435 19.03158864 -9.9921875 5.65234375 C-9.10829346 4.73702881 -9.10829346 4.73702881 -8.20654297 3.80322266 C-3.82217999 -0.44409141 -3.82217999 -0.44409141 0 0 Z " fill="#038AFD" transform="translate(84.9921875,66.34765625)"/>
<path d="M0 0 C6.6 0 13.2 0 20 0 C20 58.08 20 116.16 20 176 C13.4 176 6.8 176 0 176 C0 117.92 0 59.84 0 0 Z " fill="#0189FE" transform="translate(580,8)"/>
<path d="M0 0 C1.57322692 0.00067593 3.14665351 0.03411767 4.71875 0.09375 C5.55809082 0.11147461 6.39743164 0.12919922 7.26220703 0.14746094 C40.88767103 1.26267103 40.88767103 1.26267103 49.21875 9.59375 C48.52910156 10.30917969 47.83945312 11.02460937 47.12890625 11.76171875 C32.4033113 27.27538474 22.54253783 45.49982279 13.21875 64.59375 C9.91875 64.26375 6.61875 63.93375 3.21875 63.59375 C5.85875 64.91375 8.49875 66.23375 11.21875 67.59375 C10.30277828 70.19816293 9.38603793 72.80230061 8.46875 75.40625 C8.19651611 76.18000977 7.92428223 76.95376953 7.64379883 77.75097656 C5.8095084 82.95345506 3.92826734 88.13561968 1.98046875 93.296875 C1.1800894 95.71032657 0.66659715 98.09290057 0.21875 100.59375 C-0.44125 100.59375 -1.10125 100.59375 -1.78125 100.59375 C-15.02138394 76.17390642 -20.17518269 48.81976812 -12.78125 21.59375 C-11.09286482 16.13487947 -9.0924967 10.81813055 -6.78125 5.59375 C-6.3996875 4.62953125 -6.018125 3.6653125 -5.625 2.671875 C-3.78125 0.59375 -3.78125 0.59375 0 0 Z " fill="#038AFD" transform="translate(15.78125,49.40625)"/>
<path d="M0 0 C0.33 0 0.66 0 1 0 C1.08636719 0.680625 1.17273438 1.36125 1.26171875 2.0625 C3.09984102 14.74385729 6.76123497 26.46031856 12.86328125 37.7421875 C14 40 14 40 14 42 C14.66 42 15.32 42 16 42 C16.07089844 40.9378125 16.14179688 39.875625 16.21484375 38.78125 C16.97521014 32.69831891 19.34556684 27.1764353 21.5625 21.5 C21.98724609 20.39140625 22.41199219 19.2828125 22.84960938 18.140625 C23.89179876 15.42390661 24.9420795 12.71062244 26 10 C29.94465818 10.60645022 33.33992527 11.38526115 37 13 C36.42922923 16.46323115 35.56982976 19.18068749 33.890625 22.2578125 C33.25592285 23.43609619 33.25592285 23.43609619 32.60839844 24.63818359 C32.16012695 25.45883301 31.71185547 26.27948242 31.25 27.125 C30.34195918 28.82717088 29.43569722 30.53029195 28.53125 32.234375 C28.09554688 33.05357422 27.65984375 33.87277344 27.2109375 34.71679688 C25.68869091 37.58696828 24.18386652 40.4594714 22.75 43.375 C22.35296875 44.16648438 21.9559375 44.95796875 21.546875 45.7734375 C20.77503745 48.91591895 21.42353861 50.18885748 23 53 C24.72399076 55.04029319 26.41385799 56.88979082 28.3125 58.75 C28.84375488 59.27295654 29.37500977 59.79591309 29.92236328 60.3347168 C46.13551809 75.88082966 65.97770685 83.93462586 88 87 C88 87.33 88 87.66 88 88 C58.96 88 29.92 88 0 88 C0 58.96 0 29.92 0 0 Z " fill="#FBFDFD" transform="translate(0,108)"/>
<path d="M0 0 C29.04 0 58.08 0 88 0 C88 0.33 88 0.66 88 1 C86.43765625 1.22042969 86.43765625 1.22042969 84.84375 1.4453125 C57.58877881 5.58262867 36.26579586 18.4633836 19 40 C17.48301571 42.29397624 16.23204385 44.53591231 15 47 C17.31 47 19.62 47 22 47 C21.67 47.66 21.34 48.32 21 49 C18.03 49 15.06 49 12 49 C11.73058594 49.83917969 11.46117187 50.67835937 11.18359375 51.54296875 C10.16202955 54.52674537 9.02455832 57.43303011 7.84228516 60.35546875 C4.23059667 69.41974394 2.36007007 78.36020511 1 88 C0.67 88 0.34 88 0 88 C0 58.96 0 29.92 0 0 Z " fill="#FCFDFE" transform="translate(0,0)"/>
<path d="M0 0 C1.81395782 0.26089072 3.62610897 0.53434632 5.4375 0.8125 C6.44683594 0.96332031 7.45617187 1.11414063 8.49609375 1.26953125 C11.14172692 1.82107351 13.4326251 2.44972306 15.9609375 3.33203125 C22.5845003 5.61077036 29.38683895 7.22345286 36.1875 8.875 C36.90431946 9.04952698 37.62113892 9.22405396 38.35968018 9.40386963 C53.46232502 13.05529234 68.61779981 15.77981519 84 18 C84.85561523 18.13132324 85.71123047 18.26264648 86.59277344 18.39794922 C97.79015638 20.08870187 109.00978574 20.19820425 120.3125 20.25 C121.03497925 20.2554483 121.7574585 20.26089661 122.50183105 20.26651001 C134.59686437 20.33446157 146.52827853 19.63000819 158.1875 16.125 C159.32832031 15.78210938 160.46914062 15.43921875 161.64453125 15.0859375 C166.48001499 13.5210196 171.25512247 11.82048362 176 10 C173.82293987 21.29510022 173.82293987 21.29510022 171 26 C137.59910548 43.98509705 84.62389678 30.86624333 51.10058594 20.84960938 C9.42713885 8.12772241 9.42713885 8.12772241 0 0 Z " fill="#F7E208" transform="translate(17,112)"/>
<path d="M0 0 C-3.60321931 11.84407495 -11.97725617 20.87467293 -20 30 C-21.80711821 27.28932269 -22.59731014 25.46181438 -23.5078125 22.40234375 C-23.77207031 21.51869141 -24.03632813 20.63503906 -24.30859375 19.72460938 C-24.57800781 18.80486328 -24.84742188 17.88511719 -25.125 16.9375 C-25.40214844 16.01388672 -25.67929688 15.09027344 -25.96484375 14.13867188 C-28 7.27628541 -28 7.27628541 -28 5 C-23.8967776 4.16197087 -19.79227638 3.33038122 -15.6875 2.5 C-14.52025391 2.26152344 -13.35300781 2.02304688 -12.15039062 1.77734375 C-11.03212891 1.55175781 -9.91386719 1.32617188 -8.76171875 1.09375 C-7.73006592 0.88427734 -6.69841309 0.67480469 -5.63549805 0.45898438 C-3 0 -3 0 0 0 Z " fill="#088CF9" transform="translate(187,139)"/>
<path d="M0 0 C2.125 0.4140625 2.125 0.4140625 4.625 1.9765625 C6.60042107 5.18662174 6.99098253 7.66157338 7.125 11.4140625 C6.02291992 14.81214276 5.20402124 15.36138167 2.125 17.4140625 C-2.77987343 17.96783853 -4.77479388 18.17045421 -8.875 15.3515625 C-11.39430235 11.65133717 -11.5816341 9.8108969 -10.875 5.4140625 C-8.32734164 0.20797803 -5.4196194 -0.33872621 0 0 Z " fill="#F7E307" transform="translate(76.875,20.5859375)"/>
<path d="M0 0 C6.31606991 0.90840261 12.28763919 1.96148168 18.2890625 4.13671875 C24.73138952 6.18823787 31.409541 7.50939102 38 9 C37.360625 9.268125 36.72125 9.53625 36.0625 9.8125 C33.66868314 10.88667752 33.66868314 10.88667752 33 14 C26.13252537 12.19869518 19.66556911 9.73222293 13.125 7 C12.29250732 6.65582031 11.46001465 6.31164062 10.60229492 5.95703125 C6.72924631 4.31651487 3.20277876 2.80024373 0 0 Z " fill="#ECE020" transform="translate(17,112)"/>
<path d="M0 0 C1.65 0 3.3 0 5 0 C5.98482876 2.87317015 6.9629993 5.74832745 7.9375 8.625 C8.21529297 9.43324219 8.49308594 10.24148437 8.77929688 11.07421875 C10.22953216 15.37250646 11.42203982 19.47874188 12 24 C11.01 24 10.02 24 9 24 C7.4943349 20.37732706 5.99643454 16.75149451 4.5 13.125 C4.07074219 12.09246094 3.64148438 11.05992187 3.19921875 9.99609375 C2.79316406 9.00996094 2.38710937 8.02382812 1.96875 7.0078125 C1.59169922 6.09660645 1.21464844 5.18540039 0.82617188 4.24658203 C0 2 0 2 0 0 Z " fill="#E5F3FC" transform="translate(154,144)"/>
<path d="M0 0 C4.95 0.99 9.9 1.98 15 3 C13.02 3.99 13.02 3.99 11 5 C10.67 5.99 10.34 6.98 10 8 C8.3501725 7.57781184 6.70516335 7.13675575 5.0625 6.6875 C4.14597656 6.44386719 3.22945312 6.20023437 2.28515625 5.94921875 C1.15400391 5.47935547 1.15400391 5.47935547 0 5 C-0.33 4.01 -0.66 3.02 -1 2 C-0.67 1.34 -0.34 0.68 0 0 Z " fill="#E6DC18" transform="translate(40,118)"/>
<path d="M0 0 C0.66 0.33 1.32 0.66 2 1 C0.625 2.5 0.625 2.5 -1 4 C-1.66 4 -2.32 4 -3 4 C-3.33 5.32 -3.66 6.64 -4 8 C-5.32 7.34 -6.64 6.68 -8 6 C-5.54080489 3.3651481 -3.42227589 1.25483449 0 0 Z " fill="#1994FC" transform="translate(101,54)"/>
<path d="M0 0 C1 2 1 2 0.25 4.4375 C-0.94131051 6.87968654 -1.88488303 8.3255324 -4 10 C-4.66 10 -5.32 10 -6 10 C-4.6302836 6.00499382 -2.74277578 3.19990508 0 0 Z " fill="#1593FA" transform="translate(52,99)"/>
<path d="M0 0 C1.28132813 0.00902344 2.56265625 0.01804688 3.8828125 0.02734375 C4.87023437 0.03894531 5.85765625 0.05054688 6.875 0.0625 C6.875 0.3925 6.875 0.7225 6.875 1.0625 C4.58559044 1.45104209 2.29335426 1.8229628 0 2.1875 C-1.91425781 2.50074219 -1.91425781 2.50074219 -3.8671875 2.8203125 C-5.47980469 2.94019531 -5.47980469 2.94019531 -7.125 3.0625 C-7.785 2.4025 -8.445 1.7425 -9.125 1.0625 C-6.12186252 -0.43906874 -3.33432478 -0.03031204 0 0 Z " fill="#DFF0FC" transform="translate(81.125,-0.0625)"/>
<path d="M0 0 C0.66 0.99 1.32 1.98 2 3 C1.125 5.6875 1.125 5.6875 0 8 C-1.32 8 -2.64 8 -4 8 C-2.87548273 5.0280615 -1.77706209 2.66559313 0 0 Z " fill="#1493FC" transform="translate(19,39)"/>
<path d="M0 0 C1.31602523 0.61754259 2.62773556 1.24428742 3.9375 1.875 C4.66839844 2.22304688 5.39929688 2.57109375 6.15234375 2.9296875 C8 4 8 4 9 6 C5.1936543 5.32829194 1.64793184 4.27253436 -2 3 C-1.34 2.67 -0.68 2.34 0 2 C0 1.34 0 0.68 0 0 Z " fill="#DEF1FC" transform="translate(166,48)"/>
<path d="M0 0 C0.66 0.33 1.32 0.66 2 1 C0.68 2.65 -0.64 4.3 -2 6 C-2.99 5.67 -3.98 5.34 -5 5 C-5 4.01 -5 3.02 -5 2 C-2.625 0.9375 -2.625 0.9375 0 0 Z " fill="#1491FD" transform="translate(540,41)"/>
<path d="M0 0 C1.65 0 3.3 0 5 0 C4.67 1.65 4.34 3.3 4 5 C3.01 5 2.02 5 1 5 C0.67 3.35 0.34 1.7 0 0 Z " fill="#F3F8E2" transform="translate(154,144)"/>
</svg>
